<?xml version="1.0" encoding="utf-8"?>
<!-- Generator: Adobe Illustrator 27.5.0, SVG Export Plug-In . SVG Version: 6.00 Build 0)  -->
<svg version="1.1" xmlns="http://www.w3.org/2000/svg" xmlns:xlink="http://www.w3.org/1999/xlink" x="0px" y="0px"
	 viewBox="0 0 750 500" style="enable-background:new 0 0 750 500;" xml:space="preserve">
<g id="BACKGROUND">
	<g>
		<polygon style="fill:#C5F3FF;" points="0,0 0,456.2 0,500 750,500 750,368.75 750,0 		"/>
		<polygon style="fill:#A8E2EF;" points="0,327.795 0,484.915 0,500 750,500 750,454.796 750,327.795 		"/>
		<path style="opacity:0.55;fill:#F3FFFF;" d="M750,49.47C531.191,126.517,399.226,266.965,0,85.309v104.997
			c105.725,31.123,370.643,90.592,575.933-18.896C640.192,137.139,698.529,110.961,750,90.962V49.47z"/>
		<ellipse style="fill:#5EA0B5;" cx="375" cy="343.397" rx="294.213" ry="31.435"/>
		<path style="fill:#FFFFFF;" d="M614.062,76.043c-1.041,0-2.056,0.107-3.049,0.277c-3.737-10.218-13.517-17.525-25.028-17.525
			c-14.629,0-26.494,11.78-26.658,26.37c-2.09-1.176-4.467-1.902-7.035-1.902c-7.975,0-14.44,6.465-14.44,14.44
			c0,7.974,6.465,14.439,14.44,14.439h61.77c9.969,0,18.05-8.081,18.05-18.05S624.031,76.043,614.062,76.043z"/>
		<path style="fill:#FFFFFF;" d="M230.024,76.043c-1.041,0-2.055,0.107-3.049,0.277c-3.737-10.218-13.517-17.525-25.028-17.525
			c-14.629,0-26.494,11.78-26.658,26.37c-2.09-1.176-4.467-1.902-7.035-1.902c-7.975,0-14.44,6.465-14.44,14.44
			c0,7.974,6.465,14.439,14.44,14.439h61.77c9.969,0,18.05-8.081,18.05-18.05S239.992,76.043,230.024,76.043z"/>
		<path style="fill:#FFFFFF;" d="M132.099,124.762c-0.827,0-1.632,0.085-2.421,0.22c-2.967-8.113-10.732-13.915-19.873-13.915
			c-11.616,0-21.036,9.354-21.167,20.938c-1.659-0.934-3.547-1.51-5.586-1.51c-6.332,0-11.465,5.133-11.465,11.465
			c0,6.332,5.133,11.465,11.465,11.465h49.046c7.915,0,14.332-6.416,14.332-14.332C146.431,131.178,140.014,124.762,132.099,124.762
			z"/>
		<path style="fill:#FFFFFF;" d="M705.136,130.779c-0.827,0-1.632,0.085-2.421,0.22c-2.967-8.113-10.732-13.915-19.873-13.915
			c-11.616,0-21.036,9.354-21.167,20.938c-1.659-0.934-3.546-1.511-5.586-1.511c-6.332,0-11.465,5.133-11.465,11.465
			c0,6.332,5.134,11.465,11.465,11.465h49.046c7.915,0,14.332-6.416,14.332-14.332C719.468,137.195,713.051,130.779,705.136,130.779
			z"/>
		<path style="fill:#94D2E0;" d="M0,327.795h22.121h17.873h17.176h29.389h12.719h25.449h14.584h6.532h33.87h4.298h14.585h15.783
			h24.618h39.571h29.642h12.021h17.621h78.113h14.891h44.393v-1.708h1.21v1.708h52.366h6.918h28.131h24.235h17.873h17.175h29.389
			h12.719h25.449h21.116H750V142.358h-59.284v81.965h-25.449v-7.638h2.549v-4.582h-2.549V191.74h2.549v-4.582h-2.549v-20.363h2.549
			v-4.582h-2.549V141.85h2.549v-4.582h-2.549v-20.364h2.549v-4.582h-2.549V91.96h2.549v-4.582h-2.549v-0.453l-29.642-33.91
			l-12.467,14.261v-7.135h-9.892v18.451h0l-7.284,8.332v0.453h-2.29v4.582h2.29v20.363h-2.29v4.582h2.29v20.364h-2.29v4.582h2.29
			v20.363h-2.29v4.582h2.29v20.363h-2.29v4.582h2.29v20.363h-2.29v4.582h2.29v20.363h-2.29v4.582h2.29v4.351H588.11V166.7h2.419
			v-5.155h-64.122v5.155h2.419v50.732h-18.479l-0.385-147.029l-37.345,27.335V91.96h-9.892v13.019l-11.377,8.327v132.675h-20.491
			v-38.935h2.928v-5.155H315.651v5.155h4.58v84.475H308.21v-49.889h-37.023v-24.66h4.26v-5.154h-36.451v-12.981h2.672v-5.155H219.15
			v5.155h2.386v12.981h-5.631v5.154h2.544v24.66h-4.071v22.654h-15.783V142.358v-9.549h1.66v-4.576h-37.156V106.23h2.672v-5.155
			h-22.519v5.155h2.386v22.002h-6.327v4.576h5.601v9.549h-5.601h-14.584v81.965H99.278v-7.638h2.548v-4.582h-2.548V191.74h2.548
			v-4.582h-2.548v-20.363h2.548v-4.582h-2.548V141.85h2.548v-4.582h-2.548v-20.364h2.548v-4.582h-2.548V91.96h2.548v-4.582h-2.548
			v-0.453l-29.642-33.91L57.169,67.276v-7.135h-9.892v18.451l0,0l-7.284,8.332v0.453h-2.29v4.582h2.29v20.363h-2.29v4.582h2.29
			v20.364h-2.29v4.582h2.29v20.363h-2.29v4.582h2.29v20.363h-2.29v4.582h2.29v20.363h-2.29v4.582h2.29v20.363h-2.29v4.582h2.29
			v4.351H22.121V166.7h2.42v-5.155H0V327.795z M182.183,132.808h11.966v9.549h-10.138h-1.827V132.808z M165.771,132.808h11.965
			v9.549h-11.965V132.808z"/>
	</g>
</g>
<g id="OBJECTS">
	<g>
		<g>
			<g>
				<g>
					<path style="fill:#494F5B;" d="M240.57,214.757h-13.181c-5.163,0-9.386-4.224-9.386-9.387l0,0c0-5.162,4.224-9.386,9.386-9.386
						h13.181c5.162,0,9.386,4.224,9.386,9.386l0,0C249.957,210.533,245.733,214.757,240.57,214.757z"/>
					<path style="fill:#647484;" d="M232.981,214.757H219.8c-5.163,0-9.386-4.224-9.386-9.387l0,0c0-5.162,4.224-9.386,9.386-9.386
						h13.181c5.163,0,9.387,4.224,9.387,9.386l0,0C242.368,210.533,238.144,214.757,232.981,214.757z"/>
				</g>
				<g>
					<path style="fill:#494F5B;" d="M229.296,210.415l-3.975-1.798l3.653-8.075c0.495-1.093,1.794-1.583,2.887-1.088l0,0
						c1.093,0.495,1.583,1.794,1.088,2.887L229.296,210.415z"/>
					<path style="fill:#494F5B;" d="M232.049,200.736l-1.276-0.577l41.033-90.57c0.159-0.351,0.576-0.508,0.927-0.349l0,0
						c0.351,0.159,0.508,0.576,0.349,0.927L232.049,200.736z"/>
					<path style="fill:#494F5B;" d="M274.054,109.837c-0.33,0.729-1.189,1.053-1.919,0.723c-0.73-0.33-1.053-1.189-0.723-1.919
						c0.33-0.729,1.189-1.053,1.919-0.723C274.06,108.248,274.384,109.107,274.054,109.837z"/>
				</g>
				<g>
					<ellipse style="fill:#19283B;" cx="172.361" cy="318.56" rx="31.532" ry="41.855"/>
					<rect x="171.935" y="276.705" style="fill:#19283B;" width="36" height="83.71"/>
					<ellipse style="fill:#0C1723;" cx="208.088" cy="318.56" rx="31.532" ry="41.855"/>
				</g>
				<g>
					<ellipse style="fill:#19283B;" cx="365.146" cy="318.56" rx="31.532" ry="41.855"/>
					<rect x="364.719" y="276.705" style="fill:#19283B;" width="36" height="83.71"/>
					<ellipse style="fill:#0C1723;" cx="400.873" cy="318.56" rx="31.532" ry="41.855"/>
				</g>
				<path style="fill:#FFD302;" d="M302.141,106.989h156.351c33.024,0,59.796,26.771,59.796,59.796v42.44H230.576l29.535-67.589
					C260.111,141.636,270.902,106.989,302.141,106.989z"/>
				<g>
					<path style="fill:#FFD302;" d="M193.142,207.229h193.596v94.456H130.87v-32.184
						C130.87,235.109,158.751,207.229,193.142,207.229z"/>
					<path style="fill:#647484;" d="M146.617,227.642c4.919,1.602,24.457,7.252,55.351,7.252c35.992,0,74.135-6.489,74.135-6.489
						l-8.552,12.978c0,0-45.758,2.404-72.751,2.404c-17.408,0-40.157-4.889-54.119-8.362
						C142.456,232.674,144.437,230.068,146.617,227.642z"/>
					<path style="fill:#F4B537;" d="M322.923,207.229h216.518c47,0,85.101,38.101,85.101,85.101v0c0,5.167-4.188,9.355-9.355,9.355
						h-353.75v-32.97C261.437,234.757,288.965,207.229,322.923,207.229z"/>
				</g>
				<g>
					<circle style="fill:#494F5B;" cx="244.642" cy="262.298" r="18.511"/>
					
						<ellipse transform="matrix(0.0028 -1 1 0.0028 -22.8675 501.6645)" style="fill:#647484;" cx="240.093" cy="262.298" rx="18.511" ry="18.511"/>
					
						<ellipse transform="matrix(0.238 -0.9713 0.9713 0.238 -71.8175 433.0507)" style="fill:#DFE5F5;" cx="240.093" cy="262.298" rx="12.863" ry="12.863"/>
					
						<ellipse transform="matrix(0.238 -0.9713 0.9713 0.238 -71.8175 433.0507)" style="fill:#DFE5F5;" cx="240.093" cy="262.298" rx="12.863" ry="12.863"/>
					<path style="fill:#AFB6C6;" d="M231.151,262.298c0-6.436,4.731-11.752,10.902-12.698c-0.641-0.098-1.292-0.165-1.961-0.165
						c-7.104,0-12.863,5.759-12.863,12.863c0,7.104,5.759,12.863,12.863,12.863c0.669,0,1.32-0.067,1.961-0.165
						C235.883,274.05,231.151,268.733,231.151,262.298z"/>
				</g>
				<g>
					<circle style="fill:#494F5B;" cx="145.378" cy="262.298" r="18.511"/>
					
						<ellipse transform="matrix(0.0025 -1 1 0.0025 -121.8187 402.4734)" style="fill:#647484;" cx="140.828" cy="262.298" rx="18.511" ry="18.511"/>
					<path style="fill:#DFE5F5;" d="M153.692,262.298c0,7.104-5.759,12.863-12.863,12.863c-7.104,0-12.863-5.759-12.863-12.863
						c0-7.104,5.759-12.863,12.863-12.863C147.933,249.434,153.692,255.193,153.692,262.298z"/>
					<path style="fill:#DFE5F5;" d="M153.692,262.298c0,7.104-5.759,12.863-12.863,12.863c-7.104,0-12.863-5.759-12.863-12.863
						c0-7.104,5.759-12.863,12.863-12.863C147.933,249.434,153.692,255.193,153.692,262.298z"/>
					<path style="fill:#AFB6C6;" d="M131.887,262.298c0-6.436,4.731-11.752,10.902-12.698c-0.641-0.098-1.292-0.165-1.961-0.165
						c-7.104,0-12.863,5.759-12.863,12.863c0,7.104,5.759,12.863,12.863,12.863c0.669,0,1.32-0.067,1.961-0.165
						C136.618,274.05,131.887,268.733,131.887,262.298z"/>
				</g>
				<g>
					<path style="fill:#647484;" d="M214.382,278.696h-45.147c-1.749,0-3.18-1.431-3.18-3.18V251.89c0-1.749,1.431-3.18,3.18-3.18
						h45.147c1.749,0,3.18,1.431,3.18,3.18v23.626C217.562,277.265,216.131,278.696,214.382,278.696z"/>
					<path style="fill:#494F5B;" d="M171.115,274.198v-20.99c0-2.474,2.024-4.498,4.498-4.498h-5.06
						c-2.474,0-4.498,2.024-4.498,4.498v20.99c0,2.474,2.024,4.498,4.498,4.498h5.06
						C173.139,278.696,171.115,276.672,171.115,274.198z"/>
					<g>
						<path style="fill:#AFB6C6;" d="M217.56,265.467h-47.819c-0.996,0-1.812,0.815-1.812,1.812c0,0.996,0.815,1.812,1.812,1.812
							h47.819v-1.305l0.002,0.001v-1.146l-0.002,0V265.467z"/>
						<path style="fill:#AFB6C6;" d="M217.562,273.283l-0.002,0.001v-0.882h-47.819c-0.996,0-1.812,0.815-1.812,1.812
							c0,0.996,0.815,1.812,1.812,1.812h47.422c0.249-0.553,0.393-1.162,0.396-1.804v-0.192l0.002,0V273.283z"/>
						<path style="fill:#AFB6C6;" d="M169.741,258.533c-0.996,0-1.812,0.815-1.812,1.812c0,0.997,0.815,1.812,1.812,1.812h47.819
							v-2.4l0.002,0.001v-0.665l-0.002,0.001v-0.56H169.741z"/>
						<path style="fill:#AFB6C6;" d="M217.56,253.184c-0.003-0.559-0.118-1.091-0.309-1.585h-47.509
							c-0.996,0-1.812,0.815-1.812,1.812s0.815,1.812,1.812,1.812h47.819v-0.939l0.002,0.001v-0.884l-0.002,0.001V253.184z"/>
					</g>
				</g>
				<path style="fill:#F4B537;" d="M237.676,208.657h120.411l34.078-83.492H281.278c-3.721,0-7.096,2.184-8.62,5.579
					L237.676,208.657z"/>
				<path style="fill:#98D3E5;" d="M245.574,203.546l31.746-70.708c0.699-1.557,2.251-2.562,3.957-2.562h103.28l-29.905,73.27
					H245.574z"/>
				<path style="opacity:0.4;fill:#FFFFFF;" d="M337.507,130.276h-16.826c-1.706,0-3.258,1.005-3.957,2.562l-31.746,70.708h16.826
					l31.746-70.708C334.249,131.281,335.802,130.276,337.507,130.276z"/>
				<path style="opacity:0.4;fill:#FFFFFF;" d="M366.261,130.276h-16.826c-1.706,0-3.258,1.005-3.957,2.562l-31.747,70.708h16.826
					l31.746-70.708C363.003,131.281,364.556,130.276,366.261,130.276z"/>
				<path style="fill:#56768B;" d="M293.205,130.276h-11.927c-1.706,0-3.258,1.005-3.957,2.562l-31.746,70.708h11.927l31.747-70.708
					C289.947,131.281,291.5,130.276,293.205,130.276z"/>
				<path style="fill:#494F5B;" d="M288.439,200.061h-38.551c-1.171,0-2.13,0.959-2.13,2.13l0,0c0,1.171,0.958,2.13,2.13,2.13
					h38.551c1.171,0,2.13-0.958,2.13-2.13l0,0C290.569,201.019,289.61,200.061,288.439,200.061z"/>
				<path style="fill:#494F5B;" d="M347.792,200.061h-38.551c-1.171,0-2.13,0.959-2.13,2.13l0,0c0,1.171,0.959,2.13,2.13,2.13
					h38.551c1.171,0,2.13-0.958,2.13-2.13l0,0C349.922,201.019,348.964,200.061,347.792,200.061z"/>
				<path style="fill:#F4B537;" d="M425.96,106.989h77.096c22.022,0,35.067,11.814,41.02,41.021l22.895,92.454h-215.7l34.505-85.196
					C385.776,155.267,396.319,114.16,425.96,106.989z"/>
				<path style="fill:#C17F1F;" d="M385.556,208.657h154.815c3.944,0,6.871-3.656,6.008-7.504l-13.054-58.233
					c-2.635-11.754-13.069-20.108-25.114-20.108h-77.188c-10.163,0-19.375,5.981-23.51,15.265l-27.581,61.918
					C378.118,204.067,381.098,208.657,385.556,208.657z"/>
				<path style="fill:#98D3E5;" d="M384.443,202.003l27.581-61.918c3.338-7.494,10.796-12.336,19-12.336h32.587v75.969h-78.054
					c-0.547,0-0.858-0.302-1.022-0.556C384.37,202.911,384.22,202.504,384.443,202.003z"/>
				<path style="fill:#FFB692;" d="M423.228,177.15c-0.21,0.161-17.602,13.305-34.818,15.949l-3.966,8.904
					c-0.223,0.5-0.073,0.907,0.091,1.16c0.164,0.254,0.475,0.556,1.022,0.556h5.076c19.888-3.298,38.255-17.219,39.207-17.95
					c2.378-1.825,2.826-5.231,1.003-7.611C429.017,175.779,425.61,175.327,423.228,177.15z"/>
				<path style="fill:#98D3E5;" d="M470.633,127.75h37.578c9.805,0,18.151,6.682,20.295,16.25l13.054,58.233
					c0.106,0.473-0.071,0.82-0.238,1.029c-0.167,0.208-0.468,0.457-0.951,0.457h-69.738V127.75z"/>
				<path style="fill:#56768B;" d="M541.323,203.262c0.167-0.209,0.344-0.556,0.238-1.029l-5.874-26.202h-65.054v27.689h69.738
					C540.855,203.719,541.156,203.47,541.323,203.262z"/>
				<path style="fill:#494F5B;" d="M267.55,241.383c2.292-4.701,5.179-9.053,8.552-12.978h320.143
					c4.394,3.899,8.381,8.245,11.878,12.978H267.55z"/>
				<g>
					<path style="fill:#C17F1F;" d="M447.986,217.97c0.159,3.876-5.282,7.248-12.153,7.531c-6.872,0.283-12.572-2.63-12.731-6.507
						c-0.159-3.876,5.282-7.248,12.153-7.531C442.127,211.181,447.827,214.094,447.986,217.97z"/>
					<path style="fill:#494F5B;" d="M443.636,217.881l-16.71-0.077c-1.815-0.008-3.293-1.5-3.284-3.315l0,0
						c0.008-1.815,1.5-3.293,3.315-3.284l16.71,0.077c1.815,0.008,3.292,1.5,3.284,3.315l0,0
						C446.942,216.411,445.451,217.889,443.636,217.881z"/>
				</g>
				<g>
					<path style="fill:#C17F1F;" d="M511.141,217.97c0.159,3.876-5.282,7.248-12.153,7.531c-6.872,0.283-12.572-2.63-12.731-6.507
						c-0.159-3.876,5.282-7.248,12.153-7.531C505.282,211.181,510.982,214.094,511.141,217.97z"/>
					<path style="fill:#494F5B;" d="M506.791,217.881l-16.71-0.077c-1.815-0.008-3.293-1.5-3.284-3.315l0,0
						c0.008-1.815,1.5-3.293,3.315-3.284l16.71,0.077c1.815,0.008,3.293,1.5,3.284,3.315l0,0
						C510.097,216.411,508.606,217.889,506.791,217.881z"/>
				</g>
				<path style="fill:#494F5B;" d="M540.768,310.306H130.724c-4.591,0-8.348-3.756-8.348-8.348v-6.919
					c0-4.591,3.756-8.348,8.348-8.348h410.043c4.591,0,8.347,3.756,8.347,8.348v6.919
					C549.115,306.55,545.359,310.306,540.768,310.306z"/>
				<path style="fill:#494F5B;" d="M619.335,310.306H209.291c-4.591,0-8.347-3.756-8.347-8.348v-6.919
					c0-4.591,3.756-8.348,8.347-8.348h410.043c4.591,0,8.347,3.756,8.347,8.348v6.919
					C627.682,306.55,623.926,310.306,619.335,310.306z"/>
				<g>
					<path style="fill:#C17F1F;" d="M373.24,310.181h-92.889c0,0,2.234-55.287,43.745-55.287
						C365.607,254.895,373.24,310.181,373.24,310.181z"/>
					<g>
						<ellipse style="fill:#19283B;" cx="298.554" cy="318.56" rx="31.532" ry="41.855"/>
						<rect x="298.128" y="276.705" style="fill:#19283B;" width="36" height="83.71"/>
						<ellipse style="fill:#494F5B;" cx="334.282" cy="318.56" rx="31.532" ry="41.855"/>
						<ellipse style="fill:#DFE5F5;" cx="334.282" cy="318.561" rx="16.584" ry="26.907"/>
						<ellipse style="fill:#DFE5F5;" cx="334.282" cy="318.561" rx="18.333" ry="29.745"/>
						<path style="fill:#AFB6C6;" d="M334.282,288.816c-1.321,0-2.664,0.316-3.993,0.859c7.396,3.02,14.34,14.028,14.34,28.886
							s-6.943,25.866-14.34,28.886c1.33,0.543,2.672,0.859,3.993,0.859c8.672,0,18.333-12.216,18.333-29.745
							C352.615,301.032,342.953,288.816,334.282,288.816z"/>
						<ellipse style="fill:#F3F7FF;" cx="336.874" cy="317.811" rx="10.773" ry="17.126"/>
					</g>
					<path style="fill:#494F5B;" d="M326.721,247.678c-31.11,0-57.253,27.167-62.428,62.628h17.769
						c4.643-25.772,22.895-45.068,44.659-45.068s40.016,19.297,44.658,45.068h17.77
						C383.974,274.845,357.832,247.678,326.721,247.678z"/>
				</g>
				<g>
					<path style="fill:#C17F1F;" d="M595.201,310.181h-92.889c0,0,2.234-55.287,43.745-55.287
						C587.568,254.895,595.201,310.181,595.201,310.181z"/>
					<g>
						<ellipse style="fill:#19283B;" cx="520.516" cy="318.56" rx="31.532" ry="41.855"/>
						<rect x="520.089" y="276.705" style="fill:#19283B;" width="36" height="83.71"/>
						<ellipse style="fill:#494F5B;" cx="556.243" cy="318.56" rx="31.532" ry="41.855"/>
						<ellipse style="fill:#DFE5F5;" cx="556.243" cy="318.561" rx="16.584" ry="26.907"/>
						<ellipse style="fill:#DFE5F5;" cx="556.243" cy="318.561" rx="18.333" ry="29.745"/>
						<path style="fill:#AFB6C6;" d="M556.243,288.816c-1.321,0-2.664,0.316-3.993,0.859c7.396,3.02,14.339,14.028,14.339,28.886
							s-6.943,25.866-14.339,28.886c1.329,0.543,2.672,0.859,3.993,0.859c8.672,0,18.333-12.216,18.333-29.745
							C574.576,301.032,564.914,288.816,556.243,288.816z"/>
						<ellipse style="fill:#F3F7FF;" cx="558.835" cy="317.811" rx="10.773" ry="17.126"/>
					</g>
					<path style="fill:#494F5B;" d="M548.682,247.678c-31.11,0-57.253,27.167-62.428,62.628h17.77
						c4.642-25.772,22.894-45.068,44.658-45.068c21.764,0,40.016,19.297,44.659,45.068h17.77
						C605.935,274.845,579.793,247.678,548.682,247.678z"/>
				</g>
				<path style="fill:#647484;" d="M251.028,310.306H130.724c-4.591,0-8.348-3.756-8.348-8.348v-6.919
					c0-4.591,3.756-8.348,8.348-8.348h120.303c4.591,0,8.348,3.756,8.348,8.348v6.919
					C259.375,306.55,255.619,310.306,251.028,310.306z"/>
				<g>
					<path style="fill:#C17F1F;" d="M346.522,234.716h-10.495c-2.061,0-3.748-1.687-3.748-3.748l0,0
						c0-2.061,1.687-3.748,3.748-3.748h10.495c2.062,0,3.748,1.687,3.748,3.748l0,0C350.27,233.03,348.584,234.716,346.522,234.716z
						"/>
					<path style="fill:#FFD302;" d="M346.85,234.716h-5.685c-2.061,0-3.748-1.687-3.748-3.748l0,0c0-2.061,1.687-3.748,3.748-3.748
						h5.685c2.061,0,3.748,1.687,3.748,3.748l0,0C350.598,233.03,348.912,234.716,346.85,234.716z"/>
				</g>
				<g>
					<path style="fill:#494F5B;" d="M402.12,214.757h-13.181c-5.163,0-9.386-4.224-9.386-9.387l0,0c0-5.162,4.224-9.386,9.386-9.386
						h13.181c5.163,0,9.386,4.224,9.386,9.386l0,0C411.506,210.533,407.282,214.757,402.12,214.757z"/>
					<path style="fill:#647484;" d="M394.531,214.757H381.35c-5.163,0-9.387-4.224-9.387-9.387l0,0c0-5.162,4.224-9.386,9.387-9.386
						h13.181c5.162,0,9.386,4.224,9.386,9.386l0,0C403.917,210.533,399.693,214.757,394.531,214.757z"/>
				</g>
				<g>
					<path style="fill:#C17F1F;" d="M217.25,319.664h-40.088c-2.045,0-3.717-1.673-3.717-3.717v-13.193
						c0-2.044,1.673-3.717,3.717-3.717h40.089c2.045,0,3.717,1.673,3.717,3.717v13.193
						C220.968,317.991,219.295,319.664,217.25,319.664z"/>
					<path style="fill:#ECB220;" d="M213.745,319.664h-40.088c-2.045,0-3.717-1.673-3.717-3.717v-13.193
						c0-2.044,1.673-3.717,3.717-3.717h40.089c2.045,0,3.717,1.673,3.717,3.717v13.193
						C217.463,317.991,215.79,319.664,213.745,319.664z"/>
				</g>
			</g>
			<g>
				<path style="fill:#C4314A;" d="M421.859,196.188l-10.792-15.213l15.084-10.701c2.39-1.695,5.702-1.132,7.397,1.257l4.653,6.558
					c1.695,2.39,1.132,5.702-1.257,7.397L421.859,196.188z"/>
			</g>
			<g>
				<path style="fill:#FF5A5A;" d="M462.508,203.719l1.103-8.69v-13.814c-2.177-7.04-8.278-12.527-16.064-13.515
					c-13.687-1.737-26.19,7.951-27.926,21.637l-1.825,14.382H462.508z"/>
				<path style="fill:#FFB692;" d="M453.837,174.844c0.202,4.19-5.313,7.86-12.317,8.197c-7.004,0.337-12.845-2.787-13.047-6.977
					c-0.202-4.19,5.313-7.86,12.317-8.197C447.794,167.53,453.635,170.654,453.837,174.844z"/>
			</g>
			<g>
				<path style="fill:#FFB692;" d="M433.042,170.318c2.51-19.777,5.067-9.009,9.831-8.405c4.764,0.604,9.768-7.909,7.42,10.593
					c-0.88,6.931-4.665,5.843-9.429,5.238C436.101,177.141,432.163,177.249,433.042,170.318z"/>
				<path style="fill:#D88D87;" d="M450.846,166.707c0.531-10.691-3.813-4.265-7.973-4.793c-4.613-0.585-7.157-10.699-9.592,6.613
					C440.346,171.872,446.418,169.801,450.846,166.707z"/>
			</g>
			<g>
				<g>
					<g>
						<path style="fill:#FFB692;" d="M430.974,142.794c0.688,2.973-0.362,5.8-2.345,6.315c-1.983,0.515-4.147-1.477-4.835-4.45
							c-0.688-2.973,0.362-5.8,2.345-6.315C428.121,137.829,430.286,139.822,430.974,142.794z"/>
						<path style="fill:#D88D87;" d="M428.87,143.238c0.303-0.079,0.612-0.065,0.914,0.021c-0.01-0.049-0.017-0.098-0.029-0.148
							c-0.454-1.964-1.884-3.28-3.194-2.94c-1.31,0.34-2.004,2.208-1.549,4.172c0.349,1.51,1.276,2.633,2.28,2.919
							C426.905,145.353,427.594,143.57,428.87,143.238z"/>
					</g>
					<path style="fill:#FFB692;" d="M449.124,124.072l-8.038-1.02c-6.272-0.796-12.055,3.685-12.851,9.957l-2.106,16.602
						c-1.111,8.758,5.145,16.834,13.904,17.945h0c8.758,1.111,16.834-5.146,17.945-13.904l1.979-15.598
						C460.823,131.229,455.948,124.937,449.124,124.072z"/>
					<path style="fill:#D88D87;" d="M459.409,132.573c-1.474-4.429-5.366-7.878-10.285-8.502l-8.038-1.02
						c-6.272-0.796-12.055,3.685-12.851,9.957l-0.755,5.954C437.908,141.655,450.224,137.246,459.409,132.573z"/>
					<path style="fill:#3E3D5E;" d="M448.388,118.597c-4.632-0.793-8.413-0.387-11.477,0.679v-6.413
						c-4.022,1.024-4.948,3.99-4.948,3.99v-6.164c0,0-13.214,6.453-5.938,21.622l0.002-0.001c-0.113,3.544,1.534,6.256,1.534,6.256
						l0.761-6l25.849-0.2c-2.028,10.963-0.709,13.529,7.053,14.079C467.257,131.125,461.403,120.824,448.388,118.597z"/>
					<path style="fill:#5B5B84;" d="M455.776,121.145c-8.279,3.479-22.411,7.565-31.751,0.243c-0.335,2.059-0.237,4.437,0.548,7.149
						c10.597,3.089,24.81-2.619,32.628-6.471C456.747,121.741,456.274,121.431,455.776,121.145z"/>
					<g>
						<path style="fill:#D88D87;" d="M435.844,148.54c0,0,4.059,1.288,3.979,2.069c-0.08,0.781-2.15,0.896-2.664,0.491
							C436.645,150.696,435.844,148.54,435.844,148.54z"/>
						<g>
							<path style="fill:#34344F;" d="M435.23,142.449c-0.123,0.967-1.006,1.652-1.973,1.529c-0.967-0.123-1.652-1.007-1.529-1.974
								c0.123-0.967,1.006-1.652,1.974-1.529C434.668,140.598,435.353,141.482,435.23,142.449z"/>
							<path style="fill:#34344F;" d="M447.823,144.047c-0.123,0.967-1.006,1.652-1.973,1.529c-0.967-0.123-1.652-1.006-1.529-1.974
								c0.123-0.967,1.006-1.652,1.974-1.529C447.261,142.196,447.946,143.079,447.823,144.047z"/>
							<path style="fill:#D88D87;" d="M440.342,139.942c-0.723,1.95-1.571,3.82-2.46,5.672c-0.449,0.924-0.899,1.846-1.387,2.753
								l-0.092,0.17c-0.039,0.075,0.035-0.05,0.006-0.123c-0.017-0.054-0.001-0.01-0.007-0.018c0.013,0.047,0.083,0.155,0.148,0.246
								l0.458,0.587c0.316,0.402,0.644,0.806,0.937,1.256c-0.492-0.22-0.934-0.505-1.359-0.822
								c-0.207-0.166-0.419-0.327-0.611-0.533c-0.098-0.109-0.194-0.201-0.298-0.384c-0.028-0.068-0.051-0.08-0.075-0.197
								c-0.027-0.137,0.03-0.329,0.034-0.309l0.085-0.175c0.453-0.931,0.944-1.848,1.436-2.763
								C438.149,143.475,439.183,141.668,440.342,139.942z"/>
						</g>
						<g>
							<path style="fill:#34344F;" d="M436.424,152.944c2.014-0.317,4.825-0.897,7.477-1.919c1.744-0.672,3.265,1.545,2.344,3.451
								c-0.981,2.028-2.707,3.93-5.746,4.199c-2.491,0.22-4.081-0.435-5.097-1.358C433.964,156.012,434.629,153.226,436.424,152.944
								z"/>
							<path style="fill:#FF9292;" d="M440.498,158.675c3.039-0.269,4.766-2.17,5.746-4.199c0.138-0.286,0.216-0.578,0.251-0.867
								c-1.08-0.486-2.519-0.682-4.447-0.26c-2.979,0.651-4.435,2.754-5.134,4.888c-0.001,0.004-0.002,0.008-0.003,0.013
								C437.829,158.619,438.998,158.808,440.498,158.675z"/>
							<path style="fill:#FFABAB;" d="M439.044,156.194c0.299,0.513,1.448,0.429,2.567-0.187c1.118-0.616,1.782-1.531,1.483-2.045
								c-0.299-0.513-1.449-0.429-2.567,0.187C439.409,154.766,438.745,155.681,439.044,156.194z"/>
							<path style="fill:#FFFFFF;" d="M436.424,152.944c2.014-0.317,4.825-0.897,7.477-1.919c1.071-0.413,2.056,0.266,2.444,1.291
								c-1.557,1.391-3.934,2.516-6.711,3.021c-1.78,0.323-3.497,0.349-5.013,0.128
								C434.611,154.295,435.292,153.122,436.424,152.944z"/>
						</g>
					</g>
					<g>
						<path style="fill:#FFB692;" d="M455.583,146.045c-1.308,2.757-0.887,5.743,0.94,6.67c1.827,0.927,4.367-0.556,5.675-3.312
							c1.308-2.757,0.887-5.743-0.94-6.67C459.432,141.806,456.891,143.289,455.583,146.045z"/>
						<path style="fill:#D88D87;" d="M457.543,146.929c-0.279-0.142-0.584-0.195-0.897-0.175c0.02-0.046,0.038-0.092,0.06-0.138
							c0.864-1.821,2.543-2.801,3.749-2.188c1.207,0.612,1.484,2.585,0.621,4.406c-0.664,1.4-1.81,2.299-2.852,2.364
							C459.009,149.415,458.719,147.526,457.543,146.929z"/>
					</g>
				</g>
				<path style="fill:#323244;" d="M448.911,138.752l-2.272-1.219c-0.703-0.377-1.586-0.111-1.964,0.592
					c-0.377,0.703-0.111,1.586,0.592,1.964l2.272,1.219c0.703,0.377,1.586,0.111,1.964-0.592
					C449.88,140.013,449.614,139.129,448.911,138.752z"/>
				<path style="fill:#323244;" d="M431.832,136.585l2.504-0.613c0.775-0.19,1.564,0.289,1.753,1.064
					c0.19,0.775-0.289,1.564-1.064,1.754l-2.504,0.613c-0.775,0.19-1.564-0.289-1.753-1.064
					C430.578,137.564,431.057,136.775,431.832,136.585z"/>
			</g>
			<g>
				<path style="fill:none;stroke:#FFB692;stroke-width:11;stroke-linecap:round;stroke-miterlimit:10;" d="M458.475,179.048
					c37.296,2.082,54.475-17.324,45.501-57.344"/>
				<path style="fill:#C4314A;" d="M475.075,170.573l0.468,18.646l-18.488,0.464c-2.929,0.074-5.364-2.242-5.437-5.171l-0.202-8.038
					c-0.074-2.929,2.241-5.364,5.171-5.437L475.075,170.573z"/>
				<g>
					<path style="fill:#FFB692;" d="M506.627,126.362c-4.493,5.637-11.38-2.266-11.38-2.266l-7.194-1.36c0,0,1.49-6.354,7.501-3.773
						c0,0-4.71-7.943-3.572-11.782c0.534-1.803,6.838-5.486,10.752-5.684c0.83-0.042,1.525,0.604,1.546,1.435
						c0.049,1.995,0.539,5.955,3.399,8.967C511.662,116.093,514.627,123.8,506.627,126.362z"/>
					<path style="fill:#D88D87;" d="M495.554,118.962c0,0,4.428-3.027,9.131,1.082c0,0-4.769-2.891-8.914-0.725L495.554,118.962z"/>
					<path style="fill:#D88D87;" d="M505.102,114.148c0,0-4.338,0.28-7.952,2.705C497.15,116.853,498.931,112.51,505.102,114.148z"
						/>
					<g>
						<path style="fill:#D88D87;" d="M503.461,114.302l-0.354-0.013c0,0-2.86-6.796-1.236-12.699
							c0.122-0.019,0.242-0.035,0.361-0.049C501.853,103.83,501.294,109.323,503.461,114.302z"/>
						<path style="fill:#D88D87;" d="M498.698,115.466l-0.432,0.374c0,0-4.754-5.639-3.786-11.126
							c1.148-0.772,2.568-1.535,4.013-2.125c-0.246,1.778-0.63,7.092,2.561,11.912l-0.39,0.203c0,0-4.802-5.657-2.882-11.666
							l-2.807,1.366C494.975,104.404,494.14,110.309,498.698,115.466z"/>
					</g>
				</g>
			</g>
			<path style="fill:#494F5B;" d="M453.842,169.627l-39.83,34.092h13.372l34.756-32.789
				C462.139,170.931,458.541,168.92,453.842,169.627z"/>
			<g>
				<path style="fill:#FFD302;" d="M384.724,106.989h-36.925v-1.607c0-7.342,5.952-13.294,13.294-13.294h10.336
					c7.342,0,13.294,5.952,13.294,13.294V106.989z"/>
				<path style="fill:#FFEC9C;" d="M374.432,106.989h-36.925v-1.607c0-7.342,5.952-13.294,13.294-13.294h10.336
					c7.342,0,13.294,5.952,13.294,13.294V106.989z"/>
			</g>
			<g>
				<rect x="389.53" y="248.906" style="fill:#494F5B;" width="14.583" height="14.583"/>
				<rect x="404.113" y="263.489" style="fill:#494F5B;" width="14.583" height="14.583"/>
				<rect x="418.696" y="248.906" style="fill:#494F5B;" width="14.583" height="14.583"/>
				<rect x="433.28" y="263.489" style="fill:#494F5B;" width="14.583" height="14.583"/>
				<rect x="447.863" y="248.906" style="fill:#494F5B;" width="14.583" height="14.583"/>
				<rect x="462.446" y="263.489" style="fill:#494F5B;" width="14.583" height="14.583"/>
				<rect x="477.03" y="248.906" style="fill:#494F5B;" width="14.583" height="14.583"/>
			</g>
		</g>
		<g>
			<g>
				<rect x="239.089" y="449.795" style="fill:none;" width="282.373" height="21.763"/>
				<text transform="matrix(1 0 0 1 239.089 456.4601)"><tspan x="0" y="0" style="fill:#5EA0B5; font-family:'Lato-Regular'; font-size:9.0441px;">Lorem</tspan><tspan x="25.485" y="0" style="fill:#5EA0B5; font-family:'Lato-Regular'; font-size:9.0441px; letter-spacing:2;"> </tspan><tspan x="30.071" y="0" style="fill:#5EA0B5; font-family:'Lato-Regular'; font-size:9.0441px;">ipsum</tspan><tspan x="53.757" y="0" style="fill:#5EA0B5; font-family:'Lato-Regular'; font-size:9.0441px; letter-spacing:2;"> </tspan><tspan x="58.344" y="0" style="fill:#5EA0B5; font-family:'Lato-Regular'; font-size:9.0441px;">dolor</tspan><tspan x="79.416" y="0" style="fill:#5EA0B5; font-family:'Lato-Regular'; font-size:9.0441px; letter-spacing:2;"> </tspan><tspan x="84.002" y="0" style="fill:#5EA0B5; font-family:'Lato-Regular'; font-size:9.0441px;">sit</tspan><tspan x="93.616" y="0" style="fill:#5EA0B5; font-family:'Lato-Regular'; font-size:9.0441px; letter-spacing:2;"> </tspan><tspan x="98.202" y="0" style="fill:#5EA0B5; font-family:'Lato-Regular'; font-size:9.0441px;">amet,</tspan><tspan x="120.242" y="0" style="fill:#5EA0B5; font-family:'Lato-Regular'; font-size:9.0441px; letter-spacing:2;"> </tspan><tspan x="124.828" y="0" style="fill:#5EA0B5; font-family:'Lato-Regular'; font-size:9.0441px;">consectetuer</tspan><tspan x="176.893" y="0" style="fill:#5EA0B5; font-family:'Lato-Regular'; font-size:9.0441px; letter-spacing:2;"> </tspan><tspan x="181.478" y="0" style="fill:#5EA0B5; font-family:'Lato-Regular'; font-size:9.0441px;">adipiscing</tspan><tspan x="220.855" y="0" style="fill:#5EA0B5; font-family:'Lato-Regular'; font-size:9.0441px; letter-spacing:2;"> </tspan><tspan x="225.44" y="0" style="fill:#5EA0B5; font-family:'Lato-Regular'; font-size:9.0441px;">elit,</tspan><tspan x="240.1" y="0" style="fill:#5EA0B5; font-family:'Lato-Regular'; font-size:9.0441px; letter-spacing:2;"> </tspan><tspan x="244.685" y="0" style="fill:#5EA0B5; font-family:'Lato-Regular'; font-size:9.0441px;">sed</tspan><tspan x="258.405" y="0" style="fill:#5EA0B5; font-family:'Lato-Regular'; font-size:9.0441px; letter-spacing:2;"> </tspan><tspan x="262.99" y="0" style="fill:#5EA0B5; font-family:'Lato-Regular'; font-size:9.0441px;">diam </tspan><tspan x="2.651" y="10.05" style="fill:#5EA0B5; font-family:'Lato-Regular'; font-size:9.0441px;">nonummy nibh euismod tincidunt ut laoreet dolore magna aliquam era.</tspan></text>
				
					<text transform="matrix(1 0 0 1 174.3405 438.758)" style="fill:#FFFEFF; font-family:'Montserrat-Bold'; font-size:39.2187px;">DIA DO MOTORISTA</text>
			</g>
			
				<text transform="matrix(1 0 0 1 328.1164 400.7082)" style="fill:#5EA0B5; font-family:'Montserrat-Bold'; font-size:15.3241px;">25 de julho</text>
		</g>
	</g>
</g>
</svg>
