<?xml version="1.0" encoding="utf-8"?>
<!-- Generator: Adobe Illustrator 27.5.0, SVG Export Plug-In . SVG Version: 6.00 Build 0)  -->
<svg version="1.1" xmlns="http://www.w3.org/2000/svg" xmlns:xlink="http://www.w3.org/1999/xlink" x="0px" y="0px"
	 viewBox="0 0 500 500" style="enable-background:new 0 0 500 500;" xml:space="preserve">
<g id="BACKGROUND">
	<g>
		<g>
			<g>
				<g>
					<g>
						<g>
							<rect y="-0.005" style="fill:#BAC7BF;" width="500" height="500"/>
						</g>
					</g>
				</g>
			</g>
		</g>
	</g>
</g>
<g id="OBJECT">
	<path style="fill:#AAB6AF;" d="M500,243.58c0,0-7.806-3.24-14.051-2.803c-6.245,0.437-25.76,8.616-29.663,8.889
		c-3.903,0.273-17.173-3.341-23.418-5.176c-6.245-1.834-38.25,10.674-55.423,13.555c-17.173,2.881-121.775,9.868-132.703,9.283
		c-10.928-0.585-119.433,16.091-135.045,16.426c-15.612,0.335-47.91-5.545-51.715-6.414c-3.806-0.869-15.515-0.618-17.856-1.306
		c-2.342-0.688-13.173-14.979-14.929-15.991c-1.756-1.013-24.004-3.148-24.004-3.148v63.033L500,285.034V243.58z"/>
	<path style="fill:#AAB6AF;" d="M1.192,311.529c0,0,421.714-40.125,498.808-50.21v238.676H1.192V311.529z"/>
	<path style="fill:#FBD255;" d="M1.192,319.242v2.612c0,0,421.714-40.125,498.808-50.21v-2.612
		C422.907,279.117,1.192,319.242,1.192,319.242z"/>
	<path style="fill:#CFDED6;" d="M1.192,330.865v2.612c0,0,421.714-40.124,498.808-50.209v-2.613
		C422.907,290.74,1.192,330.865,1.192,330.865z"/>
	<g>
		<g>
			<polygon style="fill:#CFDED6;" points="314.582,440.566 343.576,442.677 201.745,480.322 158.207,480.322 			"/>
			<polygon style="fill:#CFDED6;" points="440.354,408.595 456.827,412.61 377.499,433.672 353.411,430.694 			"/>
			<polygon style="fill:#CFDED6;" points="500,393.428 500,401.152 476.84,407.302 460.537,403.458 			"/>
		</g>
	</g>
	<g>
		<g>
			<path style="fill:#1A2E33;" d="M106.477,409.281c17.852,0,338.314,0,338.314,0c23.661,2.115,41.592,7.131,47.567,13.106
				c3.956,3.956-476.889,0-484.22,0C0.808,422.387,72.684,409.281,106.477,409.281z"/>
		</g>
		<g>
			<g>
				<path style="fill:#1A2E33;" d="M249.191,414.539l22.824-71.054h-6.439l-20.627,68.944c-2.207,1.639-5.511,1.803-5.859,3.671
					h7.922C248.01,416.099,248.893,415.467,249.191,414.539z"/>
				<polygon style="fill:#FFFFFF;" points="266.452,345.081 245.997,412.632 247.236,411.734 267.84,345.081 				"/>
				<path style="fill:#1A2E33;" d="M290.807,414.539l22.824-71.054h-6.439l-20.627,68.944c-2.207,1.639-5.511,1.803-5.859,3.671
					h7.922C289.627,416.099,290.509,415.467,290.807,414.539z"/>
				<polygon style="fill:#FFFFFF;" points="308.331,345.081 287.876,412.632 289.115,411.734 309.719,345.081 				"/>
				<polygon style="fill:#1A2E33;" points="259.733,375.543 298.798,374.569 297.692,378.303 258.667,379.14 				"/>
			</g>
			<g>
				<rect x="210.983" y="248.182" style="fill:#1A2E33;" width="4.953" height="15.509"/>
				<rect x="265.34" y="248.182" style="fill:#1A2E33;" width="4.953" height="15.509"/>
				<rect x="168.605" y="238.2" style="fill:#1A2E33;" width="4.953" height="25.492"/>
				<path style="fill:#1A2E33;" d="M206.576,351.101c-13.371,0-25.434-8.211-30.291-20.762l-41.254-106.603l4.619-1.787
					l41.254,106.603c4.251,10.981,15.041,18.037,26.776,17.574l170.063-7.053c7.391-0.295,13.204-6.317,13.237-13.71l0.027-5.847
					c0.023-5.215-2.978-10.085-7.649-12.406l-108.945-54.147l2.204-4.435l108.945,54.147c6.349,3.155,10.43,9.775,10.398,16.863
					l-0.027,5.847c-0.046,10.049-7.947,18.235-17.988,18.636l-170.063,7.053C207.446,351.092,207.009,351.101,206.576,351.101z"/>
				
					<rect x="322.32" y="267.774" transform="matrix(0.9194 -0.3932 0.3932 0.9194 -79.4478 152.7061)" style="fill:#1A2E33;" width="21.29" height="4.953"/>
			</g>
			<g>
				<g>
					
						<ellipse transform="matrix(0.0524 -0.9986 0.9986 0.0524 56.9797 723.4582)" style="fill:#1A2E33;" cx="409.684" cy="331.706" rx="30.568" ry="22.17"/>
					<g>
						<g>
							
								<polyline style="fill:none;stroke:#FFFFFF;stroke-width:0.5;stroke-linecap:round;stroke-linejoin:round;stroke-miterlimit:10;" points="
								438.83,326.448 438.388,264.516 433.372,263.691 424.26,323.851 							"/>
							
								<polyline style="fill:none;stroke:#FFFFFF;stroke-width:0.5;stroke-linecap:round;stroke-linejoin:round;stroke-miterlimit:10;" points="
								435.198,339.133 483.582,341.423 484,335.03 436.569,320.571 							"/>
							
								<polyline style="fill:none;stroke:#FFFFFF;stroke-width:0.5;stroke-linecap:round;stroke-linejoin:round;stroke-miterlimit:10;" points="
								425.163,334.006 426.187,395.961 431.207,396.709 439.748,336.379 							"/>
							
								<polyline style="fill:none;stroke:#FFFFFF;stroke-width:0.5;stroke-linecap:round;stroke-linejoin:round;stroke-miterlimit:10;" points="
								428.585,321.31 380.227,320.57 379.935,326.982 427.579,339.931 							"/>
							
								<polyline style="fill:none;stroke:#FFFFFF;stroke-width:0.5;stroke-linecap:round;stroke-linejoin:round;stroke-miterlimit:10;" points="
								434.114,321.001 397.63,278.204 393.99,282.439 423.423,333.162 							"/>
							
								<polyline style="fill:none;stroke:#FFFFFF;stroke-width:0.5;stroke-linecap:round;stroke-linejoin:round;stroke-miterlimit:10;" points="
								439.119,333.816 472.796,291.331 469.519,286.252 429.709,318.926 							"/>
							
								<polyline style="fill:none;stroke:#FFFFFF;stroke-width:0.5;stroke-linecap:round;stroke-linejoin:round;stroke-miterlimit:10;" points="
								429.618,339.245 465.113,383.393 468.857,379.309 440.61,327.526 							"/>
							
								<polyline style="fill:none;stroke:#FFFFFF;stroke-width:0.5;stroke-linecap:round;stroke-linejoin:round;stroke-miterlimit:10;" points="
								424.834,326.533 391.164,369.027 394.442,374.104 434.246,341.42 							"/>
							
								<polyline style="fill:none;stroke:#FFFFFF;stroke-width:0.5;stroke-linecap:round;stroke-linejoin:round;stroke-miterlimit:10;" points="
								436.103,322.362 414.039,266.066 410.097,267.955 424.581,327.666 							"/>
							
								<polyline style="fill:none;stroke:#FFFFFF;stroke-width:0.5;stroke-linecap:round;stroke-linejoin:round;stroke-miterlimit:10;" points="
								439.345,328.643 454.142,270.649 450.184,268.35 427.894,321.776 							"/>
							
								<polyline style="fill:none;stroke:#FFFFFF;stroke-width:0.5;stroke-linecap:round;stroke-linejoin:round;stroke-miterlimit:10;" points="
								433.599,320.805 479.605,304.961 481.261,310.101 438.27,335.821 							"/>
							
								<polyline style="fill:none;stroke:#FFFFFF;stroke-width:0.5;stroke-linecap:round;stroke-linejoin:round;stroke-miterlimit:10;" points="
								433.509,339.69 479.51,361.311 481.126,356.34 438.353,325.322 							"/>
							
								<polyline style="fill:none;stroke:#FFFFFF;stroke-width:0.5;stroke-linecap:round;stroke-linejoin:round;stroke-miterlimit:10;" points="
								427.85,337.984 449.915,394.281 453.857,392.392 439.373,332.681 							"/>
							
								<polyline style="fill:none;stroke:#FFFFFF;stroke-width:0.5;stroke-linecap:round;stroke-linejoin:round;stroke-miterlimit:10;" points="
								424.609,331.703 409.811,389.697 413.77,391.996 436.06,338.57 							"/>
							
								<polyline style="fill:none;stroke:#FFFFFF;stroke-width:0.5;stroke-linecap:round;stroke-linejoin:round;stroke-miterlimit:10;" points="
								425.684,324.526 382.692,350.246 384.349,355.386 430.355,339.542 							"/>
							
								<polyline style="fill:none;stroke:#FFFFFF;stroke-width:0.5;stroke-linecap:round;stroke-linejoin:round;stroke-miterlimit:10;" points="
								430.445,320.657 384.443,299.036 382.827,304.006 425.6,335.025 							"/>
						</g>
						<g>
							<path style="fill:#1A2E33;" d="M406.596,247.723c-41.984,4.555-74.314,45.847-72.204,92.227
								c2.103,46.383,37.856,80.291,79.845,75.74c41.981-4.547,74.312-45.839,72.196-92.224
								C484.33,277.083,448.585,243.172,406.596,247.723z M460.739,327.154c0.786,27.138-15.075,51.329-35.42,54.034
								c-20.352,2.708-37.489-17.103-38.263-44.239c-0.786-27.138,15.075-51.33,35.42-54.034
								C442.829,280.207,459.966,300.018,460.739,327.154z"/>
							
								<ellipse transform="matrix(0.1259 -0.992 0.992 0.1259 38.933 704.0912)" style="fill:none;stroke:#FFFFFF;stroke-width:0.5;stroke-linecap:round;stroke-linejoin:round;stroke-miterlimit:10;" cx="418.998" cy="329.953" rx="62.634" ry="50.335"/>
						</g>
					</g>
					<g>
						
							<ellipse transform="matrix(0.0524 -0.9986 0.9986 0.0524 71.0241 738.2587)" style="fill:#1A2E33;" cx="424.507" cy="331.706" rx="30.568" ry="22.17"/>
						
							<ellipse transform="matrix(0.0524 -0.9986 0.9986 0.0524 73.1836 740.5344)" style="fill:#AAB6AF;" cx="426.785" cy="331.706" rx="30.568" ry="22.17"/>
						<path style="fill:#1A2E33;" d="M435.579,333.53c-0.203,8.159-4.796,14.773-10.261,14.773s-9.73-6.614-9.527-14.773
							c0.203-8.159,4.796-14.773,10.261-14.773S435.782,325.371,435.579,333.53z"/>
						<path style="fill:#AAB6AF;" d="M423.149,320.65l2.171,6.044c0,0,3.316,0,4.349,2.322l0.814-7.138
							C430.483,321.878,426.815,318.929,423.149,320.65z"/>
						
							<path style="fill:none;stroke:#FFFFFF;stroke-width:0.5;stroke-linecap:round;stroke-linejoin:round;stroke-miterlimit:10;" d="
							M440.812,333.53c-0.202,8.159-4.796,14.773-10.261,14.773s-9.73-6.614-9.527-14.773c0.202-8.159,4.796-14.773,10.261-14.773
							C436.749,318.757,441.014,325.371,440.812,333.53z"/>
						<path style="fill:#FFFFFF;" d="M408.875,331.17c3.058-12.96,13.241-21.712,22.742-19.548
							c5.847,1.332,10.064,6.494,11.739,13.281c0.306-10.346-4.616-19.117-12.51-20.915c-9.502-2.165-19.685,6.587-22.743,19.547
							c-1.176,4.986-1.116,9.861-0.069,14.105C408.096,335.532,408.357,333.363,408.875,331.17z"/>
						<path style="fill:#1A2E33;" d="M408.387,340.271c0,0,5.465,3.212,7.12,4.689c1.024,0.914,5.445,9.341,10.719,9.245
							c7.322-0.134,14.591-5.903,18.266-17.954c0,0-1.394,23.179-17.76,23.179C412.412,359.43,408.387,340.271,408.387,340.271z"/>
						<path style="fill:#1A2E33;" d="M435.837,321.878c0.536,0,0.968,0.685,0.965,1.531c-0.004,0.845-0.441,1.531-0.977,1.531
							c-0.536,0-0.968-0.685-0.965-1.531C434.863,322.564,435.3,321.878,435.837,321.878z"/>
						<path style="fill:#1A2E33;" d="M437.948,332.323c0.536,0,0.968,0.685,0.965,1.531c-0.004,0.845-0.441,1.531-0.977,1.531
							c-0.536,0-0.968-0.685-0.965-1.531C436.974,333.008,437.412,332.323,437.948,332.323z"/>
						<path style="fill:#FFFFFF;" d="M418.172,332.323c0.536,0,0.968,0.685,0.965,1.531c-0.004,0.845-0.441,1.531-0.978,1.531
							c-0.536,0-0.968-0.685-0.965-1.531C417.198,333.008,417.636,332.323,418.172,332.323z"/>
						<path style="fill:#1A2E33;" d="M435.351,341.441c0.536,0,0.968,0.685,0.965,1.531c-0.004,0.845-0.441,1.531-0.978,1.531
							c-0.536,0-0.968-0.685-0.965-1.531C434.377,342.126,434.815,341.441,435.351,341.441z"/>
						<path style="fill:#FFFFFF;" d="M429.558,333.53c-0.079,3.194-1.426,5.782-3.008,5.782c-1.582,0-2.8-2.589-2.721-5.782
							c0.079-3.193,1.426-5.782,3.008-5.782C428.419,327.747,429.637,330.336,429.558,333.53z"/>
					</g>
				</g>
				<g>
					<path style="fill:#CFDED6;" d="M453.858,249.399c-1.51,4.381-4.895,9.481-12.431,9.481c-7.528,0-35.766,1.823-57.607,17.874
						c-21.841,16.043-24.854,43.023-31.251,49.953c-6.405,6.931-20.924,6.659-20.924,6.659c0-11.431,2.047-35.46,21.345-58.115
						c4.202-4.94,9.228-9.816,15.229-14.477c24.111-18.737,55.312-17.163,72.613-14.301l0.017,0.008
						C448.832,247.8,453.858,249.399,453.858,249.399z"/>
					<path style="fill:#FFFFFF;" d="M359.702,273.188c-23.675,29.311-20.654,41.561-20.654,41.561s4.464-3.292,7.403-9.301
						c2.164-4.424,19.593-55.147,76.486-51.989c0,0-37.301,10.04-49.707,28.01c-12.414,17.97-17.639,30.153-20.9,37.971
						c-3.269,7.826-15.427,10.56-18.036,10.928c-2.369,0.344-1.42-29.441,18.696-55.117c4.202-4.94,9.228-9.816,15.229-14.477
						c24.111-18.737,55.312-17.163,72.613-14.301l0.017,0.008C440.85,246.481,387.029,239.355,359.702,273.188z"/>
				</g>
			</g>
			<g>
				<path style="fill:#1A2E33;" d="M168.186,265.123l31.813,64.662c3.472,7.057,10.823,11.358,18.676,10.927l164.152-9.009v-19.766
					l-106.161-50.642H170.568C168.602,261.296,167.318,263.358,168.186,265.123z"/>
				<g>
					
						<path style="fill:none;stroke:#FFFFFF;stroke-width:0.5;stroke-linecap:round;stroke-linejoin:round;stroke-miterlimit:10;" d="
						M175.186,260.881l29.894,68.191c3.08,7.026,10.193,11.309,18.07,10.879"/>
					
						<line style="fill:none;stroke:#FFFFFF;stroke-width:0.5;stroke-linecap:round;stroke-linejoin:round;stroke-miterlimit:10;" x1="276.666" y1="261.296" x2="289.72" y2="301.668"/>
					
						<line style="fill:none;stroke:#FFFFFF;stroke-width:0.5;stroke-linecap:round;stroke-linejoin:round;stroke-miterlimit:10;" x1="208.651" y1="260.881" x2="223.15" y2="302.385"/>
				</g>
				<g>
					<ellipse style="fill:#1A2E33;" cx="244.085" cy="317.501" rx="28.858" ry="21.976"/>
					<g>
						<polygon style="fill:#FFFFFF;" points="234.995,300.255 237.47,299.006 263.212,299.006 262.095,300.255 						"/>
						<polygon style="fill:#FFFFFF;" points="226.167,303.397 228.642,302.148 254.383,302.148 253.267,303.397 						"/>
						<polygon style="fill:#FFFFFF;" points="222.858,306.539 225.333,305.29 251.075,305.29 249.958,306.539 						"/>
						<polygon style="fill:#FFFFFF;" points="220.227,309.681 222.702,308.432 248.444,308.432 247.327,309.681 						"/>
						<polygon style="fill:#FFFFFF;" points="219.07,312.823 221.544,311.574 247.286,311.574 246.17,312.823 						"/>
						<polygon style="fill:#FFFFFF;" points="217.968,315.966 220.443,314.716 246.185,314.716 245.068,315.966 						"/>
						<polygon style="fill:#FFFFFF;" points="220.887,325.392 223.362,324.142 249.104,324.142 247.987,325.392 						"/>
						<polygon style="fill:#FFFFFF;" points="223.141,328.534 225.616,327.284 251.357,327.284 250.241,328.534 						"/>
						<polygon style="fill:#FFFFFF;" points="227.336,331.676 229.811,330.426 255.552,330.426 254.436,331.676 						"/>
						<polygon style="fill:#FFFFFF;" points="232.235,334.818 234.71,333.568 260.452,333.568 259.335,334.818 						"/>
						<polygon style="fill:#FFFFFF;" points="217.025,319.108 219.5,317.858 245.242,317.858 244.125,319.108 						"/>
						<polygon style="fill:#FFFFFF;" points="217.968,322.25 220.443,321 246.185,321 245.068,322.25 						"/>
					</g>
					
						<ellipse style="fill:none;stroke:#FFFFFF;stroke-width:0.5;stroke-linecap:round;stroke-linejoin:round;stroke-miterlimit:10;" cx="244.085" cy="317.501" rx="28.858" ry="21.976"/>
					<ellipse style="fill:#AAB6AF;" cx="262.413" cy="317.501" rx="28.858" ry="21.976"/>
					
						<ellipse style="fill:none;stroke:#FFFFFF;stroke-width:0.5;stroke-linecap:round;stroke-linejoin:round;stroke-miterlimit:10;" cx="269.719" cy="317.501" rx="28.858" ry="21.976"/>
					<ellipse style="fill:#1A2E33;" cx="269.719" cy="317.501" rx="7.306" ry="5.564"/>
					<path style="fill:#FFFFFF;" d="M272.203,309.629c0,0,6.246,1.602,6.909,5.696l6.065-3.387c0,0-1.758-8.525-8.594-12.012
						L272.203,309.629z"/>
					
						<path style="fill:none;stroke:#FFFFFF;stroke-width:0.5;stroke-linecap:round;stroke-linejoin:round;stroke-miterlimit:10;" d="
						M273.75,317.501c0,1.695-1.805,3.069-4.031,3.069s-4.031-1.374-4.031-3.069c0-1.695,1.805-3.07,4.031-3.07
						S273.75,315.806,273.75,317.501z"/>
					<path style="fill:#1A2E33;" d="M245.169,317.501c0,0,1.473,3.202,3.191,4.698c1.718,1.495,9.072,0.611,11.408,0.866
						c2.336,0.255,5.047,4.452,9.951,4.503c4.904,0.051,15.098-0.574,18.158-6.997c0,0-2.503,16.394-21.354,16.394
						S243.697,320.841,245.169,317.501z"/>
					<path style="fill:#1A2E33;" d="M253.688,315.324c0,0.49-0.522,0.888-1.166,0.888c-0.644,0-1.166-0.397-1.166-0.888
						s0.522-0.888,1.166-0.888C253.166,314.436,253.688,314.834,253.688,315.324z"/>
					<path style="fill:#1A2E33;" d="M259.795,306.869c0,0.49-0.522,0.888-1.166,0.888c-0.644,0-1.166-0.397-1.166-0.888
						c0-0.49,0.522-0.888,1.166-0.888C259.273,305.981,259.795,306.379,259.795,306.869z"/>
					<path style="fill:#1A2E33;" d="M269.719,304.134c0,0.49-0.522,0.888-1.166,0.888s-1.166-0.398-1.166-0.888
						s0.522-0.888,1.166-0.888S269.719,303.644,269.719,304.134z"/>
					<path style="fill:#1A2E33;" d="M240.861,330.797l3.204-1.776c0,0,4.295,6.262,11.781,8.691
						C255.846,337.713,248.212,336.872,240.861,330.797z"/>
				</g>
				<g>
					<g>
						<path style="fill:#1A2E33;" d="M239.741,349.485c-13.371,0-25.433-8.211-30.291-20.762l-41.254-106.603l4.619-1.787
							l41.254,106.602c4.25,10.981,15.043,18.05,26.776,17.575l170.063-7.053c7.391-0.295,13.204-6.317,13.237-13.71l0.027-5.847
							c0.023-5.215-2.979-10.085-7.649-12.406l-108.424-53.888h-22.383v-4.953h23.546l109.466,54.406
							c6.349,3.155,10.43,9.775,10.398,16.864l-0.027,5.847c-0.046,10.049-7.947,18.235-17.989,18.636l-170.063,7.053
							C240.611,349.477,240.174,349.485,239.741,349.485z"/>
						
							<rect x="316.697" y="306.052" transform="matrix(0.2193 -0.9757 0.9757 0.2193 -26.2249 584.2846)" style="fill:#1A2E33;" width="70.543" height="4.952"/>
					</g>
					<path style="fill:#FFFFFF;" d="M187.11,264.133c0,0,21.232,55.834,26.971,68.159c0.189,0.407,0.362,0.766,0.516,1.075
						C219.427,343.02,197.243,280.597,187.11,264.133z"/>
				</g>
				<g>
					<g>
						<polygon style="fill:#FFFFFF;" points="328.984,290.011 313.847,290.719 311.62,294.523 328.984,293.712 						"/>
						<polygon style="fill:#FFFFFF;" points="328.984,297.156 313.847,297.863 311.62,301.668 328.984,300.857 						"/>
						<polygon style="fill:#FFFFFF;" points="328.984,304.301 313.847,305.008 311.62,308.813 328.984,308.001 						"/>
						<polygon style="fill:#FFFFFF;" points="328.984,311.445 313.847,312.153 311.62,315.958 328.984,315.146 						"/>
						<polygon style="fill:#FFFFFF;" points="328.984,318.59 313.847,319.298 311.62,323.103 328.984,322.291 						"/>
						<polygon style="fill:#FFFFFF;" points="328.984,325.735 313.847,326.443 311.62,330.247 328.984,329.436 						"/>
					</g>
					<g>
						<polygon style="fill:#CFDED6;" points="328.984,286.252 382.827,311.937 382.827,331.703 328.984,334.818 						"/>
						
							<polyline style="fill:none;stroke:#FFFFFF;stroke-width:0.5;stroke-linecap:round;stroke-linejoin:round;stroke-miterlimit:10;" points="
							328.984,286.252 308.679,286.252 308.679,335.384 						"/>
						
							<polyline style="fill:none;stroke:#FFFFFF;stroke-width:0.5;stroke-linecap:round;stroke-linejoin:round;stroke-miterlimit:10;" points="
							338.607,334.261 338.607,323.409 378.017,326.448 378.017,332.323 						"/>
					</g>
					<g>
						
							<ellipse style="fill:none;stroke:#FFFFFF;stroke-width:0.5;stroke-linecap:round;stroke-linejoin:round;stroke-miterlimit:10;" cx="341.227" cy="309.805" rx="4.572" ry="8.786"/>
						<ellipse style="fill:#1A2E33;" cx="343.178" cy="309.805" rx="4.572" ry="8.786"/>
						
							<ellipse style="fill:none;stroke:#FFFFFF;stroke-width:0.5;stroke-linecap:round;stroke-linejoin:round;stroke-miterlimit:10;" cx="359.699" cy="313.702" rx="3.718" ry="7.145"/>
						<path style="fill:#1A2E33;" d="M364.88,313.702c0,3.946-1.665,7.145-3.718,7.145c-2.053,0-3.718-3.199-3.718-7.145
							c0-3.946,1.665-7.145,3.718-7.145C363.216,306.557,364.88,309.756,364.88,313.702z"/>
						
							<ellipse style="fill:none;stroke:#FFFFFF;stroke-width:0.5;stroke-linecap:round;stroke-linejoin:round;stroke-miterlimit:10;" cx="375.171" cy="317.03" rx="3.232" ry="6.212"/>
						<ellipse style="fill:#1A2E33;" cx="376.961" cy="317.03" rx="3.232" ry="6.212"/>
					</g>
				</g>
				<g>
					<polygon style="fill:#AAB6AF;" points="215.985,264.703 241.542,264.846 242.204,266.273 216.725,266.195 					"/>
					<polygon style="fill:#AAB6AF;" points="244.722,264.863 269.989,264.992 270.625,266.358 245.423,266.285 					"/>
					<polygon style="fill:#AAB6AF;" points="218.45,270.641 243.903,270.776 244.565,272.203 219.177,272.124 					"/>
					<polygon style="fill:#AAB6AF;" points="247.174,270.792 272.35,270.921 272.986,272.288 247.879,272.207 					"/>
					<polygon style="fill:#AAB6AF;" points="221.029,276.914 246.482,277.049 247.144,278.476 221.756,278.397 					"/>
					<polygon style="fill:#AAB6AF;" points="249.752,277.065 274.929,277.195 275.564,278.561 250.458,278.48 					"/>
					<polygon style="fill:#AAB6AF;" points="223.608,283.187 249.061,283.322 249.723,284.749 224.335,284.67 					"/>
					<polygon style="fill:#AAB6AF;" points="252.331,283.338 277.507,283.468 278.143,284.835 253.036,284.754 					"/>
					<polygon style="fill:#AAB6AF;" points="226.186,289.46 251.639,289.595 252.302,291.023 226.914,290.944 					"/>
					<polygon style="fill:#AAB6AF;" points="254.91,289.611 280.086,289.741 280.722,291.108 255.615,291.027 					"/>
				</g>
				<g>
					<path style="fill:#FFFFFF;" d="M317.553,282.668l-35.593-16.309l10.123,33.567c0,0,4.988,3.278,6.494,6.614l-10.7-35
						L317.553,282.668z"/>
					
						<path style="fill:none;stroke:#FFFFFF;stroke-width:0.5;stroke-linecap:round;stroke-linejoin:round;stroke-miterlimit:10;" d="
						M301.477,283.909c0.402,1.793-0.219,3.458-1.387,3.72c-1.168,0.262-2.441-0.979-2.844-2.771
						c-0.402-1.793,0.219-3.458,1.387-3.72C299.802,280.876,301.075,282.117,301.477,283.909z"/>
					
						<path style="fill:none;stroke:#FFFFFF;stroke-width:0.5;stroke-linecap:round;stroke-linejoin:round;stroke-miterlimit:10;" d="
						M304.243,296.238c0.402,1.793-0.219,3.458-1.387,3.72c-1.168,0.262-2.441-0.979-2.843-2.771
						c-0.402-1.793,0.219-3.458,1.387-3.72C302.568,293.205,303.841,294.446,304.243,296.238z"/>
				</g>
			</g>
			<g>
				<path style="fill:none;stroke:#1A2E33;stroke-width:0.5;stroke-linecap:round;stroke-linejoin:round;stroke-miterlimit:10;" d="
					M184.264,256.781c0,0,45.493,0,60.301,0c14.808,0,23.988,17.654,23.988,17.654"/>
				
					<line style="fill:none;stroke:#1A2E33;stroke-width:0.5;stroke-linecap:round;stroke-linejoin:round;stroke-miterlimit:10;" x1="198.118" y1="254.989" x2="198.118" y2="261.319"/>
				
					<line style="fill:none;stroke:#1A2E33;stroke-width:0.5;stroke-linecap:round;stroke-linejoin:round;stroke-miterlimit:10;" x1="238.272" y1="254.989" x2="238.272" y2="261.319"/>
				
					<line style="fill:none;stroke:#1A2E33;stroke-width:0.5;stroke-linecap:round;stroke-linejoin:round;stroke-miterlimit:10;" x1="301.013" y1="272.91" x2="303.151" y2="269.033"/>
				
					<line style="fill:none;stroke:#1A2E33;stroke-width:0.5;stroke-linecap:round;stroke-linejoin:round;stroke-miterlimit:10;" x1="337.594" y1="290.36" x2="340.338" y2="286.525"/>
				<path style="fill:none;stroke:#1A2E33;stroke-width:0.5;stroke-linecap:round;stroke-linejoin:round;stroke-miterlimit:10;" d="
					M354.832,295.788c0,0-73.499-37.483-78.165-37.996c-4.666-0.513-32.101-1.011-32.101-1.011"/>
			</g>
			<g>
				<path style="fill:#CFDED6;" d="M205.732,375.669c-4.358,0-8.572-1.71-11.7-4.78c-3.385-3.322-5.202-7.944-4.985-12.681
					l1.111-24.286c0.389-8.535,7.114-15.373,15.642-15.904l18.529-1.155c2.064-0.129,3.811,1.429,3.938,3.476
					c0.127,2.047-1.428,3.811-3.476,3.938l-18.529,1.155c-4.734,0.295-8.467,4.09-8.684,8.829l-1.111,24.286
					c-0.122,2.669,0.861,5.169,2.767,7.04c1.907,1.872,4.431,2.808,7.093,2.635l193.112-12.497c2.066-0.135,3.814,1.419,3.947,3.467
					c0.133,2.047-1.419,3.814-3.466,3.947l-193.113,12.497C206.448,375.657,206.09,375.669,205.732,375.669z"/>
				<g>
					<path style="fill:#CFDED6;" d="M413.369,367.845l-93.37,6.779c-2.878,0.209-5.381-1.955-5.59-4.833l-0.764-10.52
						c-0.209-2.878,1.955-5.381,4.833-5.59l93.37-6.779c12.19-0.885,24.439,0.43,36.164,3.882h0
						c3.794,1.117,4.173,6.342,0.581,7.995h0C437.49,363.889,425.559,366.96,413.369,367.845z"/>
					<path style="fill:#FFFFFF;" d="M321.132,357.42l101.52-7.371c7.191-0.522,14.4-0.341,21.53,0.521
						c-9.939-2.302-20.177-3.107-30.374-2.367l-93.37,6.779c-2.878,0.209-5.042,2.712-4.833,5.59l0.217,2.989
						C315.594,360.398,317.971,357.649,321.132,357.42z"/>
					<path style="fill:#1A2E33;" d="M434.205,360.767L434.205,360.767c-2.046,0.148-3.863-1.913-4.059-4.605l-0.009-0.124
						c-0.195-2.691,1.305-4.994,3.351-5.142l0,0c4.368-0.317,8.775,0.402,13.01,2.123l0,0c1.371,0.557,1.55,3.019,0.274,3.768l0,0
						C442.83,359.101,438.573,360.449,434.205,360.767z"/>
					<path style="fill:#1A2E33;" d="M344.236,373.07c-0.073,0-0.143-0.039-0.181-0.107c-4.645-8.442-1.572-20.967-1.54-21.093
						c0.027-0.11,0.136-0.178,0.25-0.15c0.111,0.028,0.178,0.14,0.15,0.251c-0.031,0.124-3.064,12.494,1.502,20.793
						c0.055,0.1,0.018,0.225-0.081,0.28C344.303,373.062,344.27,373.07,344.236,373.07z"/>
					<path style="fill:#1A2E33;" d="M413.036,368.075c-0.073,0-0.143-0.039-0.181-0.107c-4.644-8.442-1.572-20.967-1.54-21.093
						c0.027-0.11,0.138-0.178,0.25-0.15c0.111,0.028,0.178,0.14,0.15,0.251c-0.031,0.124-3.063,12.494,1.502,20.793
						c0.055,0.1,0.019,0.225-0.081,0.281C413.104,368.067,413.07,368.075,413.036,368.075z"/>
				</g>
			</g>
			<g>
				<path style="fill:#1A2E33;" d="M338.607,253.119c-8.809,1.407-47.667,0-47.667,0s-2.612-16.552-1.633-16.552
					c0.98,0,49.3,1.959,49.3,1.959V253.119z"/>
				<path style="fill:#1A2E33;" d="M300.208,242.844c0,0,30.286,9.735,38.399,10.276c8.113,0.541,83.288-20.551,83.288-20.551
					s-2.163-16.225-9.735-21.092c-7.572-4.867-58.95,1.622-65.981,3.245c-7.031,1.622-24.337,12.439-48.674,9.194L300.208,242.844z"
					/>
				<path style="fill:none;stroke:#FFFFFF;stroke-width:0.5;stroke-linecap:round;stroke-linejoin:round;stroke-miterlimit:10;" d="
					M412.159,211.476c0,0-4.591-3.61-18.169,5.353c-13.578,8.962-40.068,19.63-59.695,19.738
					c-19.627,0.109-36.791-3.374-36.791-3.374"/>
				<path style="fill:none;stroke:#FFFFFF;stroke-width:0.5;stroke-linecap:round;stroke-linejoin:round;stroke-miterlimit:10;" d="
					M307.746,244.276c0,0,22.689,8.089,30.86,8.843"/>
				
					<line style="fill:none;stroke:#FFFFFF;stroke-width:0.5;stroke-linecap:round;stroke-linejoin:round;stroke-miterlimit:10;" x1="341.227" y1="216.424" x2="391.164" y2="218.081"/>
			</g>
			<g>
				
					<rect x="135.798" y="165.993" transform="matrix(-0.9425 -0.3342 0.3342 -0.9425 219.8085 376.2385)" style="fill:#FFFFFF;" width="12.947" height="6.432"/>
				<path style="fill:#1A2E33;" d="M106.098,161.282l31.456,11.155c1.459,0.518,3.062-0.246,3.579-1.705l1.213-3.42
					c0.518-1.459-0.246-3.062-1.705-3.579l-31.456-11.155c-1.459-0.518-3.062,0.246-3.579,1.705l-1.213,3.42
					C103.875,159.162,104.639,160.764,106.098,161.282z"/>
				<path style="fill:#AAB6AF;" d="M110.64,153.88l28.898,10.248c1.189,0.422,1.916,1.564,1.864,2.762l-31.085-11.023
					C110.513,155.085,110.623,154.398,110.64,153.88z"/>
				<path style="fill:#1A2E33;" d="M143.104,174.191l4.102,0.954c1.117,0.26,2.25-0.361,2.634-1.441l1.184-3.338
					c0.383-1.081-0.106-2.277-1.137-2.779l-3.787-1.844c-0.583-0.284-1.284,0.003-1.501,0.614l-2.274,6.412
					C142.109,173.38,142.472,174.044,143.104,174.191z"/>
				<path style="fill:#FFFFFF;" d="M106.041,156.311c-0.594,1.674-0.773,3.138-0.401,3.27s1.155-1.118,1.748-2.792
					c0.594-1.674,0.773-3.138,0.401-3.27C107.418,153.387,106.635,154.637,106.041,156.311z"/>
				<path style="fill:none;stroke:#FFFFFF;stroke-width:0.5;stroke-linecap:round;stroke-linejoin:round;stroke-miterlimit:10;" d="
					M106.109,161.286c0.54,0.191,1.675-1.622,2.537-4.051c0.861-2.429,1.122-4.553,0.582-4.744"/>
				<path style="fill:#AAB6AF;" d="M150.594,169.975c0.049-0.508-0.286-1.414-0.736-1.749c-0.45-0.335-3.873-2.032-4.292-1.961
					c-0.419,0.071-0.874,1.354-0.874,1.354L150.594,169.975z"/>
			</g>
			<g>
				<path style="fill:#AAB6AF;" d="M148.467,175.693c1.359,1.075,0.449,3.596,0.449,3.596s1.673,2.665,6.083,4.046l-0.139,1.911
					l-9.321-2.843l-4.951-5.646l2.047-3.79C142.634,172.967,147.108,174.618,148.467,175.693z"/>
				<path style="fill:#1A2E33;" d="M147.758,176.657c-0.22,0.182-0.242,0.518-0.049,0.752c0.193,0.233,0.528,0.275,0.747,0.093
					c0.22-0.182,0.242-0.518,0.049-0.752C148.313,176.517,147.978,176.475,147.758,176.657z"/>
				<path style="fill:#FFFFFF;" d="M141.555,172.803c0,0-1.891,2.551-3.993,3.02c-2.102,0.468-24.744-5.115-29.778-3.832
					c-5.033,1.283-3.715,3.93-2.886,4.845c0.828,0.915,4.241,1.278,3.897-2.245c0,0,24.755,3.145,36.745,7.813
					c0,0,0.494-3.317,0.128-4.161c-0.366-0.845-3.797-2.314-3.033-5.274L141.555,172.803z"/>
			</g>
			<g>
				<path style="fill:#1A2E33;" d="M112.173,266.417l-18.028,51.488l-6.684,2.087c-1.626,0.508-2.924,1.822-3.487,3.531
					l-3.211,9.744c-1.089,3.305,0.13,6.975,2.924,8.803l3.246,2.123l5.27,1.959l25.24-77.775L112.173,266.417z"/>
				<path style="fill:none;stroke:#FFFFFF;stroke-width:0.5;stroke-linecap:round;stroke-linejoin:round;stroke-miterlimit:10;" d="
					M90.575,331.125c-0.813,3.145-2.809,5.299-4.458,4.811c-1.649-0.488-2.327-3.434-1.514-6.579
					c0.813-3.145,2.809-5.299,4.458-4.811S91.388,327.98,90.575,331.125z"/>
				<path style="fill:#FFFFFF;" d="M94.145,320.232c0,0.314-0.238,0.569-0.531,0.569c-0.293,0-0.531-0.255-0.531-0.569
					c0-0.314,0.238-0.569,0.531-0.569C93.907,319.663,94.145,319.918,94.145,320.232z"/>
				<path style="fill:#FFFFFF;" d="M86.899,322.61c0,0.314-0.238,0.569-0.531,0.569c-0.293,0-0.531-0.255-0.531-0.569
					c0-0.314,0.238-0.569,0.531-0.569C86.662,322.041,86.899,322.296,86.899,322.61z"/>
				<path style="fill:#FFFFFF;" d="M82.456,336.723c0,0.314-0.238,0.569-0.531,0.569s-0.531-0.255-0.531-0.569
					c0-0.314,0.238-0.569,0.531-0.569S82.456,336.408,82.456,336.723z"/>
				<path style="fill:#FFFFFF;" d="M86.899,341.789c0,0.314-0.238,0.569-0.531,0.569c-0.293,0-0.531-0.255-0.531-0.569
					c0-0.314,0.238-0.569,0.531-0.569C86.662,341.22,86.899,341.474,86.899,341.789z"/>
				<polygon style="fill:#FFFFFF;" points="101.461,344.751 89.206,340.196 141.894,177.84 154.15,182.395 				"/>
				<polygon style="fill:#1A2E33;" points="155.02,182.72 141.023,177.517 142.527,172.884 156.524,178.086 				"/>
				<polygon style="fill:#1A2E33;" points="140.915,226.184 126.918,220.982 128.421,216.348 142.419,221.551 				"/>
				<polygon style="fill:#1A2E33;" points="126.17,271.62 112.173,266.417 113.676,261.784 127.674,266.987 				"/>
				<polygon style="fill:#1A2E33;" points="100.93,349.395 86.933,344.192 88.436,339.559 102.434,344.762 				"/>
				<polygon style="fill:#E74514;" points="127.674,266.987 113.676,261.784 126.918,220.981 140.915,226.184 				"/>
				<polygon style="fill:#FFFFFF;" points="115.747,262.554 113.676,261.784 126.918,220.981 128.989,221.751 				"/>
				<path style="fill:#1A2E33;" d="M142.373,178.99c7.064,2.478,9.703,3.583,11.506,4.239l-12.331,37.999l-2.454-0.912
					c0,0,7.81-26.241,9.236-30.634l-10.519,28.428c0,0-0.944-1.815-1.235-2.721c-0.291-0.907,10.439-31.452,10.463-32.242
					S143.903,180.184,142.373,178.99z"/>
				<polygon style="fill:#1A2E33;" points="95.334,342.474 93.605,341.831 117.679,267.65 119.407,268.292 				"/>
				<path style="fill:#1A2E33;" d="M97.539,343.293l23.838-73.455l3.922,1.458l-23.838,73.455l-1.961-0.729
					c0,0,22.044-65.753,22.349-67.237c0.305-1.483-0.077-3.023-0.077-3.023l-23.525,69.794L97.539,343.293z"/>
				<path style="fill:#F55C2F;" d="M133.916,223.583c0,0-9.044,30.373-10.672,34.957l-0.106,3.154l9.609-24.175
					c0,0-6.863,24.098-6.947,25.464c-0.084,1.366,1.874,4.004,1.874,4.004l13.242-40.803L133.916,223.583z"/>
				<path style="fill:#FFFFFF;" d="M142.941,173.505c0,0,12.483,4.74,12.896,4.951c0.179,0.092-1.02,3.688-1.02,3.688
					s-2.404-1.06-2.832-1.552c-0.428-0.492-0.273-2.963-0.273-2.963S143.64,174.43,142.941,173.505z"/>
				<polygon style="fill:#1A2E33;" points="130.938,217.284 142.942,181.923 133.141,218.103 				"/>
			</g>
			<g>
				<path style="fill:#1A2E33;" d="M72.421,243.323c-4.252,2.04,6.146,14.471,6.146,14.471l15.674-5.406
					C94.241,252.388,77.705,240.789,72.421,243.323z"/>
				<g>
					
						<ellipse transform="matrix(0.0524 -0.9986 0.9986 0.0524 -239.1551 411.3888)" style="fill:#1A2E33;" cx="97.185" cy="331.706" rx="24.402" ry="17.698"/>
					<g>
						<g>
							
								<polyline style="fill:none;stroke:#FFFFFF;stroke-width:0.5;stroke-linecap:round;stroke-linejoin:round;stroke-miterlimit:10;" points="
								118.004,326.448 117.561,264.516 112.545,263.691 103.434,323.851 							"/>
							
								<polyline style="fill:none;stroke:#FFFFFF;stroke-width:0.5;stroke-linecap:round;stroke-linejoin:round;stroke-miterlimit:10;" points="
								114.371,339.133 162.755,341.423 163.173,335.03 115.742,320.571 							"/>
							
								<polyline style="fill:none;stroke:#FFFFFF;stroke-width:0.5;stroke-linecap:round;stroke-linejoin:round;stroke-miterlimit:10;" points="
								104.336,334.006 105.36,395.961 110.381,396.709 118.921,336.379 							"/>
							
								<polyline style="fill:none;stroke:#FFFFFF;stroke-width:0.5;stroke-linecap:round;stroke-linejoin:round;stroke-miterlimit:10;" points="
								107.758,321.31 59.4,320.57 59.108,326.982 106.752,339.931 							"/>
							
								<polyline style="fill:none;stroke:#FFFFFF;stroke-width:0.5;stroke-linecap:round;stroke-linejoin:round;stroke-miterlimit:10;" points="
								113.287,321.001 76.803,278.204 73.163,282.439 102.596,333.162 							"/>
							
								<polyline style="fill:none;stroke:#FFFFFF;stroke-width:0.5;stroke-linecap:round;stroke-linejoin:round;stroke-miterlimit:10;" points="
								118.292,333.816 151.97,291.331 148.692,286.252 108.882,318.926 							"/>
							
								<polyline style="fill:none;stroke:#FFFFFF;stroke-width:0.5;stroke-linecap:round;stroke-linejoin:round;stroke-miterlimit:10;" points="
								108.791,339.245 144.286,383.393 148.031,379.309 119.783,327.526 							"/>
							
								<polyline style="fill:none;stroke:#FFFFFF;stroke-width:0.5;stroke-linecap:round;stroke-linejoin:round;stroke-miterlimit:10;" points="
								104.007,326.533 70.337,369.027 73.615,374.104 113.419,341.42 							"/>
							
								<polyline style="fill:none;stroke:#FFFFFF;stroke-width:0.5;stroke-linecap:round;stroke-linejoin:round;stroke-miterlimit:10;" points="
								115.276,322.362 93.212,266.066 89.27,267.955 103.754,327.666 							"/>
							
								<polyline style="fill:none;stroke:#FFFFFF;stroke-width:0.5;stroke-linecap:round;stroke-linejoin:round;stroke-miterlimit:10;" points="
								118.518,328.643 133.315,270.649 129.357,268.35 107.067,321.776 							"/>
							
								<polyline style="fill:none;stroke:#FFFFFF;stroke-width:0.5;stroke-linecap:round;stroke-linejoin:round;stroke-miterlimit:10;" points="
								112.772,320.805 158.778,304.961 160.435,310.101 117.443,335.821 							"/>
							
								<polyline style="fill:none;stroke:#FFFFFF;stroke-width:0.5;stroke-linecap:round;stroke-linejoin:round;stroke-miterlimit:10;" points="
								112.682,339.69 158.684,361.311 160.3,356.34 117.526,325.322 							"/>
							
								<polyline style="fill:none;stroke:#FFFFFF;stroke-width:0.5;stroke-linecap:round;stroke-linejoin:round;stroke-miterlimit:10;" points="
								107.024,337.984 129.088,394.281 133.03,392.392 118.546,332.681 							"/>
							
								<polyline style="fill:none;stroke:#FFFFFF;stroke-width:0.5;stroke-linecap:round;stroke-linejoin:round;stroke-miterlimit:10;" points="
								103.782,331.703 88.985,389.697 92.943,391.996 115.233,338.57 							"/>
							
								<polyline style="fill:none;stroke:#FFFFFF;stroke-width:0.5;stroke-linecap:round;stroke-linejoin:round;stroke-miterlimit:10;" points="
								104.857,324.526 61.865,350.246 63.522,355.386 109.528,339.542 							"/>
							
								<polyline style="fill:none;stroke:#FFFFFF;stroke-width:0.5;stroke-linecap:round;stroke-linejoin:round;stroke-miterlimit:10;" points="
								109.618,320.657 63.616,299.036 62,304.006 104.773,335.025 							"/>
						</g>
						<g>
							<path style="fill:#1A2E33;" d="M85.769,247.723c-41.984,4.555-74.314,45.847-72.204,92.227
								c2.103,46.383,37.856,80.291,79.845,75.74c41.981-4.547,74.312-45.839,72.196-92.224
								C163.504,277.083,127.758,243.172,85.769,247.723z M139.913,327.154c0.786,27.138-15.075,51.329-35.42,54.034
								c-20.352,2.708-37.489-17.103-38.263-44.239c-0.786-27.138,15.075-51.33,35.42-54.034
								C122.002,280.207,139.139,300.018,139.913,327.154z"/>
							
								<ellipse transform="matrix(0.1259 -0.992 0.992 0.1259 -241.5143 385.8156)" style="fill:none;stroke:#FFFFFF;stroke-width:0.5;stroke-linecap:round;stroke-linejoin:round;stroke-miterlimit:10;" cx="98.171" cy="329.953" rx="62.634" ry="50.335"/>
						</g>
					</g>
					<g>
						
							<ellipse transform="matrix(0.0524 -0.9986 0.9986 0.0524 -227.9422 423.2031)" style="fill:#1A2E33;" cx="109.018" cy="331.706" rx="24.402" ry="17.698"/>
						
							<ellipse transform="matrix(0.0524 -0.9986 0.9986 0.0524 -226.2185 425.0196)" style="fill:#AAB6AF;" cx="110.837" cy="331.706" rx="24.402" ry="17.698"/>
						<path style="fill:#1A2E33;" d="M117.857,333.162c-0.162,6.513-3.829,11.793-8.191,11.793s-7.767-5.28-7.606-11.793
							c0.162-6.513,3.829-11.793,8.191-11.793C114.614,321.369,118.019,326.649,117.857,333.162z"/>
						<path style="fill:#AAB6AF;" d="M107.934,322.88l1.733,4.825c0,0,2.647,0,3.472,1.854l0.649-5.698
							C113.789,323.861,110.861,321.506,107.934,322.88z"/>
						
							<path style="fill:none;stroke:#FFFFFF;stroke-width:0.5;stroke-linecap:round;stroke-linejoin:round;stroke-miterlimit:10;" d="
							M122.035,333.162c-0.162,6.513-3.829,11.793-8.191,11.793c-4.362,0-7.767-5.28-7.606-11.793
							c0.162-6.513,3.829-11.793,8.191-11.793C118.791,321.369,122.196,326.649,122.035,333.162z"/>
						<path style="fill:#FFFFFF;" d="M96.539,331.278c2.441-10.346,10.57-17.333,18.155-15.605
							c4.668,1.063,8.034,5.184,9.371,10.602c0.244-8.259-3.685-15.261-9.987-16.697c-7.586-1.728-15.715,5.258-18.156,15.604
							c-0.939,3.98-0.891,7.872-0.055,11.26C95.917,334.76,96.126,333.029,96.539,331.278z"/>
						<path style="fill:#1A2E33;" d="M96.15,338.543c0,0,4.363,2.564,5.684,3.744c0.817,0.73,4.347,7.457,8.557,7.38
							c5.845-0.107,11.648-4.712,14.582-14.332c0,0-1.113,18.504-14.178,18.504C99.363,353.839,96.15,338.543,96.15,338.543z"/>
						<path style="fill:#1A2E33;" d="M118.063,323.861c0.428,0,0.773,0.547,0.77,1.222c-0.003,0.675-0.352,1.222-0.78,1.222
							c-0.428,0-0.773-0.547-0.77-1.222C117.285,324.408,117.635,323.861,118.063,323.861z"/>
						<path style="fill:#1A2E33;" d="M119.748,332.198c0.428,0,0.773,0.547,0.77,1.222c-0.003,0.675-0.352,1.222-0.78,1.222
							s-0.773-0.547-0.77-1.222C118.971,332.745,119.32,332.198,119.748,332.198z"/>
						<path style="fill:#FFFFFF;" d="M103.961,332.198c0.428,0,0.773,0.547,0.77,1.222c-0.003,0.675-0.352,1.222-0.78,1.222
							s-0.773-0.547-0.77-1.222C103.184,332.745,103.533,332.198,103.961,332.198z"/>
						<path style="fill:#1A2E33;" d="M117.675,339.477c0.428,0,0.773,0.547,0.77,1.222c-0.003,0.675-0.352,1.222-0.78,1.222
							s-0.773-0.547-0.77-1.222C116.898,340.024,117.247,339.477,117.675,339.477z"/>
						<path style="fill:#FFFFFF;" d="M113.05,333.162c-0.063,2.549-1.138,4.616-2.401,4.616c-1.263,0-2.235-2.067-2.172-4.616
							c0.063-2.549,1.138-4.616,2.401-4.616C112.141,328.546,113.114,330.613,113.05,333.162z"/>
					</g>
				</g>
				<g>
					<path style="fill:#CFDED6;" d="M72.421,243.323c5.266,2.578,10.399,4.787,18.296,11.171c4.16,3.363,37.858,3.286,54.725,24.97
						c16.867,21.684,17.49,35.155,18.136,37.784c0.646,2.628,6.058,6.571,6.058,6.571s3.382-39.059-21.607-60.127
						C119.265,239.438,80.718,238.562,72.421,243.323z"/>
					<path style="fill:#1A2E33;" d="M75.657,243.125c0,0,8.2-1.229,17.568-0.859c0,0-6.469,2.492-7.528,3.635
						c-1.06,1.143,2.508,3.595,6.89,7.058C92.587,252.959,80.392,244.594,75.657,243.125z"/>
					<path style="fill:#FFFFFF;" d="M109.484,245.9c0,0,3.303,2.923,5.317,5.707c0,0,19.431,7.684,25.744,13.506
						c0,0-15.863-6.964-20.993-7.319c0,0,27.306,10.094,36.45,31.21c9.143,21.116,8.226,26.446,9.229,28.026
						c1.003,1.58,2.745,3.54,2.745,3.54s-0.283-30.101-12.434-45.141C143.39,260.388,125.009,248.948,109.484,245.9z"/>
				</g>
			</g>
			<g>
				<path style="fill:#1A2E33;" d="M210.92,172.967c0.002-0.917-7.179-1.678-16.04-1.701c-8.861-0.023-16.046,0.701-16.049,1.618
					l-2.517,5.167l37.145,0.097L210.92,172.967z"/>
				<path style="fill:#AAB6AF;" d="M213.412,175c0.003-1.048-8.245-1.92-18.422-1.946c-10.177-0.026-18.429,0.802-18.432,1.851
					l-2.891,5.91l42.662,0.111L213.412,175z"/>
				<path style="fill:#1A2E33;" d="M177.295,174.706c0,0,10.482-1.373,17.592-1.24c7.11,0.133,16.805,1.395,17.403,1.594
					c0.598,0.199,2.191,4.914,2.191,4.914l-2.988,0.398l-0.73-4.626c0,0-10.889-1.55-16.203-1.55
					c-7.836,0-15.605,0.863-16.136,0.863C177.892,175.06,177.295,174.706,177.295,174.706z"/>
			</g>
			<g>
				<path style="fill:#E74514;" d="M162.619,194.516c0,19.921-20.902,25.063-29.484,25.063c-8.582,0-15.539-11.221-15.539-25.063
					s6.957-25.063,15.539-25.063C141.717,169.454,162.619,174.595,162.619,194.516z"/>
				<path style="fill:#FFFFFF;" d="M130.556,171.213c8.461,0,27.656,4.584,31.991,21.34c-1.326-18.297-21.119-23.099-29.412-23.099
					c-2.532,0-4.92,0.983-7.032,2.716C127.524,171.548,129.016,171.213,130.556,171.213z"/>
				<ellipse style="fill:#1A2E33;" cx="129.549" cy="194.516" rx="10.558" ry="19.921"/>
				<ellipse style="fill:#FFFFFF;" cx="131.342" cy="194.516" rx="10.558" ry="19.921"/>
				
					<ellipse style="fill:none;stroke:#FFFFFF;stroke-width:0.5;stroke-linecap:round;stroke-linejoin:round;stroke-miterlimit:10;" cx="132.303" cy="194.516" rx="10.558" ry="19.921"/>
				<path style="fill:none;stroke:#1A2E33;stroke-width:0.5;stroke-linecap:round;stroke-linejoin:round;stroke-miterlimit:10;" d="
					M131.342,169.454c7.336,0,13.283,11.221,13.283,25.063s-5.947,25.063-13.283,25.063"/>
				<path style="fill:#1A2E33;" d="M123.508,199.781c0,0-2.409-21.125,6.108-22.387c6.828-1.011,8.33,7.87,8.33,7.87
					S127.382,173.835,123.508,199.781z"/>
				<path style="fill:#AAB6AF;" d="M125.989,201.634c0,0,0.924,5.074,1.638,5.608c0.714,0.534,5.17-1.335,5.17-1.335l-4.641,3.071
					c0,0,0.439,0.801,0.723,0.935c0.284,0.134,0.284,0.134,0.284,0.134l4.09-2.537c0,0-1.123,3.338-1.032,4.273
					c0,0,4.524-0.668,6.571-12.017c0,0-1.822,2.969-2.557,1.335c-1.913-4.257,0.288-9.48,2.475-8.412c0,0-0.448-9.747-6.028-8.546
					C127.101,185.344,125.194,196.026,125.989,201.634z"/>
				<path style="fill:#FFFFFF;" d="M130.557,187.544c0,0,1.516-1.926,2.445-2.324c0,0,3.254,1.063,4.449,5.445l-1.727,1.461
					C135.725,192.126,133.534,188.673,130.557,187.544z"/>
				<path style="fill:#F55C2F;" d="M146.283,196.11c0,0,8.965,1.394,14.543,0c0,0-10.558,3.158-12.949,3.671
					c0,0,9.562,2.106,12.949,1.31c0,0-3.785,11.554-20.718,15.738C140.108,216.828,146.283,206.071,146.283,196.11z"/>
				<path style="fill:#F55C2F;" d="M141.901,175.657c-0.201-0.435,4.117,0.266,4.781,0.531c0.664,0.266,6.773,4.781,7.703,6.508
					s-7.969,3.719-8.367,3.719C145.62,186.415,142.698,177.384,141.901,175.657z"/>
			</g>
			<path style="fill:#FFFFFF;" d="M120.784,208.461c0,0,5.526,7.869,9.785,7.869c4.259,0,6.882-2.789,6.882-2.789
				s-1.977,4.582-6.882,4.582C125.665,218.123,121.083,209.258,120.784,208.461z"/>
			<g>
				<path style="fill:#1A2E33;" d="M157.539,189.691c-4.383,4.383,1.195,27.093,5.578,38.249
					c4.383,11.156,9.334,27.096,61.443,21.317l-10.444-68.332L157.539,189.691z"/>
				<path style="fill:#E74514;" d="M157.539,189.691c6.773,0,14.742,13.702,17.531,24.183c2.789,10.481,9.164,28.808,21.117,31.996
					c11.953,3.188,90.842,7.969,98.412,7.172c7.57-0.797,11.554-6.375,13.148-8.766c1.594-2.39,2.391-24.703-8.367-32.273
					c-10.758-7.57-61.34-36.257-100.802-36.257C154.351,175.746,157.539,189.691,157.539,189.691z"/>
				<path style="fill:#FFFFFF;" d="M199.41,178.137c40.156,0,91.19,30.033,105.147,39.945c-1.317-2.435-3.013-4.555-5.177-6.078
					c-10.758-7.57-61.34-36.257-100.802-36.257c-37.339,0-40.881,9.94-41.079,13.036
					C160.723,184.175,170.467,178.137,199.41,178.137z"/>
				<path style="fill:#F55C2F;" d="M165.275,185.71c0,0,20.453-8.303,50.202-3.034c0,0-10.625,3.462-11.953,11.328
					c-1.328,7.866,10.359,35.299,24.968,41.51c14.609,6.211,55.249,8.799,64.546,9.317c9.297,0.518,12.484-3.882,12.484-3.882
					s1.594,6.729-12.75,8.023c-14.343,1.294-85.529-5.694-93.764-8.282c-8.234-2.588-22.046-36.088-25.234-41.465
					c-3.187-5.378-7.969-6.154-9.562-7.189C162.619,191.001,165.275,185.71,165.275,185.71z"/>
				<path style="fill:none;stroke:#1A2E33;stroke-width:0.5;stroke-linecap:round;stroke-linejoin:round;stroke-miterlimit:10;" d="
					M177.228,184.04c-1.888,0.561-3.124,6.549-3.554,8.513c-0.43,1.964,21.616,39.151,27.991,43.135
					c6.375,3.984,87.401,11.7,94.108,11.156c6.707-0.544,8.952-3.553,9.749-5.894c0.797-2.34-0.266-18.886-2.922-21.371
					C299.944,217.094,220.524,171.173,177.228,184.04z"/>
				<path style="fill:none;stroke:#FFFFFF;stroke-width:0.5;stroke-linecap:round;stroke-linejoin:round;stroke-miterlimit:10;" d="
					M297.104,225.663c-0.338,6.832-14.378,11.689-31.358,10.848s-30.471-7.061-30.133-13.893
					c0.338-6.832,14.378-11.689,31.358-10.848C283.952,212.611,297.442,218.831,297.104,225.663z"/>
				<path style="fill:#1A2E33;" d="M218.331,186.747c0,0,2.857,5.806,4.808,6.887c3.127,1.734,41.697,12.835,56.22,16.62
					C279.359,210.254,243.165,190.333,218.331,186.747z"/>
			</g>
			<g>
				<path style="fill:#1A2E33;" d="M134.48,266.417l-18.028,51.488l-6.685,2.087c-1.626,0.508-2.924,1.822-3.487,3.531l-3.211,9.744
					c-1.089,3.305,0.13,6.975,2.924,8.803l3.246,2.123l5.27,1.959l25.24-77.775L134.48,266.417z"/>
				<path style="fill:none;stroke:#FFFFFF;stroke-width:0.5;stroke-linecap:round;stroke-linejoin:round;stroke-miterlimit:10;" d="
					M112.882,331.125c-0.813,3.145-2.809,5.299-4.458,4.811c-1.649-0.488-2.327-3.434-1.514-6.579
					c0.813-3.145,2.809-5.299,4.458-4.811S113.695,327.98,112.882,331.125z"/>
				<path style="fill:#FFFFFF;" d="M116.453,320.232c0,0.314-0.238,0.569-0.531,0.569c-0.293,0-0.531-0.255-0.531-0.569
					c0-0.314,0.238-0.569,0.531-0.569C116.215,319.663,116.453,319.918,116.453,320.232z"/>
				<path style="fill:#FFFFFF;" d="M109.207,322.61c0,0.314-0.238,0.569-0.531,0.569c-0.293,0-0.531-0.255-0.531-0.569
					c0-0.314,0.238-0.569,0.531-0.569C108.969,322.041,109.207,322.296,109.207,322.61z"/>
				<path style="fill:#FFFFFF;" d="M104.763,336.723c0,0.314-0.238,0.569-0.531,0.569c-0.293,0-0.531-0.255-0.531-0.569
					c0-0.314,0.238-0.569,0.531-0.569C104.525,336.154,104.763,336.408,104.763,336.723z"/>
				<path style="fill:#FFFFFF;" d="M109.207,341.789c0,0.314-0.238,0.569-0.531,0.569c-0.293,0-0.531-0.255-0.531-0.569
					c0-0.314,0.238-0.569,0.531-0.569C108.969,341.22,109.207,341.474,109.207,341.789z"/>
				<polygon style="fill:#FFFFFF;" points="123.769,344.751 111.513,340.196 164.202,177.84 176.457,182.395 				"/>
				<polygon style="fill:#1A2E33;" points="177.328,182.72 163.33,177.517 164.834,172.884 178.831,178.086 				"/>
				<polygon style="fill:#1A2E33;" points="163.223,226.184 149.225,220.982 150.729,216.348 164.726,221.551 				"/>
				<polygon style="fill:#1A2E33;" points="148.478,271.62 134.48,266.417 135.984,261.784 149.981,266.987 				"/>
				<polygon style="fill:#1A2E33;" points="123.238,349.395 109.24,344.192 110.744,339.559 124.741,344.762 				"/>
				<polygon style="fill:#E74514;" points="149.981,266.987 135.984,261.784 149.225,220.981 163.223,226.184 				"/>
				<polygon style="fill:#FFFFFF;" points="138.055,262.554 135.984,261.784 149.225,220.981 151.296,221.751 				"/>
				<path style="fill:#1A2E33;" d="M164.681,178.99c7.064,2.478,9.703,3.583,11.506,4.239l-12.331,37.999l-2.454-0.912
					c0,0,7.81-26.241,9.236-30.634l-10.519,28.428c0,0-0.945-1.815-1.235-2.721c-0.291-0.907,10.439-31.452,10.463-32.242
					C169.37,182.356,166.211,180.184,164.681,178.99z"/>
				<polygon style="fill:#1A2E33;" points="117.641,342.474 115.913,341.831 139.986,267.65 141.715,268.292 				"/>
				<path style="fill:#1A2E33;" d="M119.846,343.293l23.838-73.455l3.922,1.458l-23.838,73.455l-1.961-0.729
					c0,0,22.044-65.753,22.349-67.237c0.305-1.483-0.077-3.023-0.077-3.023l-23.525,69.794L119.846,343.293z"/>
				<path style="fill:#F55C2F;" d="M156.224,223.583c0,0-9.044,30.373-10.672,34.957l-0.106,3.154l9.609-24.175
					c0,0-6.863,24.098-6.947,25.464c-0.084,1.366,1.874,4.004,1.874,4.004l13.242-40.803L156.224,223.583z"/>
				<path style="fill:#FFFFFF;" d="M165.249,173.505c0,0,12.483,4.74,12.896,4.951c0.179,0.092-1.02,3.688-1.02,3.688
					s-2.404-1.06-2.832-1.552c-0.428-0.492-0.273-2.963-0.273-2.963S165.947,174.43,165.249,173.505z"/>
				<polygon style="fill:#1A2E33;" points="153.245,217.284 165.25,181.923 155.448,218.103 				"/>
			</g>
			<g>
				
					<rect x="144.513" y="174.852" transform="matrix(0.9446 0.3281 -0.3281 0.9446 67.6969 -46.3919)" style="fill:#1A2E33;" width="53.648" height="5.164"/>
			</g>
			<path style="fill:none;stroke:#1A2E33;stroke-width:0.5;stroke-linecap:round;stroke-linejoin:round;stroke-miterlimit:10;" d="
				M168.321,186.415c0,0-13.799-9.139-17.025,0.669c-3.051,9.276-28.803,100.99-41.4,143.157"/>
			<g>
				
					<rect x="180.497" y="179.421" transform="matrix(0.9351 0.3543 -0.3543 0.9351 76.8493 -54.4023)" style="fill:#FFFFFF;" width="12.947" height="6.432"/>
				<path style="fill:#1A2E33;" d="M219.693,199.975l-31.21-11.827c-1.448-0.549-2.177-2.167-1.628-3.615l1.286-3.393
					c0.549-1.448,2.167-2.177,3.615-1.628l31.21,11.826c1.448,0.549,2.177,2.167,1.628,3.615l-1.286,3.393
					C222.759,199.795,221.141,200.524,219.693,199.975z"/>
				<path style="fill:#AAB6AF;" d="M221.013,191.392l-28.672-10.865c-1.18-0.447-2.473-0.046-3.208,0.902l30.842,11.687
					C220.331,192.393,220.691,191.798,221.013,191.392z"/>
				<path style="fill:#1A2E33;" d="M183.115,185.899l-3.746-1.924c-1.02-0.524-1.484-1.73-1.077-2.802l1.255-3.312
					c0.406-1.072,1.553-1.668,2.664-1.385l4.081,1.042c0.629,0.16,0.978,0.832,0.748,1.439l-2.411,6.361
					C184.398,185.924,183.692,186.196,183.115,185.899z"/>
				<path style="fill:#FFFFFF;" d="M222.95,196.22c-0.629,1.661-1.439,2.894-1.808,2.754c-0.369-0.14-0.158-1.6,0.471-3.261
					c0.629-1.661,1.439-2.894,1.808-2.754C223.791,193.099,223.58,194.559,222.95,196.22z"/>
				<path style="fill:none;stroke:#FFFFFF;stroke-width:0.5;stroke-linecap:round;stroke-linejoin:round;stroke-miterlimit:10;" d="
					M219.682,199.971c-0.536-0.203-0.229-2.321,0.684-4.73c0.913-2.41,2.087-4.199,2.623-3.996"/>
				<path style="fill:#AAB6AF;" d="M180.126,177.84c0.291-0.419,1.132-0.894,1.692-0.858c0.56,0.036,4.268,0.954,4.542,1.279
					c0.274,0.325-0.209,1.598-0.209,1.598L180.126,177.84z"/>
			</g>
			<g>
				<path style="fill:#AAB6AF;" d="M178.053,183.578c-1.732-0.058-2.668,2.454-2.668,2.454s-2.999,0.952-7.257-0.846l-1.129,1.548
					l8.949,3.857l7.427-1.106l0.889-4.214C184.264,185.27,179.784,183.637,178.053,183.578z"/>
				<path style="fill:#1A2E33;" d="M177.97,184.771c0.05,0.281-0.151,0.552-0.449,0.605c-0.298,0.053-0.58-0.131-0.63-0.412
					c-0.05-0.281,0.151-0.552,0.449-0.605S177.92,184.491,177.97,184.771z"/>
				<path style="fill:#FFFFFF;" d="M185.195,185.842c0,0-0.206,3.169,1.095,4.885c1.301,1.716,22.185,12.095,25.195,16.328
					c3.01,4.233,0.293,5.4-0.93,5.562c-1.224,0.163-4.062-1.767-1.521-4.232c0,0-20.919-13.605-33.085-17.795
					c0,0,1.767-2.85,2.592-3.258c0.825-0.408,4.393,0.689,5.724-2.063L185.195,185.842z"/>
			</g>
		</g>
	</g>
	<g>
		<circle style="fill:#CFDED6;" cx="211.647" cy="47.258" r="23.535"/>
		<path style="opacity:0.2;fill:#FFFFFF;" d="M-0.288,169.048l159.577,8.424l-53.915-7.966c0,0,8.099-4.177,5.616-6.627
			c-8.574-8.461-31.656-1.226-31.656-1.226s10.023-10.746-5.174-22.688c-15.197-11.942-41.942-0.191-41.942-0.191
			s0.525-6.535-5.139-10.671c-5.664-4.136-20.082,1.024-20.082,1.024s-2.717-7.82-7.284-8.78V169.048z"/>
		<path style="fill:#FFFFFF;" d="M280.844,81.189L-0.289,42.043V34.57l8.773,0.687c0,0,6.393-13.993,14.474-15.339
			c8.088-1.354,11.997,12.651,11.997,12.651S58.058,7.881,81.547,11.905c23.49,4.018,17.484,27.469,17.484,27.469
			s53.31-28.33,73.375-20.413c15.823,6.252-7.521,30.579-8.185,31.267c0.727-0.338,32.858-15.31,43.665-9.574
			c6.428,3.403-4.726,21.488-4.726,21.488L280.844,81.189z"/>
		<path style="opacity:0.2;fill:#FFFFFF;" d="M463.736,98.537c0,0,3.206-9.201-6.822-11.003
			c-10.018-1.793-26.971,8.942-26.971,8.942s6.236-16.491-9.322-18.396c-15.418-1.888-29.089,27.85-29.089,27.85
			s1.937-10.655-7.919-9.005c-9.855,1.642-19.158,17.501-19.158,17.501s-54.726,10.392-55.546,11.291L500,96.832v-2.935
			L463.736,98.537z"/>
		<path style="fill:#FFFFFF;" d="M487.645,162.654c0,0-3.729-14.643-18.612-11.022c-14.891,3.614-19.091,24.622-19.091,24.622
			l-59.462,12.948L500,174.205v-19.508C490.839,154.876,487.645,162.654,487.645,162.654z"/>
	</g>
	<path style="fill:none;stroke:#1A2E33;stroke-width:0.5;stroke-linecap:round;stroke-linejoin:round;stroke-miterlimit:10;" d="
		M337.594,290.36"/>
</g>
</svg>
