<?xml version="1.0" encoding="utf-8"?>
<!-- Generator: Adobe Illustrator 27.5.0, SVG Export Plug-In . SVG Version: 6.00 Build 0)  -->
<svg version="1.1" xmlns="http://www.w3.org/2000/svg" xmlns:xlink="http://www.w3.org/1999/xlink" x="0px" y="0px"
	 viewBox="0 0 500 500" style="enable-background:new 0 0 500 500;" xml:space="preserve">
<g id="BACKGROUND">
	<rect style="fill:#FFF9ED;" width="500" height="500"/>
</g>
<g id="OBJECTS">
	<g>
		<rect y="325.202" style="fill:#FAE5D0;" width="500" height="174.8"/>
		<g>
			<g>
				<defs>
					<rect id="SVGID_1_" width="500" height="500"/>
				</defs>
				<clipPath id="SVGID_00000003084614831230360180000009947781029494037420_">
					<use xlink:href="#SVGID_1_"  style="overflow:visible;"/>
				</clipPath>
				<g style="clip-path:url(#SVGID_00000003084614831230360180000009947781029494037420_);">
					<rect x="230" y="102.63" style="fill:#FAE5D0;" width="149.59" height="213.12"/>
					<rect x="379.59" y="-22.25" style="fill:#FAE5D0;" width="56" height="338"/>
					<rect x="435.59" y="146.75" style="fill:#FAE5D0;" width="64.69" height="169"/>
					<g>
						<rect x="72" y="66.68" style="fill:#FAE5D0;" width="158" height="249.07"/>
						<g>
							<rect x="72" y="53.84" style="fill:#FAE5D0;" width="17" height="12.84"/>
							<rect x="107.25" y="53.84" style="fill:#FAE5D0;" width="17" height="12.84"/>
							<rect x="142.5" y="53.84" style="fill:#FAE5D0;" width="17" height="12.84"/>
							<rect x="177.75" y="53.84" style="fill:#FAE5D0;" width="17" height="12.84"/>
							<rect x="213" y="53.84" style="fill:#FAE5D0;" width="17" height="12.84"/>
						</g>
					</g>
					<g>
						<rect y="110.62" style="fill:#FAE5D0;" width="72" height="205.14"/>
						<rect x="5.75" y="97.78" style="fill:#FAE5D0;" width="17" height="12.84"/>
						<rect x="41" y="97.78" style="fill:#FAE5D0;" width="17" height="12.84"/>
					</g>
					<g>
						<g>
							<rect x="255.72" y="93.93" style="fill:#FAE5D0;" width="83" height="16.69"/>
							<rect x="259.31" y="86.226" style="fill:#FAE5D0;" width="75.82" height="15.41"/>
							<rect x="263.7" y="78.521" style="fill:#FAE5D0;" width="67.04" height="12.84"/>
						</g>
						<ellipse style="fill:#FAE5D0;" cx="297.22" cy="74.8" rx="27.53" ry="35.82"/>
						<ellipse style="fill:#FAE5D0;" cx="297.22" cy="44.17" rx="2.14" ry="14.76"/>
					</g>
					<g>
						<g>
							<rect x="448.3" y="134.53" style="fill:#FAE5D0;" width="83" height="16.69"/>
							<rect x="451.883" y="126.83" style="fill:#FAE5D0;" width="75.82" height="15.41"/>
							<rect x="456.273" y="119.125" style="fill:#FAE5D0;" width="67.04" height="12.84"/>
						</g>
						<ellipse style="fill:#FAE5D0;" cx="489.8" cy="115.4" rx="27.53" ry="35.82"/>
						<ellipse style="fill:#FAE5D0;" cx="489.8" cy="84.78" rx="2.14" ry="14.76"/>
					</g>
				</g>
			</g>
		</g>
		<g>
			<rect y="306.3" style="fill:#F5D2B3;" width="500" height="18.9"/>
			<g>
				<rect y="306.3" style="fill:#E6B99A;" width="30" height="18.9"/>
				<rect x="86.43" y="306.3" style="fill:#E6B99A;" width="72" height="18.9"/>
				<rect x="214.86" y="306.3" style="fill:#E6B99A;" width="72" height="18.9"/>
				<rect x="343.29" y="306.3" style="fill:#E6B99A;" width="72" height="18.9"/>
				<rect x="471.72" y="306.3" style="fill:#E6B99A;" width="28.56" height="18.9"/>
			</g>
		</g>
	</g>
	<g>
		<ellipse style="fill:#F5D2B3;" cx="260.51" cy="425.78" rx="211.21" ry="15.8"/>
		<g>
			<g>
				<g>
					<path style="fill:#12172E;" d="M142.76,356.18c-1.64-0.07-3.26-0.01-4.85,0.15c-16.31,1.7-29.31,15.15-29.98,32.02
						c-0.68,17.16,11.66,31.81,28.2,34.44c1.3,0.2,2.62,0.33,3.96,0.39c25.15,1.92,36.59-16.16,37.22-32.07
						C177.9,376.54,168.35,357.2,142.76,356.18z"/>
				</g>
				<path style="fill:#12172E;" d="M59.51,358.56c0,0,2.04,14.43,11.45,16.8c9.41,2.37,81.7,4.84,81.7,4.84l-1.27-29.52
					L59.51,358.56z"/>
			</g>
			<path style="fill:#415D82;" d="M366.72,365.55l-219.39-9.41l-3.6,23.69c0,0,176.62,8.01,206.84,5.7
				C380.78,383.23,366.72,365.55,366.72,365.55z"/>
			<g>
				<g>
					<path style="fill:#3B1C21;" d="M209.78,280.24c0.12,0.01,0.25,0.02,0.37,0.03l-0.02,0.02c0,0-37.77-1.18-69.14-3.66
						c-6.51-0.52-11.81-2.29-17.54-7.13c1.02-26.25,3.55-52.45,7.56-78.42c0.44-2.81,1.06-5.92,3.34-7.63
						c1.64-1.23,3.8-1.46,5.84-1.66c23.4-2.19,46.8-4.38,74.94,1.06C210.83,210.94,208.37,249.24,209.78,280.24z"/>
					<g>
						<path style="fill:#E0771B;" d="M221.06,288.99c-0.09-4.67-3.8-8.47-8.47-8.61c-0.74-0.02-1.52-0.03-2.44-0.11l-0.02,0.02
							c0,0-37.77-1.18-69.14-3.66c-6.51-0.52-11.81-2.29-17.54-7.13c-1.09,27.82-0.5,55.72,1.78,83.48
							c30.64,3.23,58.46,4.83,92.67,6.19C219.98,331.1,221.49,310.19,221.06,288.99z"/>
					</g>
				</g>
				<g>
					<path style="fill:#A12848;" d="M206.46,362c0,0-43.96,16.8-53.16,16.44c-6.91-0.27-8.25-36.83-8.48-55.03
						c-0.09-6.05-0.04-10.07-0.04-10.07s58.11,0.31,61.75,5.11c0.21,0.28,0.39,0.68,0.56,1.19C209.74,327.96,206.46,362,206.46,362z
						"/>
					<path style="fill:#DE5D66;" d="M207.08,319.64c-1.42-1.13-3.48-0.97-5.34-1.04c-5.27-0.21-42.3,3.37-56.92,4.81
						c-0.09-6.05-0.04-10.07-0.04-10.07s58.11,0.31,61.75,5.11C206.74,318.73,206.92,319.13,207.08,319.64z"/>
				</g>
			</g>
			<g>
				<g>
					<path style="fill:#212D4A;" d="M460.74,399.38c-0.63,15.92-12.07,33.99-37.22,32.07c-1.34-0.05-2.67-0.18-3.96-0.39
						c-16.55-2.63-28.89-17.28-28.2-34.44c0.67-16.86,13.68-30.31,29.98-32.02c1.59-0.17,3.21-0.22,4.85-0.15
						C451.77,365.48,461.32,384.82,460.74,399.38z"/>
					<path style="fill:#2B3B59;" d="M452.43,399.07c-0.57,14.43-12.14,30.54-32.88,32c-16.55-2.63-28.89-17.28-28.2-34.44
						c0.67-16.86,13.68-30.31,29.98-32.02C442.78,368.1,452.97,385.66,452.43,399.07z"/>
					<circle style="fill:#82A1B8;" cx="421.58" cy="397.83" r="24.43"/>
					<circle style="fill:#AECAD6;" cx="419.66" cy="397.76" r="13.41"/>
				</g>
				<path style="fill:#131C3B;" d="M402.52,360.55l12.21,39.04c0.74,2.38,3.4,3.57,5.67,2.54l0,0c1.87-0.85,2.84-2.93,2.28-4.91
					L412.19,360"/>
				<g>
					<path style="fill:#FDBF4C;" d="M460.71,372.26c-13.09-10.15-31.9-9.93-46.32-5.51c-1.84,0.57-3.53,1.2-5.09,1.9
						c-10.63,4.76-15.09,12.51-20.45,22.35c-6.23-8.84-6.05-25.48,6.25-36.91c9.6-8.93,23.41-13.53,36.28-11.07
						c0.07,0.01,0.13,0.03,0.2,0.04c0.72,0.13,1.43,0.3,2.13,0.47c10.56,2.73,19.69,10.39,24.28,20.13c0,0.01,0.01,0.01,0.01,0.01
						C459.29,366.39,460.22,369.27,460.71,372.26z"/>
					<path style="fill:#F7AA45;" d="M431.38,343.02c-5.44,0.96-10.6,3.37-14.47,7.04c-5.16,4.88-7.84,11.81-7.61,18.6
						c-10.63,4.75-15.08,12.51-20.45,22.34c-6.23-8.84-6.06-25.48,6.24-36.91C404.7,345.16,418.51,340.57,431.38,343.02z"/>
					<path style="fill:#FFD363;" d="M457.99,363.66c-2.52-2.07-5.45-3.72-8.49-4.83c-7.7-2.84-16.07-3.03-24.22-4.07
						c-1.83-0.23-4.06-0.86-4.44-2.68c-0.29-1.4,0.75-2.7,1.79-3.69c2.56-2.4,5.64-4.2,8.96-5.34c0.72,0.13,1.43,0.3,2.13,0.47
						C444.27,346.26,453.41,353.92,457.99,363.66z"/>
				</g>
			</g>
			<g>
				<g>
					
						<rect x="245.165" y="233.549" transform="matrix(0.0397 -0.9992 0.9992 0.0397 56.457 531.1317)" style="fill:#131C3B;" width="118.779" height="5.29"/>
					<path style="fill:#CC6A14;" d="M298.95,276.54l-3.8,94.44l42.22,0.32c0,0,1.82-65.75,0.91-68.28c-0.4-1.11-31.1-2.18-31.1-2.18
						l0.18-24.13L298.95,276.54z"/>
				</g>
				<polygon style="fill:#E0771B;" points="243.58,302.8 240.04,289.95 299.77,284.86 302.39,316.06 245.1,319.33 				"/>
				<g>
					<path style="fill:#A12848;" d="M323.85,369.43l-48.61,11.78l-29.05-1.26l-1.07-50.79l-1.39-6.31c0,0,6.17-0.81,13.97-1.76
						c11.7-1.43,27.11-3.2,30.93-3.05c6.36,0.25,36.14,0.43,36.73,2.7c0.06,0.22,0.09,0.81,0.12,1.71
						C325.75,330.79,323.85,369.43,323.85,369.43z"/>
					<path style="fill:#DE5D66;" d="M325.54,327.01l-52.26,4.2l-9.42,0.64l-6.15-10.76c11.7-1.43,27.11-3.2,30.93-3.05
						c6.36,0.25,36.14,0.43,36.73,2.7C325.43,320.96,325.51,326.1,325.54,327.01z"/>
				</g>
				<g>
					<path style="fill:#383C80;" d="M314.43,328.16c-6.79,0.8-13.01,5.36-15.81,11.59c-0.1-1.88-1.37-3.51-2.85-4.66
						c-1.48-1.15-3.19-2.39-4.73-3.47c-3.99-2.81-6.56-7.12-6.69-12c4.53,2.83,10.07,3.41,15.37,4.07S310.58,325.26,314.43,328.16z"
						/>
					<g>
						<path style="fill:#E1915A;" d="M328.72,272.02c0,0,15.34,7.95,26.45,11.19l-1,14.57c0,0-15.61-2.71-31.52-9.55L328.72,272.02z
							"/>
						<path style="fill:#707DC4;" d="M304.47,272.74c1.85-4.73,3.71-9.45,6.63-15.02c0.42,0.15,0.83,0.29,1.25,0.44
							c2.91,1.01,5.57,2.59,7.9,4.61c3.82,3.32,7.92,6.41,12.23,9.56c-2.84,5.6-5.33,12.17-8.36,18.3
							c-3.64-1.29-10.48-3.52-17.15-5.89C306.92,280.37,306.01,278.08,304.47,272.74z"/>
					</g>
					<g>
						<g>
							<path style="fill:#E1915A;" d="M330.03,360.34c0,0-2.68,7.99-1.93,9.27c0.75,1.28,18.93,2.93,19.88,1.09
								c0.95-1.84-4.76-6-5.24-6.51c-0.49-0.51-1.28-2.42-1.28-2.42L330.03,360.34z"/>
							<path style="fill:#66253F;" d="M327.68,368.66c-0.02,1.02-0.05,2.04-0.07,3.05c6.53,2.01,13.55,2.43,20.27,1.21
								c0.06-0.92,0.13-1.84,0.19-2.71C341.31,370.89,334.42,370.24,327.68,368.66z"/>
							<path style="fill:#66253F;" d="M333.09,370.98c0.35-2.1,1.49-4.05,3.15-5.39s3.8-2.04,6.36-2.16
								c0.9,0.77,1.79,1.55,2.94,2.64c-2.29,0.2-4.44,1.63-5.51,3.66c-0.33,0.62-0.63,1.36-1.3,1.59c-0.34,0.11-0.7,0.06-1.05,0.01
								C336.1,371.12,334.53,370.9,333.09,370.98z"/>
						</g>
						<g>
							<path style="fill:#E1915A;" d="M315.66,362.62c0,0-2.68,7.99-1.93,9.27c0.75,1.28,18.93,2.93,19.88,1.09
								c0.95-1.84-4.76-6-5.24-6.51c-0.49-0.51-1.28-2.42-1.28-2.42L315.66,362.62z"/>
							<path style="fill:#66253F;" d="M313.31,370.93c-0.02,1.02-0.05,2.04-0.07,3.05c6.53,2.01,13.55,2.43,20.27,1.21
								c0.06-0.92,0.13-1.84,0.19-2.71C326.94,373.17,320.05,372.52,313.31,370.93z"/>
							<path style="fill:#66253F;" d="M318.72,373.26c0.35-2.1,1.49-4.05,3.15-5.39s3.8-2.04,6.36-2.16
								c0.9,0.77,1.79,1.55,2.94,2.64c-2.29,0.2-4.44,1.63-5.51,3.66c-0.33,0.62-0.63,1.36-1.3,1.59c-0.34,0.11-0.7,0.06-1.05,0.01
								C321.73,373.39,320.16,373.17,318.72,373.26z"/>
						</g>
						<path style="fill:#9D3E52;" d="M312.96,302.44c0,0,27.87,4.32,30.22,7.95c2.35,3.63-2.03,52.32-2.03,52.32l-14.14-2.19
							l-4.74-30.26l-27.84-21.92"/>
						<g>
							<path style="fill:#9D3E52;" d="M275.75,309.74c0,0,0.01,12.39,8.97,16.55c8.3,3.85,29.62,7.25,29.62,7.25l-0.74,30.28
								l16.33,2.49c0,0,8.04-40.7,4.17-46.39c-3.87-5.7-34.36-13.14-34.36-13.14L275.75,309.74z"/>
							<path style="fill:none;stroke:#66253F;stroke-linecap:round;stroke-miterlimit:10;" d="M331.03,360.38
								c1.56-12.26,2.87-24.08,4.15-37.64c0.23-2.44-0.21-5.28-2.56-6.23c-5.93-2.41-11.84-3.94-17.57-5.38"/>
							<path style="fill:none;stroke:#66253F;stroke-linecap:round;stroke-miterlimit:10;" d="M319.17,329.15
								c-1.64,0.03-3.23,0.97-4.04,2.39"/>
							<path style="fill:none;stroke:#66253F;stroke-linecap:round;stroke-miterlimit:10;" d="M315.95,333.38
								c1.51-0.77,3.34-0.92,4.95-0.39"/>
						</g>
					</g>
					<g>
						<g>
							<path style="fill:#E1915A;" d="M249.95,277.87l-1.89-3.89c0,0,10.86-7.58,19.89-9.91l4.44,15.52L249.95,277.87z"/>
							<g>
								<g>
									<path style="fill:#707DC4;" d="M338.66,308c-7.01-1.18-7.14,3.67-9.44,4.47c-4.84,1.69-15.86-0.85-18.31,13.01
										c-1.73-0.01-3.67-0.07-5.72-0.21c-7.65-0.54-16.87-2.28-22.44-7.08c1.09,6.55,8.97,12.11,14.83,17.67
										c1.8,1.7,3.4,3.4,4.56,5.14c-1.24,0.04-2.62-0.59-3.72-1.12c-0.71-1.38-1.56-2.57-2.5-3.64
										c-6.89-7.82-18.92-8.79-20.93-24.07c-1.4-10.73,0.96-30.62,0.96-30.62l-10.15-0.2c3.85-10.8-7.97-13.54-7.97-13.54
										c16.92-9.67,35.32-12.17,35.32-12.17c6.9,1.5,18.33-1.4,22,8.42c1.17,7.58-7.66,32.35-0.14,35.85
										c4.02,1.87,9.98,3.44,14.92,4.81C334.4,305.97,338.05,307.04,338.66,308z"/>
								</g>
								<g>
									<path style="fill:none;stroke:#444594;stroke-linecap:round;stroke-miterlimit:10;" d="M316.23,265.98
										c-0.55,6.72-1.79,13.38-3.69,19.85"/>
									<path style="fill:none;stroke:#444594;stroke-linecap:round;stroke-miterlimit:10;" d="M320.09,274.68
										c-1.2,3.6-3.6,6.79-6.73,8.94"/>
									<path style="fill:none;stroke:#444594;stroke-linecap:round;stroke-miterlimit:10;" d="M286.68,264.81
										c1.14,6.42-0.96,13.3-5.53,18.09"/>
									<path style="fill:none;stroke:#444594;stroke-linecap:round;stroke-miterlimit:10;" d="M299.34,301.35
										c5.25,2.75,11.35,3.84,17.22,3.09"/>
								</g>
								<path style="fill:#E3D2BB;" d="M302.14,340.99c-1.24,0.04-2.62-0.59-3.72-1.12c-0.71-1.38-1.56-2.57-2.5-3.64
									c0.56-0.06,1.12-0.2,1.66-0.38C299.38,337.56,300.98,339.26,302.14,340.99z"/>
								<path style="fill:#E3D2BB;" d="M338.66,308c-7.01-1.18-7.14,3.67-9.44,4.47c-4.84,1.69-15.86-0.85-18.31,13.01
									c-1.73-0.01-3.67-0.07-5.72-0.21c0.68-2.59,1.18-5.24,2.11-7.74c1.08-2.92,2.9-5.75,5.68-7.17c2.9-1.48,6.36-1.23,9.48-2.15
									c2.64-0.79,4.95-2.37,7.45-3.48C334.4,305.97,338.05,307.04,338.66,308z"/>
							</g>
						</g>
						<path style="fill:#D47248;" d="M291.08,257.93c0,0,5.13,11.41,9.75,11.59c4.62,0.18,8.34-9.96,8.34-9.96L291.08,257.93z"/>
					</g>
					<g>
						<path style="fill:#FDBF4C;" d="M288.05,289.04c1.2-8.78,1.1-17.73,0.2-26.49c3.59,2.43,6.91,5.27,9.95,9.17
							c0.47,10.9,0.93,21.81,1.4,32.71c-0.65-1.36-2.48-1.74-3.94-1.35c-1.46,0.39-2.7,1.32-4.05,1.99
							c-1.35,0.67-3.02,1.04-4.33,0.29C287.64,300.35,287.2,295.29,288.05,289.04z"/>
						<path style="fill:#FDBF4C;" d="M313.63,257.52c2.56-0.12,5.11,1.58,5.98,3.99c0.69,4.86-0.89,10.07-3.98,14.17
							c-3.1,4.09-7.81,9.71-12.7,8.14c-6.99-2.24-10.23-10.15-14.34-15.32c-2.7-3.39-4.28-7.34-8.01-9.55
							c-1.84,0-3.34,0.48-4.89,1.01c1.16-3.18,5.25-4.61,8.36-3.26c1.08-1.55,3.06-2.43,5.45-2.01c5,3.81,7.37,10.99,13.22,13.41
							c2.24,0.92,4.63-1.68,6.09-3.61c1.46-1.93,2.14-4.43,1.85-6.83C310.97,257.68,311.28,257.63,313.63,257.52z"/>
						<g>
							<path style="fill:none;stroke:#D17B26;stroke-linecap:round;stroke-linejoin:round;stroke-miterlimit:10;" d="M284.81,258.05
								c2.86,1.16,5.03,3.54,6.85,6.04c1.82,2.49,3.38,5.19,5.53,7.4c2.15,2.21,5.04,3.94,8.13,3.82"/>
							<path style="fill:none;stroke:#D17B26;stroke-linecap:round;stroke-linejoin:round;stroke-miterlimit:10;" d="M314.85,258.86
								c0.85,2.37,0.76,5.06-0.24,7.37s-2.91,4.21-5.22,5.21"/>
							<path style="fill:none;stroke:#D17B26;stroke-linecap:round;stroke-linejoin:round;stroke-miterlimit:10;" d="M289.56,269.62
								c2.24,3.92,5.1,7.48,8.43,10.53"/>
						</g>
					</g>
					<g>
						<path style="fill:#E1915A;" d="M285.88,278.72c-5.24-1.4-21.61-3.23-32.22-6.07c-2.73-0.73-5.71,0.49-6.89,3.09
							c-0.94,2.07-1.19,4.59-0.74,6.86c0.54,2.79,2.57,5.38,5.35,5.72c9.85,1.2,24.54,0.72,31.48,0.17
							C284.11,285.08,285.23,281.81,285.88,278.72z"/>
						<g>
							<path style="fill:#E1915A;" d="M276.65,281.75c1.57-1.01,3.21-1.93,4.96-2.81c1.13-0.57,2.43-0.71,3.65-0.38
								c0.79,0.21,1.58,0.44,2.39,0.7c0.45,0.14,0.87,0.37,1.24,0.66c2.56,2.03,4.94,4.38,6.45,7.28c1.62,3.1,2.13,6.94,0.69,10.13
								c-0.33,0.72-0.99,1.51-1.75,1.3c-0.51-0.14-0.79-0.67-0.98-1.16c-0.65-1.72-0.78-3.64-0.35-5.44c1.18,2.12,1.27,4.81,0.23,7
								c-0.26,0.56-0.62,1.11-1.15,1.42c-0.53,0.32-1.28,0.33-1.73-0.1c-0.44-0.43-0.46-1.13-0.42-1.75
								c0.12-2.12,0.45-4.24,0.98-6.3c0.86,2.59,0.44,5.57-1.12,7.81c-0.38,0.55-0.85,1.07-1.47,1.32c-0.62,0.25-1.42,0.14-1.82-0.4
								c-0.29-0.38-0.32-0.89-0.32-1.37c-0.01-2.38,0.45-4.76,1.35-6.96c0.46,2.47-0.1,5.12-1.52,7.19
								c-0.41,0.59-0.91,1.17-1.59,1.41c-0.68,0.24-1.55,0.05-1.89-0.59c-0.3-0.57-0.09-1.26,0.14-1.86
								c0.56-1.47,1.26-3.13,1.87-5.09C281.11,290.52,278.84,286.91,276.65,281.75z"/>
							<path style="fill:none;stroke:#B54D3E;stroke-linecap:round;stroke-miterlimit:10;" d="M286.45,299.51
								c0.87-1.78,1.34-3.77,1.35-5.75"/>
							<path style="fill:none;stroke:#B54D3E;stroke-linecap:round;stroke-miterlimit:10;" d="M290.04,299.02
								c0.81-2,1.23-4.16,1.23-6.32"/>
							<path style="fill:none;stroke:#B54D3E;stroke-linecap:round;stroke-miterlimit:10;" d="M293.55,297.61
								c0.84-2.08,1.1-4.4,0.74-6.62"/>
						</g>
						<path style="fill:none;stroke:#B54D3E;stroke-linecap:round;stroke-miterlimit:10;" d="M266.03,274.74
							c-2.13-0.46-4.28-0.83-6.45-1.1"/>
					</g>
					<g>
						<path style="fill:#D47248;" d="M316.38,245.6c0.63-1.56,1.3-3.18,2.59-4.34c1.29-1.16,3.38-1.72,4.96-0.86
							c1.58,0.86,2.12,2.77,2.01,4.44c-0.15,2.41-1.32,4.72-3.21,6.33c-1.89,1.61-4.48,2.49-7.09,2.42"/>
						<path style="fill:#E1915A;" d="M283.53,245.72c-7.28-8.77-4.15-35.89,17.62-36.27c18.19,1.1,25.34,19.69,17.83,35.51
							C324.4,268.84,288.06,270.12,283.53,245.72z"/>
						<g>
							<path style="fill:#FFFFFF;" d="M299.99,251.28c0,0-1.29,5.83,3.61,7.16c4.77,1.3,6.65-5.51,6.65-5.51
								S304.24,249.82,299.99,251.28z"/>
							<circle style="fill:#1C233D;" cx="296.81" cy="242.15" r="1.24"/>
							<circle style="fill:#1C233D;" cx="311.59" cy="242.31" r="1.24"/>
							<g>
								<path style="fill:#54231D;" d="M304.85,248.25c-1.35-1.48-3.68-1.97-5.51-1.15c-0.99,0.45-1.81,1.22-2.8,1.66
									c-0.99,0.45-2.34,0.45-2.98-0.42c-0.67,1.34-0.19,3.06,0.87,4.12c1.06,1.06,2.56,1.58,4.05,1.79
									c1.74,0.25,3.61,0.1,5.08-0.87C305.01,252.42,306.5,250.07,304.85,248.25z"/>
								<path style="fill:#54231D;" d="M305.34,248.27c1.46-1.37,3.83-1.67,5.59-0.71c0.95,0.52,1.71,1.36,2.66,1.88
									c0.95,0.52,2.29,0.64,3.01-0.18c0.57,1.39-0.06,3.06-1.19,4.04s-2.68,1.37-4.17,1.46c-1.75,0.11-3.61-0.18-4.99-1.27
									C304.85,252.42,303.55,249.95,305.34,248.27z"/>
							</g>
							<g>
								<path style="fill:#E1915A;" d="M309.03,243.49c0.26,1.37,0.45,2.93-0.43,4.01c-0.62,0.77-1.66,1.1-2.64,1.1
									c-0.99,0-1.95-0.3-2.89-0.6c-0.53-0.17-1.07-0.34-1.54-0.63c-0.47-0.3-0.87-0.74-1-1.28
									C303.53,245.26,306.49,244.26,309.03,243.49z"/>
								<path style="fill:#D47248;" d="M300.83,246.26c1.08,1.41,2.97,1.97,4.75,1.98c0.84,0.01,1.73-0.11,2.39-0.63
									c0.87-0.69,1.11-1.93,1-3.04c-0.11-1.11-0.5-2.17-0.74-3.34c0.68,1.18,1.38,2.39,1.58,3.74s-0.22,2.88-1.37,3.61
									c-0.85,0.54-1.92,0.57-2.93,0.52c-1.09-0.06-2.2-0.19-3.17-0.68C301.36,247.92,300.55,246.99,300.83,246.26z"/>
							</g>
							<path style="fill:#54231D;" d="M310.79,231.46c0.72-1.3,1.81-2.36,3.11-2.81c1.3-0.44,2.8-0.21,3.9,0.75
								c1.1,0.96,1.7,2.67,1.35,4.17C316.93,231.1,313.36,230.39,310.79,231.46z"/>
							<path style="fill:#54231D;" d="M300.2,231.38c-0.6-1.54-1.75-2.84-3.22-3.42c-1.46-0.57-3.22-0.37-4.51,0.66
								s-2.01,2.89-1.63,4.52C292.99,230.64,296.58,229.72,300.2,231.38z"/>
						</g>
						<path style="fill:#54231D;" d="M286.53,220.4c-1.58,3.69-0.44,8.56,0.44,11.89c-0.38,3.16-1.14,9.01-2.58,13.9
							c-1.95-0.57-1.35,0.08-2.83-0.83c-2.86-7.79-6.11-17.11-5.12-25.24c1.56-3.38,4.76-5.06,7.91-6.04
							c0.97-3.64,3.96-6.51,7.41-8.01c3.45-1.5,7.32-1.78,11.07-1.55c7.56,0.47,14.99,2.98,21.11,7.78
							c0.28,2.01,0.15,4.07-0.32,6.11c0.82,1.3,1.44,2.73,2.1,5.27c-0.88,6.34-2.64,12.55-5.17,17.53c0.66-4.26,1.6-9.19,1.01-13.34
							c-0.87-6.12-4.63-12.17-9.74-14.6C295.89,205.68,287.77,217.52,286.53,220.4z"/>
						<path style="fill:#E1915A;" d="M285.41,244.99c-0.7-1.35-1.44-2.75-2.72-3.73c-1.28-0.98-3.24-1.41-4.63-0.6
							c-1.39,0.81-1.73,2.5-1.51,3.97c0.32,2.11,1.58,4.11,3.45,5.46c1.87,1.35,4.32,2.05,6.71,1.9"/>
					</g>
				</g>
				<g>
					
						<rect x="185.786" y="246.949" transform="matrix(0.0397 -0.9992 0.9992 0.0397 -13.955 484.6681)" style="fill:#2B3B59;" width="118.779" height="5.29"/>
					<path style="fill:#FDBF4C;" d="M239.57,289.94l-3.2,92.47c8.38,0.66,32.05,1.89,41.66,1.25c0,0,1.78-64.71,0.86-67.23
						c-0.4-1.11-31.1-2.18-31.1-2.18l0.18-24.13L239.57,289.94z"/>
				</g>
			</g>
			<g>
				<g>
					<g>
						<path style="fill:#FDBF4C;" d="M427.22,311.95c-0.15,11.77-0.5,21.18-0.5,21.18s-19.1,9.68-30.81,26.7
							c-11.72,17-13.1,24.75-19.81,27.43c-1.14,0.45-4.74,0.8-10.08,1.03c-26.09,1.18-93.8,0.05-119.99-0.99
							c-31.55-1.25-105.53-5.61-111.93-6.72c-6.4-1.1-6.77-22.85-40.62-25.69c-27.05-2.27-37.35,17.36-39.23,23.15L44,374.57
							c0,0,0.25-3.89,1.48-8.53c-0.94-2.95-1.87-7.79-2.15-15.63c-0.2-5.57,1.09-21.39,3.31-41.19c1.01-9,2.21-18.84,3.54-28.9
							c44.33,4.85,96.01,5.51,110.44,5.58c0,0,0,0,0.01,0c2.53,0.02,3.91,0.02,3.91,0.02l0.15-0.17c1.03,0.09,7.11,0.91,9.43,7.51
							c1.94,5.52,0.25,52.1-0.67,73.82c-0.06,1.35-0.11,2.6-0.15,3.74c-0.2,4.56-0.34,7.34-0.34,7.34
							c40.22,4.61,119.46,6.44,168.28,5.94c1.36-6.23,2.54-12.85,3.53-19.71c3.93-26.74,5.37-57.48,5.67-85.26
							c0.01-0.98,0.02-1.93,0.02-2.88c0.34-43.6-2.09-79.19-2.09-79.19l-0.74-0.03l0.56-0.51c1.23-2.21,2.79-4.46,4.57-6.58
							c4.64-5.5,10.78-10.09,16.39-10.79c4.44,2.37,7.06,4.87,9.02,7.34c0.42,0.53,0.8,1.04,1.17,1.57
							c0.22,0.31,0.42,0.61,0.63,0.91c1.16,1.72,2.19,3.42,3.5,5.01c4.26,5.23,24.68,36.97,35.82,60.78
							c0.27,0.56,0.52,1.11,0.77,1.66c0.15,0.34,0.3,0.68,0.45,1.01c2.91,6.48,5.03,12.22,5.78,16.5c0.11,0.64,0.2,1.25,0.26,1.84
							c0,0.11,0.02,0.23,0.02,0.34c0.03,0.28,0.05,0.56,0.08,0.84c0.26,3.38,0.41,7.35,0.52,11.56
							C427.34,296.06,427.31,304.47,427.22,311.95z"/>
					</g>
					<path style="fill:#FFD363;" d="M173.45,367.08c-0.06,1.35-0.11,2.6-0.15,3.74c-1.56-0.5-3.11-1-4.66-1.49
						c2.33-19.99,3.03-40.17,2.08-60.27c-0.3-6.2-0.86-12.72-4.41-17.81c-1.52-2.18-3.47-3.93-5.67-5.34
						c2.53,0.02,3.91,0.02,3.91,0.02l0.15-0.17c1.03,0.09,7.11,0.91,9.43,7.51C176.06,298.78,174.37,345.36,173.45,367.08z"/>
					<path style="opacity:0.6;fill:#F7AA45;enable-background:new    ;" d="M426.72,333.13c0,0-19.1,9.68-30.82,26.69
						c-11.72,17.01-13.1,24.76-19.8,27.43c-1.14,0.45-4.74,0.8-10.08,1.04c-26.09,1.18-93.8,0.05-119.99-0.99
						c-31.56-1.25-105.53-5.61-111.93-6.72c-6.4-1.1-6.77-22.85-40.62-25.69c-27.05-2.27-37.35,17.35-39.24,23.14L44,374.57
						c0,0,0.24-3.89,1.47-8.53c-0.94-2.95-1.87-7.79-2.15-15.63c-0.2-5.57,1.1-21.39,3.31-41.19c1.88,1.95,3.98,3.7,6.22,5.16
						c10.04,6.55,22.29,8.6,34.17,10.24c11.88,1.64,24.1,3.11,34.69,8.76c12.82,6.84,21.96,19.13,34.39,26.65
						c5.5,3.33,11.31,5.59,17.35,7.05c-0.28,6.73-0.49,11.07-0.49,11.07c40.22,4.61,119.46,6.43,168.28,5.94
						c1.36-6.23,2.53-12.84,3.53-19.71c9.02-1.62,17.8-4.18,26.28-8.15c27.45-12.84,46.24-38.65,56.1-67.72
						C427.63,307.99,426.72,333.13,426.72,333.13z"/>
					<path style="fill:#FFD363;" d="M427.22,311.95c-8.81,15.28-21.26,28.48-36.18,37.88c5.39-12.3,10.79-24.61,16.19-36.92
						c-8.72-1.53-14.7-2.86-20.18-5.33c-1.85-0.82-3.96-2.51-3.27-4.42c0.49-1.34,2.1-1.82,3.49-2.13
						c5.76-1.26,11.5-2.52,17.26-3.78c1.34-8.76,1.79-16.16,1.25-23.47c-5-32.61-21.88-64.17-47.03-86.69
						c-2.06,0.42-4.08,1.44-5.98,2.83c4.64-5.5,10.78-10.09,16.39-10.79c4.44,2.37,7.06,4.87,9.02,7.34
						c0.42,0.53,0.8,1.04,1.17,1.57c0.22,0.31,0.42,0.61,0.63,0.91c1.16,1.72,2.19,3.42,3.5,5.01c4.26,5.23,24.68,36.97,35.82,60.78
						c0.27,0.56,0.52,1.11,0.77,1.66c0.15,0.34,0.3,0.68,0.45,1.01c2.91,6.48,5.03,12.22,5.78,16.5c0.11,0.64,0.2,1.25,0.26,1.84
						c0,0.11,0.02,0.23,0.02,0.34c0.03,0.28,0.05,0.56,0.08,0.84c0.26,3.38,0.41,7.35,0.52,11.56
						C427.34,296.06,427.31,304.47,427.22,311.95z"/>
				</g>
				<g>
					<path style="fill:#2B3B59;" d="M426.72,333.13c0,0-19.1,9.68-30.82,26.69c-11.72,17.01-13.1,24.76-19.8,27.43
						c-1.14,0.45-4.74,0.8-10.08,1.04c23.55-14.61,55.83-67.87,56.38-110.78c1.19-0.21,2.62-0.69,4.17-1.41
						C428.12,294.75,426.72,333.13,426.72,333.13z"/>
					<path style="fill:#131C3B;" d="M426.64,276.95c-4.62,2.07-10.12,2.45-15.18,2.61c-18.9,0.58-38.04,0.48-56.96-0.27
						c-1.35-0.05-2.7-0.11-4.05-0.17c0.01-0.97,0.02-1.93,0.02-2.88c20.2,0.91,40.69,1.06,60.9,0.45
						c5.08-0.15,10.61-0.55,14.92-2.77c0.12,0.65,0.2,1.26,0.25,1.84c0.01,0.12,0.02,0.23,0.02,0.35
						C426.59,276.38,426.61,276.66,426.64,276.95z"/>
					<g>
						<path style="fill:#2B3B59;" d="M407.61,284.12c-0.28-0.18-0.59-0.43-0.93-0.71c-0.92-0.75-2.1-1.11-3.29-1
							c-7.11,0.62-14.69,0.72-22.09,0.76c-2.11,0.01-3.9,1.62-4.07,3.72c-0.17,2.16-0.11,4.39,0.15,6.52
							c0.24,1.91,1.78,3.39,3.69,3.58c8.58,0.85,16.93,0.86,25.37-0.8c1.11-0.22,2.04-1.01,2.43-2.08
							C410.1,290.78,411,286.25,407.61,284.12z"/>
						<g>
							<path style="fill:#E85C20;" d="M378.4,291.76c0-1.17,0.03-2.37,0.11-3.64c0.14-2.3,2.04-4.11,4.35-4.07
								c7.41,0.12,14.86-0.18,22.46-0.7c2.38-0.16,4.46,1.65,4.59,4.04c0.06,1.16,0.1,2.34,0.11,3.52c0.03,2.12-1.46,3.97-3.55,4.33
								c-6.88,1.16-17.32,1.4-24.11,0.84C380.12,295.88,378.39,294,378.4,291.76z"/>
							<path style="fill:#CC2E0E;" d="M379.96,291.43c-0.05-0.8-0.07-1.62-0.06-2.43c0.02-2.3,1.95-3.87,4.25-3.83
								c3.53,0.06,7.07-0.11,10.57,0.07c-1.98,6.04,1.67,8.35,4.92,9.58c-4.96,0.58-10.2,0.8-15.1,0.68
								C382.13,295.44,380.12,293.83,379.96,291.43z"/>
							<path style="fill:#FFAD7A;" d="M404.95,284.72c-4.82,0.25-9.63,0.5-14.45,0.74c-0.3,0.02-0.61,0.04-0.86,0.2
								c-0.6,0.4-0.4,1.4,0.18,1.82c0.58,0.42,1.36,0.42,2.07,0.4c3.94-0.08,7.87-0.16,11.81-0.25c0.61-0.01,1.25-0.03,1.81-0.28
								s1.04-0.79,1.01-1.41C406.5,285.35,405.8,284.81,404.95,284.72z"/>
						</g>
					</g>
					<g>
						<path style="fill:#3C5B7D;" d="M420.06,256.41c-1.09,0.29-2.2,0.56-3.31,0.82c-2.31,0.54-4.64,1.02-6.98,1.42
							c-9.79,1.72-19.78,2.26-29.7,1.61c-0.72-0.05-1.42-0.09-2.14-0.16h-0.01l-0.72-0.06c-1.49-0.48-2.76-1.12-3.87-1.88
							c-1.74-1.17-3.08-2.62-4.23-4.22c-1.02-3.68-1.97-7.39-2.82-11.11c-3.01-12.94-5-26.03-5.9-39.22c0.71-3.36,2.22-6.1,4.3-8.29
							c1.29-2.02,3.19-3.44,5.38-4.49c1.9-0.91,3.99-1.56,6.08-2.06c0.1-0.02,0.18-0.04,0.28-0.07c0.96-0.22,1.93-0.43,2.91-0.64
							c0.22,0.31,0.42,0.61,0.62,0.92c0.62,0.92,1.2,1.83,1.81,2.72c0.53,0.78,1.08,1.55,1.69,2.29c0.43,0.53,1.02,1.32,1.75,2.35
							v0.01c5.08,7.14,16.8,25.54,26.48,43.44c2.17,4.02,4.24,8,6.11,11.83c0.51,1.06,1.01,2.1,1.5,3.14
							C419.56,255.31,419.82,255.86,420.06,256.41z"/>
						<path style="fill:#6C9DBA;" d="M373.34,258.16c-1.74-1.17-3.08-2.62-4.23-4.22c-1.02-3.68-1.97-7.39-2.82-11.11
							c2.69-16.97,3.95-34.27,3.78-52.01c1.9-0.91,3.99-1.56,6.08-2.06c0.1-0.02,0.18-0.04,0.28-0.07
							C377.17,211.88,376.13,235.13,373.34,258.16z"/>
						<path style="fill:#6C9DBA;" d="M380.08,260.26c-0.72-0.05-1.42-0.09-2.14-0.16c3.94-22.55,5.23-45.56,3.84-68.41
							c0.53,0.78,1.08,1.55,1.69,2.29c0.43,0.53,1.02,1.32,1.75,2.35v0.01C384.99,217.74,383.27,239.11,380.08,260.26z"/>
						<path style="fill:#6C9DBA;" d="M417.8,251.61c-0.32,1.88-0.67,3.75-1.05,5.61c-2.31,0.54-4.64,1.02-6.98,1.42
							c1.3-6.2,1.94-12.53,1.92-18.87C413.86,243.8,415.93,247.78,417.8,251.61z"/>
						<path style="fill:#131C3B;" d="M420.51,257.42c-13.94,3.12-28.91,4.69-40.92,4.24h-0.04c-6.07-0.24-11.32-4.53-12.78-10.45
							c-3.19-12.96-5.82-27.61-7.83-43.54c-0.88-6.99,2.67-13.83,8.85-17.05c3.35-1.75,6.83-3.13,10.37-4.14
							c0.67,0.83,1.25,1.66,1.8,2.49c-3.71,0.97-7.35,2.38-10.85,4.2c-5.11,2.66-8.05,8.35-7.32,14.15
							c1.99,15.82,4.59,30.35,7.76,43.21c1.16,4.68,5.31,8.07,10.1,8.26h0.03c11.61,0.43,26.07-1.06,39.6-4.03
							C419.72,255.65,420.13,256.55,420.51,257.42z"/>
					</g>
				</g>
				<g>
					<path style="fill:#2B3B59;" d="M369.15,179.15c-3.68,0.46-7.57,2.58-11.13,5.53c-3.97,3.29-7.51,7.63-9.84,11.84l-0.55,0.51
						l-179.18-6.41c-0.01,0.05-0.01,0.1-0.02,0.14c-0.04,0.31-0.09,0.64-0.13,0.95c-7.53,50.39-3.77,94.03-3.77,94.03
						s0.06,0,0.15,0.02l-0.15,0.18c0,0-62.25,0.1-114.36-5.61c5.03-38.09,11.99-79.47,17.84-92.07c0.12-0.24,0.22-0.47,0.33-0.7
						c0.06-0.11,0.11-0.23,0.18-0.34c1.62-3.15,3.49-6.04,5.57-8.71c9.39-12.01,23.01-19.16,36.73-21.95
						c16.88-3.43,204.46,9.35,235.48,15.4C357.16,174.07,364.26,176.53,369.15,179.15z"/>
					<path style="fill:#3C5B7D;" d="M369.15,179.15c-3.68,0.46-7.57,2.58-11.13,5.53c-2.98-2.66-8.12-3.46-12.42-3.9
						c-65.83-6.69-129.59-8.71-195.06-12.61c-16.92-1.01-35.39-1.1-52.05,1.99c-8.45,1.56-16.83,4.29-24.4,8.35
						c9.39-12.01,23.01-19.16,36.73-21.95c16.88-3.43,204.46,9.35,235.48,15.4C357.16,174.07,364.26,176.53,369.15,179.15z"/>
					<path style="fill:#131C3B;" d="M68.52,187.21c5.96-0.7,12.2-0.45,18.33-0.22l1.24,0.06c7.48,0.3,15.59,0.55,23.44,0.8
						c20.97,0.67,42.58,1.36,56.9,2.9c-0.04,0.31-0.09,0.64-0.13,0.95c-14.28-1.55-35.86-2.23-56.8-2.9
						c-7.84-0.24-15.96-0.5-23.45-0.8l-1.24-0.06c-6.3-0.25-12.72-0.51-18.8,0.3"/>
				</g>
			</g>
			<g>
				<g>
					<path style="fill:#212D4A;" d="M129.51,398.43c-0.63,15.92-12.07,33.99-37.22,32.07c-1.34-0.05-2.67-0.18-3.96-0.39
						c-16.55-2.63-28.89-17.28-28.2-34.44c0.67-16.86,13.68-30.31,29.98-32.02c1.59-0.17,3.21-0.22,4.85-0.15
						C120.54,364.52,130.09,383.86,129.51,398.43z"/>
					<path style="fill:#2B3B59;" d="M121.2,398.12c-0.57,14.43-12.14,30.54-32.88,32c-16.55-2.63-28.89-17.28-28.2-34.44
						c0.67-16.86,13.68-30.31,29.98-32.02C111.55,367.14,121.73,384.71,121.2,398.12z"/>
					<circle style="fill:#82A1B8;" cx="90.34" cy="396.87" r="24.43"/>
					<circle style="fill:#AECAD6;" cx="88.43" cy="396.8" r="13.41"/>
				</g>
				<g>
					<path style="fill:#FDBF4C;" d="M148.73,385.07c-2.36,0.08-4.71,0.14-7.08,0.21c-0.97,0.03-1.94,0.06-2.91,0.09
						c-5.23,0.14-9.89-2.88-11.6-7.39c-1.49-3.98-3.4-7.87-5.62-11.73c-15.85-3.88-32.4-5.37-49.88-4.89
						c-6.24,4.47-10.07,10.05-13.41,16.37c-1.21,2.28-3.96,3.53-6.7,3.06c-4.65-0.81-8.54-1.65-11.81-2.49
						c2.7-8.56,6.74-16.77,12.01-24.42c2.85-4.15,6.57-7.64,10.86-10.35c6.48-4.1,14.29-6.4,22.47-6.43
						c10.45-0.03,21.02,1.05,31.54,3.28c10.62,2.24,19.53,8.8,24.12,17.81C144.97,366.51,147.66,375.62,148.73,385.07z"/>
					<path style="fill:#FFD363;" d="M148.73,385.07c-2.36,0.08-4.71,0.14-7.08,0.21c-1.59-10.93-4.35-21.92-12.25-29.32
						c-7.89-7.38-19.21-9.51-29.87-11.26c-12.17-1.99-25.12-3.75-36.94-1.19c6.48-4.1,14.29-6.4,22.47-6.43
						c10.45-0.03,21.02,1.05,31.54,3.28c10.62,2.24,19.53,8.8,24.12,17.81C144.97,366.51,147.66,375.62,148.73,385.07z"/>
				</g>
			</g>
		</g>
	</g>
</g>
</svg>
