<?xml version="1.0" encoding="utf-8"?>
<!-- Generator: Adobe Illustrator 27.5.0, SVG Export Plug-In . SVG Version: 6.00 Build 0)  -->
<svg version="1.1" xmlns="http://www.w3.org/2000/svg" xmlns:xlink="http://www.w3.org/1999/xlink" x="0px" y="0px"
	 viewBox="0 0 750 500" style="enable-background:new 0 0 750 500;" xml:space="preserve">
<g id="Floor">
	
		<line id="Floor_00000119093881871383839210000000599062042522413440_" style="fill:none;stroke:#303030;stroke-width:1.5;stroke-linecap:round;stroke-linejoin:round;stroke-miterlimit:10;" x1="67.43" y1="468.405" x2="723.341" y2="468.405"/>
</g>
<g id="City">
	<g id="City_00000034807806928685240650000010607351793141653653_">
		<g>
			<g>
				
					<line style="fill:none;stroke:#FF95FB;stroke-width:1.5;stroke-linecap:round;stroke-linejoin:round;stroke-miterlimit:10;" x1="607.14" y1="23.239" x2="607.14" y2="42.856"/>
				
					<line style="fill:none;stroke:#FF95FB;stroke-width:1.5;stroke-linecap:round;stroke-linejoin:round;stroke-miterlimit:10;" x1="603.318" y1="42.856" x2="610.963" y2="42.856"/>
			</g>
			<g>
				
					<line style="fill:none;stroke:#FF95FB;stroke-width:1.5;stroke-linecap:round;stroke-linejoin:round;stroke-miterlimit:10;" x1="623.143" y1="66.207" x2="623.143" y2="85.824"/>
				
					<line style="fill:none;stroke:#FF95FB;stroke-width:1.5;stroke-linecap:round;stroke-linejoin:round;stroke-miterlimit:10;" x1="621.264" y1="69.489" x2="625.022" y2="69.489"/>
			</g>
			<g>
				
					<line style="fill:none;stroke:#FF95FB;stroke-width:1.5;stroke-linecap:round;stroke-linejoin:round;stroke-miterlimit:10;" x1="631.182" y1="112.456" x2="631.182" y2="132.073"/>
				
					<line style="fill:none;stroke:#FF95FB;stroke-width:1.5;stroke-linecap:round;stroke-linejoin:round;stroke-miterlimit:10;" x1="629.303" y1="115.738" x2="633.061" y2="115.738"/>
			</g>
			<g>
				
					<line style="fill:none;stroke:#FF95FB;stroke-width:1.5;stroke-linecap:round;stroke-linejoin:round;stroke-miterlimit:10;" x1="583.098" y1="112.456" x2="583.098" y2="132.073"/>
				
					<line style="fill:none;stroke:#FF95FB;stroke-width:1.5;stroke-linecap:round;stroke-linejoin:round;stroke-miterlimit:10;" x1="581.219" y1="115.738" x2="584.977" y2="115.738"/>
			</g>
			<g>
				
					<line style="fill:none;stroke:#FF95FB;stroke-width:1.5;stroke-linecap:round;stroke-linejoin:round;stroke-miterlimit:10;" x1="591.139" y1="66.207" x2="591.139" y2="85.824"/>
				
					<line style="fill:none;stroke:#FF95FB;stroke-width:1.5;stroke-linecap:round;stroke-linejoin:round;stroke-miterlimit:10;" x1="589.26" y1="69.489" x2="593.018" y2="69.489"/>
			</g>
			
				<circle style="fill:none;stroke:#FF95FB;stroke-width:1.5;stroke-linecap:round;stroke-linejoin:round;stroke-miterlimit:10;" cx="607.14" cy="162.467" r="15.003"/>
		</g>
		
			<polyline style="fill:none;stroke:#FF95FB;stroke-width:1.5;stroke-linecap:round;stroke-linejoin:round;stroke-miterlimit:10;" points="
			733.969,189.302 675.784,189.302 675.784,246.146 631.182,246.146 631.182,178.991 634.757,178.991 634.757,144.284 
			631.182,144.284 631.182,132.073 623.143,107.209 623.143,85.824 607.14,42.856 591.137,85.824 591.137,107.209 583.098,132.073 
			583.098,144.284 579.523,144.284 579.523,178.991 583.098,178.991 583.107,218.148 535.976,218.148 535.967,176.718 
			485.558,176.718 		"/>
		
			<polyline style="fill:none;stroke:#FF95FB;stroke-width:1.5;stroke-linecap:round;stroke-linejoin:round;stroke-miterlimit:10;" points="
			485.558,176.718 485.558,138.02 485.558,116.082 482.718,107.737 479.879,116.082 479.879,129.938 464.489,108.036 449.1,129.938 
			449.1,116.082 446.26,107.737 443.421,116.082 443.421,187.208 411.486,187.208 411.486,138.02 411.486,116.082 408.646,107.737 
			405.806,116.082 405.806,129.938 390.417,108.036 375.028,129.938 375.028,116.082 372.188,107.737 369.348,116.082 
			369.348,187.208 340.351,187.208 340.351,132.671 299.938,132.671 299.938,193.816 272.235,193.816 272.235,157.644 
			221.195,157.644 221.195,216.161 191.631,216.161 191.631,135.193 134.891,135.193 134.891,158.911 101.4,158.911 101.4,117.441 
			76.58,117.441 76.58,62.805 16.031,62.805 		"/>
		
			<line style="fill:none;stroke:#FF95FB;stroke-width:1.5;stroke-linecap:round;stroke-linejoin:round;stroke-miterlimit:10;" x1="464.489" y1="108.036" x2="464.489" y2="75.237"/>
		
			<line style="fill:none;stroke:#FF95FB;stroke-width:1.5;stroke-linecap:round;stroke-linejoin:round;stroke-miterlimit:10;" x1="446.26" y1="107.737" x2="446.26" y2="100.471"/>
		
			<line style="fill:none;stroke:#FF95FB;stroke-width:1.5;stroke-linecap:round;stroke-linejoin:round;stroke-miterlimit:10;" x1="482.718" y1="107.737" x2="482.718" y2="100.471"/>
		
			<line style="fill:none;stroke:#FF95FB;stroke-width:1.5;stroke-linecap:round;stroke-linejoin:round;stroke-miterlimit:10;" x1="390.417" y1="108.036" x2="390.417" y2="75.237"/>
		
			<line style="fill:none;stroke:#FF95FB;stroke-width:1.5;stroke-linecap:round;stroke-linejoin:round;stroke-miterlimit:10;" x1="372.188" y1="107.737" x2="372.188" y2="100.471"/>
		
			<line style="fill:none;stroke:#FF95FB;stroke-width:1.5;stroke-linecap:round;stroke-linejoin:round;stroke-miterlimit:10;" x1="408.646" y1="107.737" x2="408.646" y2="100.471"/>
		<path style="fill:none;stroke:#FF95FB;stroke-width:1.5;stroke-linecap:round;stroke-linejoin:round;stroke-miterlimit:10;" d="
			M93.554,117.44c15.175-14.539,35.764-23.472,58.439-23.472c39.479,0,72.634,27.079,81.904,63.676"/>
		
			<line style="fill:none;stroke:#FF95FB;stroke-width:1.5;stroke-linecap:round;stroke-linejoin:round;stroke-miterlimit:10;" x1="151.993" y1="93.968" x2="151.993" y2="135.193"/>
		<path style="fill:none;stroke:#FF95FB;stroke-width:1.5;stroke-linecap:round;stroke-linejoin:round;stroke-miterlimit:10;" d="
			M93.517,117.401c15.2-14.518,35.797-23.433,58.476-23.433c39.504,0,72.689,27.051,82.043,63.64"/>
		
			<line style="fill:none;stroke:#FF95FB;stroke-width:1.5;stroke-linecap:round;stroke-linejoin:round;stroke-miterlimit:10;" x1="221.195" y1="178.645" x2="191.631" y2="178.645"/>
		
			<line style="fill:none;stroke:#FF95FB;stroke-width:1.5;stroke-linecap:round;stroke-linejoin:round;stroke-miterlimit:10;" x1="225.325" y1="136.306" x2="191.631" y2="155.76"/>
		
			<line style="fill:none;stroke:#FF95FB;stroke-width:1.5;stroke-linecap:round;stroke-linejoin:round;stroke-miterlimit:10;" x1="216.973" y1="216.161" x2="191.631" y2="201.53"/>
		
			<line style="fill:none;stroke:#FF95FB;stroke-width:1.5;stroke-linecap:round;stroke-linejoin:round;stroke-miterlimit:10;" x1="194.331" y1="105.312" x2="177.08" y2="135.193"/>
		
			<line style="fill:none;stroke:#FF95FB;stroke-width:1.5;stroke-linecap:round;stroke-linejoin:round;stroke-miterlimit:10;" x1="101.4" y1="149.435" x2="117.812" y2="158.911"/>
		
			<line style="fill:none;stroke:#FF95FB;stroke-width:1.5;stroke-linecap:round;stroke-linejoin:round;stroke-miterlimit:10;" x1="109.654" y1="105.312" x2="134.891" y2="149.024"/>
		<path style="fill:#FF95FB;" d="M157.588,93.968c0,3.09-2.505,5.595-5.595,5.595c-3.09,0-5.595-2.505-5.595-5.595
			c0-3.09,2.505-5.595,5.595-5.595C155.083,88.373,157.588,90.878,157.588,93.968z"/>
		<path style="fill:#FF95FB;" d="M199.926,105.102c0,3.09-2.505,5.595-5.595,5.595c-3.09,0-5.595-2.505-5.595-5.595
			c0-3.09,2.505-5.595,5.595-5.595C197.421,99.507,199.926,102.012,199.926,105.102z"/>
		<path style="fill:#FF95FB;" d="M230.92,136.306c0,3.09-2.505,5.595-5.595,5.595c-3.09,0-5.595-2.505-5.595-5.595
			c0-3.09,2.505-5.595,5.595-5.595C228.415,130.711,230.92,133.216,230.92,136.306z"/>
		<circle style="fill:#FF95FB;" cx="109.654" cy="105.102" r="5.595"/>
	</g>
</g>
<g id="Clouds">
	
		<path id="Cloud_00000106841330376674666710000017538664044897616567_" style="fill:#FFFFFF;stroke:#FF95FB;stroke-width:1.5;stroke-linecap:round;stroke-linejoin:round;stroke-miterlimit:10;" d="
		M268.444,90.3c0.678-3.131,3.461-5.472,6.794-5.472c1.064,0,2.061,0.246,2.963,0.666c0.897-2.776,3.493-4.79,6.571-4.809
		c0.236-5.107,4.439-9.178,9.604-9.178c4.793,0,8.765,3.504,9.501,8.09c0.037,0.23,0.328,0.306,0.474,0.125
		c1.716-2.122,4.337-3.482,7.279-3.482c5.136,0,9.301,4.135,9.361,9.257c0.898-0.423,1.888-0.669,2.943-0.669
		c3.344,0,6.139,2.364,6.805,5.511C330.739,90.339,270.796,90.302,268.444,90.3z"/>
	
		<path id="Cloud_00000047031684050757390540000001524943176189938845_" style="fill:#FFFFFF;stroke:#FF95FB;stroke-width:1.5;stroke-linecap:round;stroke-linejoin:round;stroke-miterlimit:10;" d="
		M493.546,69.247c0.75-3.467,3.833-6.059,7.523-6.059c1.178,0,2.282,0.273,3.281,0.738c0.994-3.074,3.868-5.304,7.276-5.325
		c0.261-5.655,4.915-10.163,10.635-10.163c5.308,0,9.705,3.88,10.52,8.958c0.041,0.254,0.363,0.339,0.525,0.139
		c1.901-2.35,4.803-3.856,8.06-3.856c5.687,0,10.299,4.579,10.365,10.25c0.994-0.468,2.091-0.74,3.259-0.74
		c3.703,0,6.797,2.617,7.535,6.102C562.526,69.291,496.15,69.25,493.546,69.247z"/>
	
		<path id="Cloud_00000116945184144350822860000009043079143807254454_" style="fill:#FFFFFF;stroke:#FF95FB;stroke-width:1.5;stroke-linecap:round;stroke-linejoin:round;stroke-miterlimit:10;" d="
		M154.342,63.478c1.087-5.022,5.552-8.777,10.897-8.777c1.707,0,3.306,0.395,4.752,1.069c1.44-4.453,5.603-7.684,10.541-7.714
		c0.379-8.192,7.12-14.722,15.405-14.722c7.689,0,14.058,5.62,15.239,12.976c0.059,0.369,0.525,0.491,0.76,0.201
		c2.753-3.404,6.957-5.585,11.676-5.585c8.238,0,14.919,6.632,15.014,14.847c1.44-0.678,3.029-1.072,4.721-1.072
		c5.363,0,9.846,3.791,10.915,8.84C254.263,63.541,158.114,63.482,154.342,63.478z"/>
</g>
<g id="Taxi_00000158029743581935863780000010424150138025165219_">
	<g id="Taxi">
		
			<rect x="68.847" y="347.804" style="fill:#303030;stroke:#303030;stroke-width:1.5;stroke-linecap:round;stroke-linejoin:round;stroke-miterlimit:10;" width="91.552" height="70.666"/>
		
			<rect x="375.777" y="347.804" style="fill:#303030;stroke:#303030;stroke-width:1.5;stroke-linecap:round;stroke-linejoin:round;stroke-miterlimit:10;" width="91.552" height="76.344"/>
		<g>
			<g>
				
					<path style="fill:#303030;stroke:#303030;stroke-width:1.5;stroke-linecap:round;stroke-linejoin:round;stroke-miterlimit:10;" d="
					M328.878,416.009c0-28.48-16.298-51.635-36.596-52.359c-0.024-0.012-0.048-0.026-0.072-0.038h-19.366
					c-20.749,0-37.571,23.465-37.571,52.401c0,28.936,16.822,52.393,37.571,52.393h18.462c0.001-0.001,0.002-0.002,0.003-0.003
					C312.058,468.4,328.878,444.944,328.878,416.009z"/>
				
					<ellipse style="fill:#303030;stroke:#303030;stroke-width:1.5;stroke-linecap:round;stroke-linejoin:round;stroke-miterlimit:10;" cx="272.841" cy="416.009" rx="37.572" ry="52.394"/>
				<path style="fill:none;stroke:#00826F;stroke-width:1.5;stroke-linecap:round;stroke-linejoin:round;stroke-miterlimit:10;" d="
					M272.841,363.615c20.75,0,37.572,23.457,37.572,52.394c0,28.936-16.821,52.394-37.572,52.394"/>
			</g>
			<g>
				
					<path style="fill:#303030;stroke:#303030;stroke-width:1.5;stroke-linecap:round;stroke-linejoin:round;stroke-miterlimit:10;" d="
					M639.013,416.009c0-28.48-16.298-51.635-36.596-52.359c-0.024-0.012-0.048-0.026-0.073-0.038h-19.366
					c-20.749,0-37.571,23.465-37.571,52.401c0,28.936,16.822,52.393,37.571,52.393h18.462c0.001-0.001,0.002-0.002,0.003-0.003
					C622.193,468.4,639.013,444.944,639.013,416.009z"/>
				
					<ellipse style="fill:#303030;stroke:#303030;stroke-width:1.5;stroke-linecap:round;stroke-linejoin:round;stroke-miterlimit:10;" cx="582.975" cy="416.009" rx="37.572" ry="52.394"/>
				<path style="fill:none;stroke:#00826F;stroke-width:1.5;stroke-linecap:round;stroke-linejoin:round;stroke-miterlimit:10;" d="
					M582.976,363.615c20.75,0,37.572,23.457,37.572,52.394c0,28.936-16.821,52.394-37.572,52.394"/>
			</g>
		</g>
		<g>
			<g>
				
					<path style="fill:#303030;stroke:#303030;stroke-width:1.5;stroke-linecap:round;stroke-linejoin:round;stroke-miterlimit:10;" d="
					M169.622,416.009c0-28.48-16.298-51.635-36.596-52.359c-0.024-0.012-0.048-0.026-0.072-0.038h-19.366
					c-20.749,0-37.571,23.465-37.571,52.401c0,28.936,16.822,52.393,37.571,52.393h18.463c0.001-0.001,0.002-0.002,0.003-0.003
					C152.802,468.4,169.622,444.944,169.622,416.009z"/>
				
					<ellipse style="fill:#00826F;stroke:#303030;stroke-width:1.5;stroke-linecap:round;stroke-linejoin:round;stroke-miterlimit:10;" cx="113.585" cy="416.009" rx="37.572" ry="52.394"/>
				
					<ellipse style="fill:#303030;stroke:#303030;stroke-width:1.5;stroke-linecap:round;stroke-linejoin:round;stroke-miterlimit:10;" cx="109.252" cy="416.009" rx="22.798" ry="33.702"/>
				
					<path style="fill:#FFFFFF;stroke:#303030;stroke-width:1.5;stroke-linecap:round;stroke-linejoin:round;stroke-miterlimit:10;" d="
					M111.419,382.463c-11.574,1.614-20.632,16.014-20.632,33.546c0,17.532,9.057,31.933,20.632,33.546
					c11.574-1.614,20.631-16.014,20.631-33.546C132.05,398.477,122.993,384.076,111.419,382.463z"/>
				
					<path style="fill:#FFFFFF;stroke:#303030;stroke-width:1.5;stroke-linecap:round;stroke-linejoin:round;stroke-miterlimit:10;" d="
					M111.419,382.463c-11.574,1.614-20.632,16.014-20.632,33.546c0,17.532,9.057,31.933,20.632,33.546
					c11.574-1.614,20.631-16.014,20.631-33.546C132.05,398.477,122.993,384.076,111.419,382.463z"/>
				<g>
					<path style="fill:#303030;" d="M120.269,395.245l-1.443,2.733c-0.685,1.297-2.338,1.756-3.57,0.96
						c-0.192-0.124-0.387-0.241-0.584-0.352c-0.824-0.46-1.364-1.297-1.364-2.241v-5.681c0-0.491,0.624-0.757,1.032-0.44
						l5.755,4.324C120.32,394.723,120.392,395.009,120.269,395.245z"/>
					<path style="fill:#303030;" d="M125.973,407.195l-1.483,0.7c-1.311,0.619-2.878,0.01-3.416-1.336
						c-0.205-0.513-0.426-1.01-0.663-1.49c-0.351-0.712-0.32-1.55,0.05-2.252l1.617-3.064c0.235-0.45,0.94-0.44,1.155,0.02
						l3.036,6.696C126.393,406.745,126.27,407.062,125.973,407.195z"/>
					<path style="fill:#303030;" d="M127.006,411.519v9.262c0,0.429-0.511,0.705-0.93,0.501l-1.926-0.949
						c-0.917-0.452-1.469-1.408-1.4-2.428c0.042-0.624,0.065-1.258,0.065-1.898c0-0.56-0.017-1.112-0.05-1.657
						c-0.063-1.032,0.502-1.996,1.436-2.439l1.885-0.893C126.505,410.814,127.006,411.09,127.006,411.519z"/>
					<path style="fill:#303030;" d="M126.311,425.882l-3.077,6.982c-0.205,0.46-0.92,0.48-1.155,0.02l-1.762-3.47
						c-0.358-0.704-0.377-1.539-0.019-2.243c0.245-0.482,0.475-0.983,0.689-1.5c0.556-1.346,2.139-1.936,3.445-1.292l1.593,0.786
						C126.3,425.299,126.423,425.616,126.311,425.882z"/>
					<path style="fill:#303030;" d="M120.054,438.17l-5.735,3.926c-0.419,0.286-1.012,0.01-1.012-0.46v-5.961
						c0-0.95,0.549-1.788,1.378-2.252c0.116-0.065,0.232-0.133,0.347-0.203c1.257-0.768,2.901-0.306,3.568,1.008l1.649,3.247
						C120.371,437.72,120.289,438.006,120.054,438.17z"/>
					<path style="fill:#303030;" d="M109.525,390.665v5.682c0,0.943-0.539,1.779-1.362,2.24c-0.196,0.109-0.388,0.226-0.579,0.349
						c-1.234,0.798-2.89,0.339-3.575-0.962l-1.436-2.729c-0.123-0.235-0.061-0.521,0.164-0.695l5.766-4.324
						C108.912,389.908,109.525,390.174,109.525,390.665z"/>
					<path style="fill:#303030;" d="M102.423,405.07c-0.236,0.48-0.457,0.977-0.661,1.489c-0.538,1.349-2.107,1.96-3.42,1.338
						l-1.483-0.702c-0.286-0.133-0.419-0.45-0.286-0.726l3.036-6.696c0.204-0.46,0.91-0.47,1.145-0.02l1.618,3.067
						C102.742,403.52,102.773,404.358,102.423,405.07z"/>
					<path style="fill:#303030;" d="M100.083,417.905c0.069,1.02-0.483,1.976-1.4,2.428l-1.926,0.949
						c-0.419,0.204-0.93-0.072-0.93-0.501v-9.262c0-0.429,0.501-0.705,0.92-0.501l1.885,0.893c0.935,0.443,1.499,1.407,1.436,2.439
						c-0.033,0.545-0.05,1.097-0.05,1.657C100.018,416.647,100.04,417.281,100.083,417.905z"/>
					<path style="fill:#303030;" d="M102.538,427.175c0.356,0.703,0.335,1.536-0.021,2.239l-1.762,3.471
						c-0.225,0.46-0.951,0.44-1.155-0.02l-3.067-6.982c-0.122-0.266,0-0.583,0.286-0.716l1.589-0.785
						c1.308-0.646,2.894-0.053,3.448,1.297C102.066,426.194,102.294,426.694,102.538,427.175z"/>
					<path style="fill:#303030;" d="M108.15,433.422c0.827,0.465,1.375,1.301,1.375,2.25v5.963c0,0.47-0.593,0.746-1.002,0.46
						l-5.745-3.926c-0.235-0.164-0.317-0.45-0.194-0.695l1.653-3.25c0.669-1.315,2.315-1.775,3.573-1.003
						C107.922,433.291,108.036,433.358,108.15,433.422z"/>
				</g>
			</g>
			<g>
				
					<path style="fill:#303030;stroke:#303030;stroke-width:1.5;stroke-linecap:round;stroke-linejoin:round;stroke-miterlimit:10;" d="
					M479.757,416.009c0-28.48-16.298-51.635-36.596-52.359c-0.024-0.012-0.048-0.026-0.073-0.038h-19.366
					c-20.749,0-37.571,23.465-37.571,52.401c0,28.936,16.822,52.393,37.571,52.393h18.462c0.001-0.001,0.002-0.002,0.003-0.003
					C462.937,468.4,479.757,444.944,479.757,416.009z"/>
				
					<ellipse style="fill:#00826F;stroke:#303030;stroke-width:1.5;stroke-linecap:round;stroke-linejoin:round;stroke-miterlimit:10;" cx="423.72" cy="416.009" rx="37.572" ry="52.394"/>
				
					<ellipse style="fill:#303030;stroke:#303030;stroke-width:1.5;stroke-linecap:round;stroke-linejoin:round;stroke-miterlimit:10;" cx="419.387" cy="416.009" rx="22.798" ry="33.702"/>
				
					<path style="fill:#FFFFFF;stroke:#303030;stroke-width:1.5;stroke-linecap:round;stroke-linejoin:round;stroke-miterlimit:10;" d="
					M421.553,382.463c-11.574,1.614-20.632,16.014-20.632,33.546c0,17.532,9.057,31.933,20.632,33.546
					c11.574-1.614,20.631-16.014,20.631-33.546C442.185,398.477,433.128,384.076,421.553,382.463z"/>
				
					<path style="fill:#FFFFFF;stroke:#303030;stroke-width:1.5;stroke-linecap:round;stroke-linejoin:round;stroke-miterlimit:10;" d="
					M421.553,382.463c-11.574,1.614-20.632,16.014-20.632,33.546c0,17.532,9.057,31.933,20.632,33.546
					c11.574-1.614,20.631-16.014,20.631-33.546C442.185,398.477,433.128,384.076,421.553,382.463z"/>
				<g>
					<path style="fill:#303030;" d="M430.404,395.245l-1.443,2.733c-0.685,1.297-2.338,1.756-3.57,0.96
						c-0.192-0.124-0.387-0.241-0.584-0.352c-0.824-0.46-1.364-1.297-1.364-2.241v-5.681c0-0.491,0.624-0.757,1.033-0.44
						l5.755,4.324C430.455,394.723,430.527,395.009,430.404,395.245z"/>
					<path style="fill:#303030;" d="M436.108,407.195l-1.483,0.7c-1.311,0.619-2.878,0.01-3.416-1.336
						c-0.205-0.513-0.426-1.01-0.663-1.49c-0.351-0.712-0.32-1.55,0.05-2.252l1.617-3.064c0.235-0.45,0.941-0.44,1.155,0.02
						l3.036,6.696C436.527,406.745,436.405,407.062,436.108,407.195z"/>
					<path style="fill:#303030;" d="M437.141,411.519v9.262c0,0.429-0.511,0.705-0.93,0.501l-1.926-0.949
						c-0.917-0.452-1.469-1.408-1.4-2.428c0.042-0.624,0.065-1.258,0.065-1.898c0-0.56-0.017-1.112-0.05-1.657
						c-0.063-1.032,0.502-1.996,1.436-2.439l1.885-0.893C436.64,410.814,437.141,411.09,437.141,411.519z"/>
					<path style="fill:#303030;" d="M436.445,425.882l-3.077,6.982c-0.204,0.46-0.92,0.48-1.155,0.02l-1.761-3.47
						c-0.358-0.704-0.377-1.539-0.019-2.243c0.245-0.482,0.475-0.983,0.688-1.5c0.556-1.346,2.139-1.936,3.445-1.292l1.593,0.786
						C436.435,425.299,436.558,425.616,436.445,425.882z"/>
					<path style="fill:#303030;" d="M430.189,438.17l-5.735,3.926c-0.419,0.286-1.012,0.01-1.012-0.46v-5.961
						c0-0.95,0.549-1.788,1.378-2.252c0.116-0.065,0.232-0.133,0.347-0.203c1.257-0.768,2.901-0.306,3.568,1.008l1.649,3.247
						C430.506,437.72,430.424,438.006,430.189,438.17z"/>
					<path style="fill:#303030;" d="M419.66,390.665v5.682c0,0.943-0.539,1.779-1.362,2.24c-0.195,0.109-0.388,0.226-0.579,0.349
						c-1.234,0.798-2.89,0.339-3.574-0.962l-1.436-2.729c-0.123-0.235-0.061-0.521,0.164-0.695l5.766-4.324
						C419.047,389.908,419.66,390.174,419.66,390.665z"/>
					<path style="fill:#303030;" d="M412.558,405.07c-0.236,0.48-0.457,0.977-0.661,1.489c-0.538,1.349-2.107,1.96-3.42,1.338
						l-1.483-0.702c-0.286-0.133-0.419-0.45-0.286-0.726l3.036-6.696c0.204-0.46,0.91-0.47,1.145-0.02l1.618,3.067
						C412.877,403.52,412.908,404.358,412.558,405.07z"/>
					<path style="fill:#303030;" d="M410.218,417.905c0.069,1.02-0.483,1.976-1.4,2.428l-1.926,0.949
						c-0.419,0.204-0.93-0.072-0.93-0.501v-9.262c0-0.429,0.501-0.705,0.92-0.501l1.885,0.893c0.935,0.443,1.499,1.407,1.436,2.439
						c-0.033,0.545-0.05,1.097-0.05,1.657C410.153,416.647,410.175,417.281,410.218,417.905z"/>
					<path style="fill:#303030;" d="M412.672,427.175c0.356,0.703,0.335,1.536-0.021,2.239l-1.762,3.471
						c-0.225,0.46-0.951,0.44-1.155-0.02l-3.067-6.982c-0.122-0.266,0-0.583,0.286-0.716l1.589-0.785
						c1.308-0.646,2.894-0.053,3.448,1.297C412.201,426.194,412.429,426.694,412.672,427.175z"/>
					<path style="fill:#303030;" d="M418.285,433.422c0.827,0.465,1.375,1.301,1.375,2.25v5.963c0,0.47-0.593,0.746-1.002,0.46
						l-5.745-3.926c-0.235-0.164-0.317-0.45-0.194-0.695l1.653-3.25c0.669-1.315,2.315-1.775,3.573-1.003
						C418.057,433.291,418.171,433.358,418.285,433.422z"/>
				</g>
				
					<ellipse style="fill:#FFFFFF;stroke:#303030;stroke-width:1.5;stroke-linecap:round;stroke-linejoin:round;stroke-miterlimit:10;" cx="419.387" cy="416.15" rx="9.386" ry="14.265"/>
			</g>
		</g>
		<g>
			<path style="fill:none;stroke:#303030;stroke-width:1.5;stroke-linecap:round;stroke-linejoin:round;stroke-miterlimit:10;" d="
				M582.999,313.375c-15.261,0-22.105,6.922-44.209,6.922"/>
			<path style="fill:none;stroke:#303030;stroke-width:1.5;stroke-linecap:round;stroke-linejoin:round;stroke-miterlimit:10;" d="
				M634.872,313.375c12.835,0,18.591,6.922,37.181,6.922"/>
			<path style="fill:#00826F;" d="M692.505,382.302c-0.041,0.348-0.092,0.705-0.153,1.084c-0.562,3.333-1.36,6.859-2.321,10.305
				c-0.981,3.568-2.126,7.043-3.302,10.09c-0.112,0.297-0.235,0.593-0.348,0.879c-4.355,10.591-11.122,13.811-26.221,13.811H466.052
				v-2.464c0-34.195-18.953-61.909-42.332-61.909c-23.379,0-42.332,27.714-42.332,61.909v2.464H192.411V178.983
				c138.548-12.022,236.063-1.656,259.207,2.668c15.794,2.944,28.184,13.77,42.547,30.893
				c14.363,17.133,46.258,61.254,46.258,61.254c77.652,16.489,92.454,19.822,99.068,31.486c0,0,17.143-0.204,29.084,7.432
				c14.424,9.241,20.19,28.133,17.419,59.568C690.737,373.03,693.476,374.881,692.505,382.302z"/>
			
				<path style="fill:#303030;stroke:#303030;stroke-width:1.5;stroke-linecap:round;stroke-linejoin:round;stroke-miterlimit:10;" d="
				M660.161,418.47c15.099,0,21.866-3.22,26.221-13.811c0.113-0.286,0.235-0.583,0.348-0.879c1.176-3.046,2.321-6.522,3.302-10.09
				c0.961-3.445,1.758-6.972,2.321-10.305c0.061-0.378,0.112-0.736,0.153-1.084c0.971-7.422-1.768-9.272-6.512-10.018h-33.841
				c-2.593,0-4.953,1.497-6.058,3.844c-1.104,2.346-3.464,3.844-6.058,3.844h-46.369c-2.593,0-4.953-1.497-6.058-3.844
				c-1.104-2.346-3.464-3.844-6.058-3.844H453.689c7.639,11.199,12.363,26.652,12.363,43.723v2.464H660.161z"/>
			
				<path style="fill:#FFFFFF;stroke:#303030;stroke-width:1.5;stroke-linecap:round;stroke-linejoin:round;stroke-miterlimit:10;" d="
				M647.272,421.35h-57.162c-2.724,0-4.933-2.209-4.933-4.933v-19.151c0-2.724,2.209-4.933,4.933-4.933h57.162
				c2.724,0,4.933,2.209,4.933,4.933v19.151C652.205,419.142,649.996,421.35,647.272,421.35z"/>
			
				<ellipse transform="matrix(0.9033 -0.4291 0.4291 0.9033 -75.3358 317.6632)" style="fill:#FFFFFF;stroke:#00826F;stroke-width:1.5;stroke-linecap:round;stroke-linejoin:round;stroke-miterlimit:10;" cx="666.852" cy="325.913" rx="14.098" ry="16.856"/>
			
				<ellipse transform="matrix(0.9033 -0.4291 0.4291 0.9033 -88.7647 258.1032)" style="fill:#FFFFFF;stroke:#00826F;stroke-width:1.5;stroke-linecap:round;stroke-linejoin:round;stroke-miterlimit:10;" cx="528.036" cy="325.913" rx="14.098" ry="16.856"/>
			<g>
				<path style="fill:none;stroke:#00826F;stroke-width:1.5;stroke-linecap:round;stroke-linejoin:round;stroke-miterlimit:10;" d="
					M572.752,393.695h-80.308c-3.145,0-5.694-2.549-5.694-5.694l0,0c0-3.145,2.549-5.694,5.694-5.694h80.308
					c3.145,0,5.694,2.549,5.694,5.694l0,0C578.446,391.146,575.897,393.695,572.752,393.695z"/>
				
					<path style="fill:#FF95FB;stroke:#303030;stroke-width:1.5;stroke-linecap:round;stroke-linejoin:round;stroke-miterlimit:10;" d="
					M572.752,393.695h-37.157c-3.145,0-5.694-2.549-5.694-5.694l0,0c0-3.145,2.549-5.694,5.694-5.694h37.157
					c3.145,0,5.694,2.549,5.694,5.694l0,0C578.446,391.146,575.897,393.695,572.752,393.695z"/>
				
					<path style="fill:#FFFFFF;stroke:#00826F;stroke-width:1.5;stroke-linecap:round;stroke-linejoin:round;stroke-miterlimit:10;" d="
					M560.898,404.657c0,4.041-3.01,7.317-6.724,7.317c-3.714,0-6.724-3.276-6.724-7.317c0-4.041,3.01-7.317,6.724-7.317
					C557.887,397.34,560.898,400.616,560.898,404.657z"/>
				
					<line style="fill:none;stroke:#00826F;stroke-width:1.5;stroke-linecap:round;stroke-linejoin:round;stroke-miterlimit:10;" x1="547.449" y1="404.657" x2="465.34" y2="404.657"/>
			</g>
			<g>
				<path style="fill:none;stroke:#00826F;stroke-width:1.5;stroke-linecap:round;stroke-linejoin:round;stroke-miterlimit:10;" d="
					M667.051,382.302h25.454c-0.041,0.348-0.092,0.705-0.153,1.084c-0.562,3.333-1.36,6.859-2.321,10.305h-22.981
					c-1.564,0-2.995-0.634-4.028-1.666c-1.032-1.033-1.666-2.453-1.666-4.028C661.357,384.858,663.912,382.302,667.051,382.302z"/>
				
					<path style="fill:#FF95FB;stroke:#303030;stroke-width:1.5;stroke-linecap:round;stroke-linejoin:round;stroke-miterlimit:10;" d="
					M692.505,382.302C692.464,382.65,692.505,382.302,692.505,382.302c1.186,2.743-0.506,10.031-2.474,11.388h-22.981
					c-1.564,0-2.995-0.634-4.028-1.666c-1.032-1.033-1.666-2.453-1.666-4.028c0-3.138,2.556-5.694,5.694-5.694H692.505z"/>
				
					<path style="fill:#FFFFFF;stroke:#00826F;stroke-width:1.5;stroke-linecap:round;stroke-linejoin:round;stroke-miterlimit:10;" d="
					M668.293,404.657c0,4.041,3.01,7.317,6.724,7.317c3.714,0,6.724-3.276,6.724-7.317c0-4.041-3.01-7.317-6.724-7.317
					C671.304,397.34,668.293,400.616,668.293,404.657z"/>
				
					<line style="fill:none;stroke:#00826F;stroke-width:1.5;stroke-linecap:round;stroke-linejoin:round;stroke-miterlimit:10;" x1="686.382" y1="404.66" x2="681.741" y2="404.66"/>
			</g>
			<path style="fill:none;stroke:#303030;stroke-width:1.5;stroke-linecap:round;stroke-linejoin:round;stroke-miterlimit:10;" d="
				M640.115,308.097c2.095,6.53,7.42,32.492,9.118,48.158c0.568,5.234-3.514,9.807-8.78,9.807h-49.672"/>
			<g>
				<g>
					<path style="fill:#303030;" d="M608.952,300.739c-10.497,0-18.113,1.921-22.77,3.604c-3.224,1.165-5.217,4.392-4.783,7.793
						l5.334,41.84c0.536,4.203,4.112,7.352,8.348,7.352h41.367c5.319,0,9.304-4.872,8.249-10.085l-8.351-41.264
						c-0.475-2.346-2.06-4.311-4.26-5.252C628.079,303.011,620.577,300.739,608.952,300.739z"/>
					<path style="fill:#FFFFFF;" d="M644.694,351.246l-8.352-41.269c-0.47-2.341-2.055-4.314-4.253-5.254
						c-4.007-1.707-11.511-3.987-23.134-3.987c-10.499,0-18.115,1.922-22.776,3.609c-3.22,1.165-5.214,4.396-4.784,7.79
						l5.336,41.841c0.542,4.202,4.109,7.35,8.352,7.35h41.361C641.77,361.326,645.757,356.46,644.694,351.246z M634.553,358.872
						h-38.008c-3.895,0-7.186-2.893-7.677-6.757l-4.13-33.541c-0.399-3.128,1.431-6.093,4.396-7.166
						c4.283-1.544,11.276-3.312,20.926-3.312c10.683,0,17.573,2.086,21.263,3.66c2.014,0.869,3.476,2.678,3.915,4.835l6.9,33.009
						C643.109,354.395,639.449,358.872,634.553,358.872z"/>
					<g>
						<line style="fill:none;stroke:#FFFFFF;stroke-miterlimit:10;" x1="587.027" y1="307.249" x2="594.061" y2="360.003"/>
						<line style="fill:none;stroke:#FFFFFF;stroke-miterlimit:10;" x1="591.751" y1="307.249" x2="599.188" y2="360.003"/>
						<line style="fill:none;stroke:#FFFFFF;stroke-miterlimit:10;" x1="596.475" y1="307.249" x2="604.315" y2="360.003"/>
						<line style="fill:none;stroke:#FFFFFF;stroke-miterlimit:10;" x1="601.198" y1="307.249" x2="609.442" y2="360.003"/>
						<line style="fill:none;stroke:#FFFFFF;stroke-miterlimit:10;" x1="605.922" y1="307.249" x2="614.568" y2="360.003"/>
						<line style="fill:none;stroke:#FFFFFF;stroke-miterlimit:10;" x1="610.646" y1="307.249" x2="619.695" y2="360.003"/>
						<line style="fill:none;stroke:#FFFFFF;stroke-miterlimit:10;" x1="615.37" y1="307.249" x2="624.822" y2="360.003"/>
						<line style="fill:none;stroke:#FFFFFF;stroke-miterlimit:10;" x1="620.093" y1="307.249" x2="629.949" y2="360.003"/>
						<line style="fill:none;stroke:#FFFFFF;stroke-miterlimit:10;" x1="624.817" y1="307.249" x2="635.076" y2="360.003"/>
						<line style="fill:none;stroke:#FFFFFF;stroke-miterlimit:10;" x1="629.541" y1="307.249" x2="640.202" y2="360.003"/>
					</g>
				</g>
				<path style="fill:#303030;" d="M614.85,304.474c0.173,0.897-1.757,1.625-4.31,1.625c-2.554,0-4.765-0.727-4.938-1.625
					c-0.173-0.897,1.757-1.625,4.311-1.625C612.466,302.849,614.677,303.576,614.85,304.474z"/>
			</g>
			<path style="fill:none;stroke:#303030;stroke-width:1.5;stroke-linecap:round;stroke-linejoin:round;stroke-miterlimit:10;" d="
				M539.396,312.767c-5.861-5.519-10.003-6.699-24.745-7.38c-12.639-0.583-101.551-2.988-124.598-2.988"/>
			<path style="fill:#FF95FB;" d="M402.523,332.507c0,2.526-2.791,4.573-6.234,4.573c-3.443,0-6.234-2.047-6.234-4.573
				c0-2.526,2.791-4.573,6.234-4.573C399.732,327.934,402.523,329.981,402.523,332.507z"/>
			
				<path style="fill:#FF95FB;stroke:#303030;stroke-width:1.5;stroke-linecap:round;stroke-linejoin:round;stroke-miterlimit:10;" d="
				M529.604,275.492l-134.061,4.459c-1.185,0.039-2.3-0.556-2.927-1.562l-43.175-69.304c-2.67-4.286,0.013-9.897,5.027-10.496
				c12.532-1.496,34.845-3.63,60.147-3.63c22.256,0,39.805,2.064,50.761,3.834c7.909,1.277,15.003,5.585,19.749,12.039
				l45.699,62.147C531.576,274.002,530.873,275.45,529.604,275.492z"/>
			<path style="fill:#FFFFFF;" d="M501.584,246.882l-68.853-0.687c-0.608-0.006-1.181-0.337-1.503-0.869l-22.175-36.631
				c-1.371-2.265,0.007-5.094,2.582-5.29c6.436-0.491,18.095-0.389,31.089,0.174c11.431,0.495,20.245,1.243,25.872,2.398
				c4.062,0.833,7.706,3.209,10.143,6.636l23.471,33.004C502.596,246.159,502.236,246.888,501.584,246.882z"/>
			<path style="fill:none;stroke:#FFFFFF;stroke-width:1.5;stroke-linecap:round;stroke-miterlimit:10;" d="M428.047,284.827
				c31.692,1.32,113.696,9.091,150.046,15.535c1.328,0.235,2.685,0.143,3.976-0.246c5.847-1.761,24.287-6.376,44.113-1.603"/>
			<g>
				<path style="fill:#303030;" d="M369.941,176.702c0-5.803,11.451-13.902,34.824-14.225c23.373-0.322,26.915,7.43,23.85,12.129
					c0,0,3.065,1.537,3.065,5.944c0,2.661,0.019,6.486-6.506,8.832c-5.756,2.069-18.582,3.308-35.89-0.268
					C374.044,185.965,369.941,180.409,369.941,176.702z"/>
				<path style="fill:#F55571;" d="M428.614,174.607c-4.731-2.374-19.862-4.699-33.415-2.288
					c-13.553,2.411-15.466,4.241-15.466,6.236c0,1.996,9.998,7.507,29.435,8.398c9.063,0.416,17.105-0.698,20.288-2.993
					C433.032,181.382,432.345,176.479,428.614,174.607z"/>
				<path style="fill:none;stroke:#00826F;stroke-width:1.5;stroke-linecap:round;stroke-linejoin:round;stroke-miterlimit:10;" d="
					M424.438,167.434c-8.079-1.932-37.234-2.605-44.705,8.149c-1.512,2.177-0.246,4.016,2.429,5.348"/>
				<g>
					<path style="fill:#303030;" d="M390.556,176.081c1.282-0.015,1.923-0.021,3.205-0.033c-0.373,2.247-0.355,3.37,0.091,5.617
						c0.123,0.621,0.762,1.133,1.375,1.142l0,0c0.613,0.009,0.991-0.492,0.887-1.118c-0.376-2.264-0.391-3.396-0.077-5.66
						c1.282-0.01,1.923-0.014,3.205-0.022c0.067-0.66,0.111-0.99,0.221-1.65c-3.39,0.033-5.084,0.057-8.474,0.122
						C390.774,175.12,390.688,175.44,390.556,176.081z M423.412,174.439c0.836,2.886,0.893,4.329,0.281,7.215
						c-0.131,0.619,0.216,1.113,0.829,1.102l0,0c0.613-0.011,1.283-0.518,1.433-1.131c0.702-2.858,0.636-4.288-0.323-7.146
						C424.744,174.462,424.3,174.454,423.412,174.439z M404.103,174.324c-1.523,2.821-2.349,4.229-3.429,7.023
						c-0.272,0.704,0.346,1.525,1.104,1.53l0,0c0.407,0.003,0.747-0.243,0.88-0.628c0.126-0.366,0.193-0.549,0.331-0.915
						c1.603,0.006,2.404,0.007,4.007,0.009c0.163,0.366,0.245,0.549,0.406,0.915c0.171,0.39,0.544,0.642,0.953,0.642
						c0.019,0,0.028,0,0.047,0c0.756,0,1.277-0.82,0.954-1.53c-1.284-2.821-2.072-4.236-3.244-7.054
						C405.308,174.318,404.906,174.32,404.103,174.324z M403.608,179.784c0.514-1.221,0.798-1.832,1.37-3.057
						c0.5,1.222,0.775,1.835,1.321,3.059C405.223,179.786,404.685,179.785,403.608,179.784z M420.851,174.4
						c-1.013-0.014-1.519-0.02-2.532-0.031c-0.618,1.079-0.988,1.622-1.782,2.712c-0.928-1.096-1.417-1.646-2.377-2.749
						c-1.058-0.007-1.587-0.01-2.646-0.013c1.447,1.668,2.224,2.502,3.631,4.159c-0.923,1.104-1.414,1.658-2.383,2.768
						c-0.571,0.654-0.186,1.645,0.634,1.641l0,0c0.295-0.002,0.588-0.143,0.797-0.384c0.928-1.071,1.398-1.606,2.289-2.671
						c0.758,1.054,1.113,1.579,1.716,2.622c0.142,0.246,0.398,0.388,0.701,0.385c0.044-0.001,0.065-0.001,0.109-0.001
						c0.811-0.01,1.469-0.973,1.036-1.615c-0.744-1.104-1.177-1.661-2.092-2.778C419.301,176.812,419.929,176.001,420.851,174.4z"/>
				</g>
			</g>
		</g>
		<g>
			
				<ellipse style="fill:#FFFFFF;stroke:#303030;stroke-width:1.5;stroke-linecap:round;stroke-linejoin:round;stroke-miterlimit:10;" cx="109.252" cy="416.15" rx="9.386" ry="14.265"/>
			
				<path style="fill:#303030;stroke:#303030;stroke-width:1.5;stroke-linecap:round;stroke-linejoin:round;stroke-miterlimit:10;" d="
				M78.07,382.302c-4.314,9.691-6.819,21.273-6.819,33.704v2.464h-7.238c-4.774,0-9.241-2.331-11.94-6.256
				c-4.117-6.004-7.688-12.072-10.345-20.619c-1.421-4.61,2.055-9.292,6.88-9.292H78.07z"/>
			<path style="fill:#00826F;" d="M386.264,302.218c-2.944,1.666-5.387,3.997-7.176,6.747c-1.779,2.75-2.903,5.929-3.21,9.282
				c-3.118,34.348-1.996,67.987-1.996,100.223H155.916v-2.464c0-34.195-18.953-61.909-42.332-61.909
				c-14.884,0-27.969,11.225-35.514,28.204H48.608c0.041-8.137,0.215-19.495,0.552-30.648c0.347-11.163,0.859-22.112,1.574-29.421
				c0.951-9.691,8.352-17.501,17.972-18.983l0.164-0.021c2.402-6.87,7.043-11.327,13.054-14.312c0,0,7.963-38.018,26.916-71.855
				c9.977-17.828,27.632-30.055,47.771-33.479c18.258-3.097,43.907-6.256,72.581-6.256c35.391,0,60.212,2.106,76.527,4.324
				c15.631,2.126,23.739,10.014,35.789,27.139c12.049,17.125,44.756,79.664,44.756,79.664V302.218z"/>
			<path style="fill:none;stroke:#303030;stroke-width:1.5;stroke-linecap:round;stroke-linejoin:round;stroke-miterlimit:10;" d="
				M156.611,183.583c18.258-3.097,43.907-6.256,72.581-6.256c35.391,0,60.212,2.106,76.527,4.324
				c15.631,2.126,23.739,10.014,35.789,27.139c12.049,17.125,44.756,79.664,44.756,79.664v13.764
				c-2.944,1.666-5.387,3.997-7.176,6.747c-1.779,2.75-2.903,5.929-3.21,9.282c-3.118,34.348-1.996,67.987-1.996,100.223"/>
			
				<line style="fill:none;stroke:#303030;stroke-width:1.5;stroke-linecap:round;stroke-linejoin:round;stroke-miterlimit:10;" x1="78.08" y1="382.302" x2="78.07" y2="382.302"/>
			
				<path style="fill:#303030;stroke:#303030;stroke-width:1.5;stroke-linecap:round;stroke-linejoin:round;stroke-miterlimit:10;" d="
				M373.732,390.578H151.536c2.263,5.124,3.474,11.19,4.027,17.56H373.85L373.732,390.578z"/>
			<g>
				<path style="fill:none;stroke:#00826F;stroke-width:1.5;stroke-linecap:round;stroke-linejoin:round;stroke-miterlimit:10;" d="
					M62.786,400.061H44.994l-2.676-6.66h20.468c1.839,0,3.33,1.491,3.33,3.33l0,0C66.116,398.571,64.625,400.061,62.786,400.061z"/>
				<path style="fill:none;stroke:#00826F;stroke-width:1.5;stroke-linecap:round;stroke-linejoin:round;stroke-miterlimit:10;" d="
					M71.391,410.949H54.563c-2.085,0-4.027-1.057-5.159-2.808v0"/>
			</g>
			
				<line style="fill:none;stroke:#303030;stroke-width:1.5;stroke-linecap:round;stroke-linejoin:round;stroke-miterlimit:10;" x1="76.013" y1="302.4" x2="375.758" y2="302.4"/>
			
				<line style="fill:none;stroke:#303030;stroke-width:1.5;stroke-linecap:round;stroke-linejoin:round;stroke-miterlimit:10;" x1="86.454" y1="289.694" x2="373.882" y2="289.694"/>
			
				<ellipse style="fill:none;stroke:#303030;stroke-width:1.5;stroke-linecap:round;stroke-linejoin:round;stroke-miterlimit:10;" cx="67.623" cy="330.641" rx="7.225" ry="10.829"/>
			<g>
				
					<path style="fill:#303030;stroke:#303030;stroke-width:1.5;stroke-linecap:round;stroke-linejoin:round;stroke-miterlimit:10;" d="
					M158.765,327.934h-2.855c-3.898,0-7.186-2.902-7.669-6.77l-0.757-6.057h19.707l-0.757,6.057
					C165.951,325.032,162.663,327.934,158.765,327.934z"/>
				
					<path style="fill:#00826F;stroke:#303030;stroke-width:1.5;stroke-linecap:round;stroke-linejoin:round;stroke-miterlimit:10;" d="
					M166.335,310.66H148.34c-1.771,0-3.207,1.436-3.207,3.207l0,0c0,3.444,2.792,6.236,6.236,6.236h11.937
					c3.444,0,6.236-2.792,6.236-6.236l0,0C169.542,312.096,168.106,310.66,166.335,310.66z"/>
			</g>
			<g>
				
					<path style="fill:#303030;stroke:#303030;stroke-width:1.5;stroke-linecap:round;stroke-linejoin:round;stroke-miterlimit:10;" d="
					M267.497,327.934h-2.855c-3.898,0-7.185-2.902-7.669-6.77l-0.757-6.057h19.707l-0.757,6.057
					C274.682,325.032,271.395,327.934,267.497,327.934z"/>
				
					<path style="fill:#00826F;stroke:#303030;stroke-width:1.5;stroke-linecap:round;stroke-linejoin:round;stroke-miterlimit:10;" d="
					M275.067,310.66h-17.994c-1.771,0-3.207,1.436-3.207,3.207l0,0c0,3.444,2.792,6.236,6.236,6.236h11.937
					c3.444,0,6.236-2.792,6.236-6.236l0,0C278.273,312.096,276.838,310.66,275.067,310.66z"/>
			</g>
			<path style="fill:none;stroke:#303030;stroke-width:1.5;stroke-linecap:round;stroke-linejoin:round;stroke-miterlimit:10;" d="
				M178.181,180.463c-7.491,6.087-10.064,12.868-17.765,47.061c-7.701,34.194-12.932,62.17-12.932,62.17s-4.011,5.641-4.935,12.706
				c-4.005,5.217-5.393,11.164-5.853,19.12c-0.713,12.332-2.121,40.714-2.121,40.714"/>
			<path style="fill:none;stroke:#303030;stroke-width:1.5;stroke-linecap:round;stroke-linejoin:round;stroke-miterlimit:10;" d="
				M178.181,180.463c-7.491,6.087-10.064,12.868-17.765,47.061c-7.701,34.194-12.932,62.17-12.932,62.17"/>
			<path style="fill:none;stroke:#303030;stroke-width:1.5;stroke-linecap:round;stroke-linejoin:round;stroke-miterlimit:10;" d="
				M266.069,178.179c-7.98,4.61-7.98,13.173-10.264,43.144s-3.425,68.37-3.425,68.37s-3.14,6.725-3.14,12.706
				c0,0-5.423,2.573-6.565,19.12c-1.142,16.547-3.711,96.95-3.711,96.95"/>
			
				<path style="fill:#FF95FB;stroke:#303030;stroke-width:1.5;stroke-linecap:round;stroke-linejoin:round;stroke-miterlimit:10;" d="
				M150.481,202.074c3.64-0.627,6.725,2.689,5.813,6.269c-1.328,5.213-2.795,11.507-4.519,19.178
				c-4.393,19.503-7.976,36.975-10.25,48.398c-0.475,2.384-2.567,4.096-4.998,4.096h-31.526c-6.544,0-11.193-6.344-9.249-12.592
				c3.733-11.999,9.367-27.592,17.166-42.958c0,0,0-0.01,0.01-0.01c5.336-9.763,10.12-16.039,25.915-19.996
				C142.06,203.652,145.993,202.847,150.481,202.074z"/>
			<path style="fill:#FFFFFF;" d="M148.082,206.836c1.917-0.33,3.542,1.416,3.061,3.301c-0.699,2.745-1.472,6.06-2.38,10.1
				c-2.314,10.271-4.2,19.472-5.398,25.488c-0.25,1.255-1.352,2.157-2.632,2.157h-16.602c-3.446,0-5.894-3.341-4.871-6.631
				c1.966-6.319,4.933-14.531,9.04-22.623c0,0,0-0.005,0.005-0.005c2.81-5.141,5.33-8.447,13.647-10.53
				C143.647,207.667,145.719,207.242,148.082,206.836z"/>
			
				<path style="fill:#FF95FB;stroke:#303030;stroke-width:1.5;stroke-linecap:round;stroke-linejoin:round;stroke-miterlimit:10;" d="
				M244.029,196.598c3.042,0.026,5.379,2.694,5.018,5.715c-0.615,5.143-1.24,11.386-2.058,19.013
				c-1.968,18.429-3.602,40.04-4.572,53.953c-0.186,2.671-2.406,4.735-5.084,4.735h-72.88c-3.217,0-5.631-2.936-4.999-6.09
				c2.284-11.41,5.707-28.003,9.852-46.404c2.498-11.074,4.448-19.272,6.208-25.496c0.576-2.037,2.352-3.49,4.461-3.681
				c12.365-1.119,25.79-1.819,38.83-1.819C226.875,196.525,235.41,196.525,244.029,196.598z"/>
			<path style="fill:#FFFFFF;" d="M241.035,201.084c1.626,0.014,2.822,1.446,2.568,3.068c-0.432,2.761-0.893,6.112-1.484,10.206
				c-1.424,9.892-2.734,21.493-3.533,28.962c-0.153,1.434-1.382,2.542-2.814,2.542h-38.971c-1.72,0-2.952-1.576-2.55-3.269
				c1.451-6.125,3.617-15.032,6.204-24.909c1.559-5.945,2.768-10.345,3.834-13.686c0.349-1.094,1.328-1.873,2.459-1.976
				c6.635-0.601,13.827-0.976,20.8-0.976C231.864,201.045,236.428,201.045,241.035,201.084z"/>
			
				<path style="fill:#FF95FB;stroke:#303030;stroke-width:1.5;stroke-linecap:round;stroke-linejoin:round;stroke-miterlimit:10;" d="
				M357.641,280.014h-88.994c-2.856,0-5.156-2.342-5.096-5.198c0.292-13.927,0.879-35.265,1.942-53.49
				c0.459-7.841,0.787-14.219,1.167-19.444c0.199-2.736,2.534-4.816,5.276-4.717c14.597,0.529,28.142,1.513,38.537,3.327
				c22.786,3.966,29.472,23.287,36.413,38.151c4.667,10.008,11.469,25.293,15.416,34.213
				C363.793,276.226,361.326,280.014,357.641,280.014z"/>
			<path style="fill:#FFFFFF;" d="M338.979,245.655h-45.888c-1.473,0-2.659-1.208-2.628-2.68c0.151-7.181,0.453-18.183,1.001-27.581
				c0.237-4.043,0.351-6.552,0.547-9.246c0.103-1.411,1.307-2.483,2.72-2.432c7.527,0.273,14.614,1.033,19.793,2.7
				c11.833,3.808,15.329,10.243,18.908,17.908c2.406,5.16,5.914,13.042,7.949,17.641
				C342.152,243.702,340.88,245.655,338.979,245.655z"/>
			
				<path style="fill:#303030;stroke:#303030;stroke-width:1.5;stroke-linecap:round;stroke-linejoin:round;stroke-miterlimit:10;" d="
				M357.641,280.014c3.685,0,6.152-3.788,4.661-7.158c-3.947-8.92-10.75-24.206-15.416-34.213v41.371H357.641z"/>
			
				<rect x="155.916" y="418.47" style="fill:#303030;stroke:#303030;stroke-width:1.5;stroke-linecap:round;stroke-linejoin:round;stroke-miterlimit:10;" width="225.472" height="5.647"/>
			
				<path style="fill:#303030;stroke:#303030;stroke-width:1.5;stroke-linecap:round;stroke-linejoin:round;stroke-miterlimit:10;" d="
				M346.886,263.77h-3.742c-0.947,0-1.875-0.271-2.673-0.781l-6.502-4.154c-1.665-1.064-3.576-1.664-5.55-1.733
				c-3.553-0.123-9.659-0.005-16.054,1.616c-1.851,0.469-3.435,0.905-4.789,1.302c-5.586,1.642-9.125,7.388-7.65,13.021
				c0.068,0.258,0.144,0.51,0.229,0.756c0.615,1.764,1.698,3.337,2.778,4.592c1.72,1.998,4.13,3.276,6.742,3.638
				c3.187,0.441,8.389,0.975,14.897,0.968c4.49-0.004,8.19-0.355,10.572-0.662c1.788-0.23,3.302-1.42,3.965-3.096l0,0
				c0.567-1.435,1.769-2.524,3.253-2.948l4.523-1.292V263.77z"/>
		</g>
	</g>
</g>
</svg>
